<svg width="23" height="23" viewBox="0 0 23 23" fill="none" xmlns="http://www.w3.org/2000/svg">
<path d="M4.79167 21.0833H18.2083C19.2654 21.0833 20.125 20.2237 20.125 19.1667V5.75001C20.125 4.69296 19.2654 3.83334 18.2083 3.83334H16.2917V1.91667H14.375V3.83334H8.625V1.91667H6.70833V3.83334H4.79167C3.73462 3.83334 2.875 4.69296 2.875 5.75001V19.1667C2.875 20.2237 3.73462 21.0833 4.79167 21.0833ZM10.5417 17.6468L6.98913 14.0942L8.34421 12.7391L10.5417 14.9366L14.6558 10.8225L16.0109 12.1775L10.5417 17.6468ZM4.79167 6.70834H18.2083V8.625H4.79167V6.70834Z" fill="white"/>
</svg>
