<svg width="72" height="14" viewBox="0 0 72 14" fill="none" xmlns="http://www.w3.org/2000/svg">
<g clip-path="url(#clip0_94_10)">
<path fill-rule="evenodd" clip-rule="evenodd" d="M47.4533 7.71084C47.4959 7.99084 47.5172 8.20622 47.5812 8.42161C48.0504 10.4247 49.6073 11.7601 51.6334 11.9324C53.4248 12.0831 54.8324 11.3939 55.8774 9.90776C56.3893 9.19699 57.221 9.06776 57.8822 9.6493C58.2661 9.97238 58.3087 10.4031 58.0101 10.8124C57.8395 11.0278 57.6902 11.2431 57.5196 11.4801C56.8372 12.4278 55.9414 13.0739 54.8324 13.4616C53.0409 14.0862 51.2495 14.1724 49.4793 13.5047C47.0907 12.6216 45.6831 10.8555 45.2779 8.33546C45.0433 6.78469 45.1926 5.23392 45.8964 3.83392C46.9201 1.83084 48.5196 0.603149 50.7376 0.236995C52.2092 7.18832e-05 53.6594 0.150841 55.0244 0.818533C56.9651 1.74469 58.1381 3.31699 58.586 5.40623C58.7139 5.98776 58.7566 6.5693 58.7992 7.15084C58.8419 7.51699 58.6713 7.66776 58.3087 7.6893C58.1381 7.6893 57.9888 7.6893 57.8182 7.6893C54.5125 7.6893 51.2068 7.6893 47.9224 7.6893C47.7732 7.71084 47.6665 7.71084 47.4533 7.71084ZM56.4746 5.51392C56.1973 3.64007 53.958 2.00315 51.8893 2.13238C49.7352 2.26161 47.6025 3.92007 47.5172 5.51392C50.4817 5.51392 53.4888 5.51392 56.4746 5.51392Z" fill="#BCBCBC"/>
<path fill-rule="evenodd" clip-rule="evenodd" d="M30.519 7.64608C30.5403 7.83993 30.5617 7.96916 30.583 8.11993C30.9882 10.3384 32.7797 11.8676 34.9977 11.9107C36.6825 11.9322 37.9835 11.243 38.9645 9.86454C39.4764 9.13224 40.3934 9.04608 41.0332 9.69224C41.3318 10.0153 41.3958 10.403 41.0972 10.7907C40.9692 10.9845 40.8413 11.1569 40.692 11.3076C39.9669 12.3845 38.9645 13.0738 37.7489 13.483C35.9574 14.0861 34.1659 14.1292 32.4384 13.4399C29.9645 12.4707 28.5783 10.5538 28.2797 7.883C28.1304 6.5907 28.2584 5.34147 28.7915 4.15685C29.8366 1.91685 31.5214 0.538388 33.974 0.215311C35.2749 0.0430031 36.5759 0.150695 37.7702 0.64608C39.9456 1.5507 41.2038 3.25223 41.6944 5.55685C41.7797 6.07377 41.8437 6.63377 41.865 7.1507C41.8863 7.58147 41.801 7.66762 41.3531 7.66762C40.5854 7.66762 39.7749 7.66762 38.9858 7.66762C36.3413 7.66762 33.6967 7.66762 31.0948 7.66762C30.9029 7.64608 30.7323 7.64608 30.519 7.64608ZM39.583 5.44916C39.3057 3.59685 37.1304 2.02454 34.9977 2.06762C32.929 2.1107 30.7749 3.7907 30.6043 5.44916C33.5901 5.44916 36.5546 5.44916 39.583 5.44916Z" fill="#BCBCBC"/>
<path fill-rule="evenodd" clip-rule="evenodd" d="M67.628 8.63728C67.7987 8.78805 67.884 8.8742 67.9906 8.96036C69.1423 9.95113 70.2939 10.9419 71.4243 11.9327C71.4882 11.9973 71.5949 12.0834 71.6589 12.1481C72.0854 12.5788 72.128 13.2034 71.7228 13.6342C71.3389 14.065 70.7418 14.1296 70.2939 13.7634C69.4835 13.0957 68.7157 12.4065 67.9266 11.7388C66.7963 10.7696 65.6873 9.80036 64.5569 8.83113C64.4716 8.74497 64.3437 8.65882 64.1731 8.52959C64.1731 8.76651 64.1517 8.91728 64.1517 9.06805C64.1517 11.8034 64.1517 9.75728 64.1517 12.4927C64.1517 12.6219 64.1517 12.7511 64.1517 12.8804C64.1091 13.4834 63.6612 13.9142 63.0641 13.8711C62.4882 13.8496 62.1043 13.4188 62.083 12.8157C62.083 12.6865 62.083 12.5573 62.083 12.4281C62.083 7.0219 62.083 6.39728 62.083 0.991127C62.083 0.818819 62.083 0.66805 62.083 0.495743C62.083 0.10805 62.1257 0.0434348 62.4882 0.0434348C62.9787 0.0218963 63.4693 0.0218963 63.9598 0.0218963C65.1328 0.0218963 66.3484 0.0649733 67.5214 0.000357877C69.5048 -0.085796 71.7228 1.52959 71.9361 3.87728C72.128 5.98805 70.6991 7.99113 68.5664 8.4219C68.2892 8.48651 67.9906 8.57267 67.628 8.63728ZM64.0238 6.97882C64.1517 7.00036 64.237 7.00036 64.301 7.00036C65.2821 7.00036 66.2844 7.00036 67.2655 7.00036C67.5427 7.00036 67.8413 6.97882 68.1186 6.87113C69.0356 6.59113 69.7607 6.03113 69.9953 5.04036C70.4006 3.33882 69.1423 1.78805 67.4148 1.78805C66.3911 1.78805 65.3887 1.78805 64.3437 1.78805C64.2157 1.78805 64.1091 1.80959 63.9811 1.80959C64.0238 3.53267 64.0238 5.2342 64.0238 6.97882Z" fill="#BCBCBC"/>
<path fill-rule="evenodd" clip-rule="evenodd" d="M22.842 7.6678C20.8799 7.6678 18.9818 7.6678 17.0411 7.6678C17.0411 7.84011 17.0197 7.99088 17.0197 8.14165C17.0197 9.64934 17.0197 11.1355 17.0197 12.6432C17.0197 12.837 17.0197 13.0309 16.9771 13.1817C16.8278 13.634 16.3586 13.914 15.9107 13.8924C15.4202 13.8493 15.015 13.4616 14.951 12.9663C14.9297 12.837 14.951 12.7293 14.951 12.6001C14.951 7.23704 14.9297 6.59088 14.9297 1.24934C14.9297 1.03396 14.951 0.818575 15.015 0.624729C15.1856 0.172422 15.6548 -0.0860398 16.1453 -0.0214244C16.5932 0.0431909 16.9771 0.430883 17.0197 0.904729C17.0411 1.0555 17.0197 1.18473 17.0197 1.3355C17.0197 4.09242 17.0411 2.13242 17.0411 4.88934C17.0411 5.06165 17.0624 5.21242 17.0624 5.36319C17.4249 5.44934 22.4581 5.44934 22.842 5.36319C22.842 5.23396 22.8633 5.10473 22.8633 4.95396C22.8633 3.74781 22.8633 2.52011 22.8633 1.31396C22.8633 1.18473 22.8633 1.07704 22.8633 0.947806C22.906 0.409345 23.3112 0.000114035 23.8444 -0.0214244C24.3775 -0.0429629 24.8681 0.366268 24.9321 0.904729C24.9534 1.03396 24.9321 1.14165 24.9321 1.27088C24.9321 5.04011 24.9321 8.7878 24.9321 12.557C24.9321 12.6863 24.9321 12.794 24.9321 12.9232C24.8681 13.4616 24.3989 13.8924 23.8657 13.8709C23.3325 13.8493 22.906 13.4186 22.842 12.8801C22.842 12.7509 22.842 12.6432 22.842 12.514C22.842 11.0709 22.842 9.58473 22.842 8.14165C22.842 8.01242 22.842 7.86165 22.842 7.6678Z" fill="#BCBCBC"/>
<path fill-rule="evenodd" clip-rule="evenodd" d="M5.86539 13.9785C4.47913 13.957 3.17819 13.6554 1.98387 12.9231C1.47203 12.6216 1.00283 12.2339 0.618945 11.7816C0.427002 11.5447 0.192405 11.3077 0.107097 11.0062C-0.0208655 10.6185 -0.0421925 10.1877 0.320367 9.84313C0.72558 9.45544 1.28008 9.30467 1.83458 9.67082C2.36776 10.0585 2.62368 10.5539 3.07155 11.0062C3.71136 11.6524 4.54312 11.997 5.43885 12.1047C6.2706 12.1908 7.08103 12.1693 7.89146 11.8893C8.21136 11.7601 8.55259 11.6093 8.82985 11.3939C9.34169 10.8124 9.49098 9.9939 8.8725 9.4339C8.57392 9.17544 8.19003 8.98159 7.80615 8.80928C6.86776 8.40005 5.88672 8.12005 4.90567 7.86159C4.09525 7.66775 3.32748 7.40928 2.51705 7.17236C2.21847 7.08621 1.91989 6.9139 1.64264 6.76313C0.896196 6.3539 0.469656 5.70775 0.341694 4.88928C0.107097 3.18775 0.72558 1.65852 2.19714 0.904669C4.50046 -0.236869 6.88909 -0.129177 9.1924 1.18467C9.61894 1.42159 10.0242 1.78775 10.3867 2.11082C10.664 2.34775 10.8772 2.69236 10.9839 3.05852C11.0905 3.51082 10.8772 3.98467 10.3227 4.1139C9.85354 4.22159 9.427 4.07082 9.08577 3.70467C9.02179 3.64005 8.95781 3.5539 8.91515 3.48928C8.38198 2.67082 7.59288 2.21852 6.65449 2.04621C5.7161 1.8739 4.77771 1.89544 3.88198 2.26159C3.56207 2.39082 3.22084 2.56313 2.96492 2.80005C2.58103 3.31698 2.43174 4.00621 2.94359 4.65236C3.3488 5.04005 3.818 5.25544 4.32984 5.36313C5.46018 5.64313 6.61184 5.94467 7.74217 6.22467C8.46729 6.41852 9.17108 6.65544 9.83221 7.04313C10.6853 7.49544 11.3038 8.16313 11.517 9.13236C11.773 10.317 11.517 11.437 10.6 12.2985C9.55496 13.2462 8.36065 13.7631 6.97439 13.9139C6.59051 13.957 6.20662 13.957 5.86539 13.9785Z" fill="#BCBCBC"/>
</g>
<defs>
<clipPath id="clip0_94_10">
<rect width="72" height="14" fill="white"/>
</clipPath>
</defs>
</svg>
