<svg width="49" height="48" viewBox="0 0 49 48" fill="none" xmlns="http://www.w3.org/2000/svg">
<path d="M23.4795 40H11.2295C10.688 40 10.1687 39.7893 9.78582 39.4142C9.40293 39.0391 9.18783 38.5304 9.18783 38V10C9.18783 9.46957 9.40293 8.96086 9.78582 8.58579C10.1687 8.21071 10.688 8 11.2295 8H21.4378V14C21.4378 15.5913 22.0831 17.1174 23.2318 18.2426C24.3805 19.3679 25.9384 20 27.5628 20H33.6878V30C33.6878 30.5304 33.9029 31.0391 34.2858 31.4142C34.6687 31.7893 35.188 32 35.7295 32C36.271 32 36.7903 31.7893 37.1732 31.4142C37.5561 31.0391 37.7712 30.5304 37.7712 30V18C37.7712 18 37.7712 18 37.7712 17.88C37.7499 17.6963 37.7088 17.5153 37.6487 17.34V17.16C37.5505 16.9544 37.4196 16.7653 37.2607 16.6L25.0107 4.6C24.842 4.44443 24.649 4.31616 24.4391 4.22C24.3715 4.20842 24.3025 4.20842 24.2349 4.22C24.0364 4.11601 23.823 4.04184 23.602 4H11.2295C9.60504 4 8.04712 4.63214 6.89846 5.75736C5.7498 6.88258 5.10449 8.4087 5.10449 10V38C5.10449 39.5913 5.7498 41.1174 6.89846 42.2426C8.04712 43.3679 9.60504 44 11.2295 44H23.4795C24.021 44 24.5403 43.7893 24.9232 43.4142C25.3061 43.0391 25.5212 42.5304 25.5212 42C25.5212 41.4696 25.3061 40.9609 24.9232 40.5858C24.5403 40.2107 24.021 40 23.4795 40ZM25.5212 10.82L30.8091 16H27.5628C27.0213 16 26.502 15.7893 26.1192 15.4142C25.7363 15.0391 25.5212 14.5304 25.5212 14V10.82ZM15.3128 28H27.5628C28.1043 28 28.6236 27.7893 29.0065 27.4142C29.3894 27.0391 29.6045 26.5304 29.6045 26C29.6045 25.4696 29.3894 24.9609 29.0065 24.5858C28.6236 24.2107 28.1043 24 27.5628 24H15.3128C14.7713 24 14.252 24.2107 13.8692 24.5858C13.4863 24.9609 13.2712 25.4696 13.2712 26C13.2712 26.5304 13.4863 27.0391 13.8692 27.4142C14.252 27.7893 14.7713 28 15.3128 28ZM23.4795 32H15.3128C14.7713 32 14.252 32.2107 13.8692 32.5858C13.4863 32.9609 13.2712 33.4696 13.2712 34C13.2712 34.5304 13.4863 35.0391 13.8692 35.4142C14.252 35.7893 14.7713 36 15.3128 36H23.4795C24.021 36 24.5403 35.7893 24.9232 35.4142C25.3061 35.0391 25.5212 34.5304 25.5212 34C25.5212 33.4696 25.3061 32.9609 24.9232 32.5858C24.5403 32.2107 24.021 32 23.4795 32ZM15.3128 20H17.3545C17.896 20 18.4153 19.7893 18.7982 19.4142C19.1811 19.0391 19.3962 18.5304 19.3962 18C19.3962 17.4696 19.1811 16.9609 18.7982 16.5858C18.4153 16.2107 17.896 16 17.3545 16H15.3128C14.7713 16 14.252 16.2107 13.8692 16.5858C13.4863 16.9609 13.2712 17.4696 13.2712 18C13.2712 18.5304 13.4863 19.0391 13.8692 19.4142C14.252 19.7893 14.7713 20 15.3128 20ZM43.3041 32.58C43.1143 32.3925 42.8885 32.2438 42.6397 32.1422C42.3909 32.0407 42.124 31.9884 41.8545 31.9884C41.585 31.9884 41.3181 32.0407 41.0693 32.1422C40.8205 32.2438 40.5947 32.3925 40.4049 32.58L33.6878 39.18L31.0541 36.58C30.8637 36.3935 30.6377 36.2456 30.389 36.1447C30.1403 36.0438 29.8737 35.9918 29.6045 35.9918C29.3353 35.9918 29.0687 36.0438 28.82 36.1447C28.5713 36.2456 28.3453 36.3935 28.1549 36.58C27.9645 36.7665 27.8135 36.9879 27.7105 37.2315C27.6075 37.4751 27.5545 37.7363 27.5545 38C27.5545 38.2637 27.6075 38.5249 27.7105 38.7685C27.8135 39.0121 27.9645 39.2335 28.1549 39.42L32.2382 43.42C32.428 43.6075 32.6539 43.7562 32.9026 43.8578C33.1514 43.9593 33.4183 44.0116 33.6878 44.0116C33.9574 44.0116 34.2242 43.9593 34.473 43.8578C34.7218 43.7562 34.9476 43.6075 35.1374 43.42L43.3041 35.42C43.4954 35.2341 43.6473 35.0129 43.751 34.7692C43.8546 34.5254 43.908 34.264 43.908 34C43.908 33.736 43.8546 33.4746 43.751 33.2308C43.6473 32.9871 43.4954 32.7659 43.3041 32.58Z" fill="#E1DAD0"/>
</svg>
