<svg width="21" height="21" viewBox="0 0 21 21" fill="none" xmlns="http://www.w3.org/2000/svg">
<g clip-path="url(#clip0_94_335)">
<path d="M5.27885 1.88672C2.5308 2.92031 0.24623 3.79805 0.197011 3.83906C-0.0121683 4.03184 0.00013634 3.6791 0.00013634 10.5082C0.00013634 16.7508 0.000136341 16.882 0.0821676 17.0092C0.123183 17.083 0.201113 17.1691 0.254433 17.202C0.307754 17.2348 2.59232 18.1043 5.33627 19.1297C9.21635 20.5857 10.3648 21 10.5083 21C10.6519 21 11.7962 20.5857 15.6722 19.1297C18.4121 18.1043 20.6925 17.2348 20.7458 17.202C20.7992 17.1691 20.8771 17.083 20.9181 17.0092C21.0001 16.882 21.0001 16.7508 21.0001 10.5C21.0001 4.24922 21.0001 4.11797 20.9181 3.99082C20.8771 3.91699 20.7992 3.83086 20.7458 3.79805C20.6925 3.76523 18.4079 2.8957 15.664 1.87031C11.4353 0.283007 10.6478 -1.90735e-06 10.4755 0.0041008C10.3156 0.0082016 9.23685 0.39785 5.27885 1.88672ZM9.84389 2.41172V3.26484L5.57006 4.86855L1.29213 6.47226L1.27982 5.63144C1.27572 5.16797 1.27572 4.77832 1.28393 4.77012C1.30443 4.75371 9.76596 1.5709 9.81518 1.56269C9.83158 1.55859 9.84389 1.94414 9.84389 2.41172ZM15.4384 3.1541C17.7804 4.03184 19.6999 4.75781 19.7122 4.77012C19.7204 4.77832 19.7246 5.16797 19.7204 5.63144L19.7081 6.47226L15.4343 4.86855L11.1564 3.26484V2.41172C11.1564 1.94414 11.1646 1.55859 11.1687 1.55859C11.1769 1.55859 13.1005 2.27637 15.4384 3.1541ZM9.84389 8.58457V12.5303L5.6931 14.0848C3.40853 14.942 1.4767 15.668 1.40287 15.6967L1.27162 15.75V11.8043V7.85449L5.54955 6.24668C7.89974 5.36484 9.82748 4.63887 9.83568 4.63887C9.83978 4.63476 9.84389 6.41074 9.84389 8.58457ZM15.5779 6.3L19.7287 7.85449V11.8002V15.75L19.5359 15.6721C19.4251 15.6311 18.8837 15.426 18.3259 15.2168L17.3087 14.8354V11.7346C17.3087 8.78555 17.3046 8.62559 17.2308 8.49023C17.1898 8.4123 17.0996 8.31387 17.0339 8.27285C16.9683 8.23594 16.1972 7.93652 15.3277 7.6084C13.6337 6.97266 13.5066 6.94394 13.2605 7.0957C12.9652 7.27207 12.9857 7.07519 12.9611 10.299L12.9406 13.1988L12.0505 12.8666L11.1564 12.5303V8.58457V4.63476L11.2917 4.68809C11.3615 4.71679 13.2933 5.44277 15.5779 6.3ZM15.3933 9.00703L16.0372 9.24902V11.8043C16.0372 14.2242 16.0331 14.3637 15.9675 14.335C15.9265 14.3186 15.5204 14.1668 15.0652 13.9945L14.2326 13.6869V11.1275V8.57226L14.491 8.6707C14.6304 8.72402 15.0365 8.87578 15.3933 9.00703ZM14.4458 15.1389C16.6197 15.9551 18.4285 16.6318 18.4736 16.6482C18.5269 16.6687 17.321 17.1404 14.5238 18.1863L10.5001 19.6998L6.4724 18.1863C4.25756 17.3578 2.46518 16.6729 2.48568 16.6646C2.50619 16.6564 4.31498 15.9797 6.50111 15.1553C8.69135 14.335 10.4837 13.6623 10.4878 13.6582C10.496 13.6582 12.2761 14.3227 14.4458 15.1389Z" fill="#112323"/>
<path d="M5.29512 8.05957C3.88828 8.58867 2.69883 9.05625 2.65371 9.09316C2.46094 9.26953 2.46094 9.28594 2.46094 11.1234C2.46094 12.7805 2.46504 12.8625 2.54297 12.9938C2.65371 13.1742 2.85469 13.2891 3.06797 13.2891C3.19512 13.2891 3.92109 13.0348 5.775 12.3416C7.16543 11.8207 8.34668 11.3695 8.4 11.3367C8.45332 11.3039 8.53125 11.2178 8.57227 11.1439C8.6502 11.0209 8.6543 10.9266 8.6543 9.26953C8.6543 7.6043 8.6502 7.52227 8.57227 7.39102C8.45742 7.20645 8.26055 7.0957 8.03906 7.0957C7.89961 7.0957 7.23105 7.32949 5.29512 8.05957ZM7.38281 9.51152V10.3688L5.63145 11.025C4.66348 11.3859 3.84316 11.6936 3.80625 11.71C3.73652 11.7387 3.73242 11.6813 3.73242 10.8773V10.0201L5.52891 9.33926C6.51328 8.96602 7.33359 8.6625 7.3541 8.6584C7.37051 8.6543 7.38281 9.03984 7.38281 9.51152Z" fill="#112323"/>
</g>
<defs>
<clipPath id="clip0_94_335">
<rect width="21" height="21" fill="white"/>
</clipPath>
</defs>
</svg>
