<svg width="22" height="22" viewBox="0 0 22 22" fill="none" xmlns="http://www.w3.org/2000/svg">
<path d="M3.51914 2.29872C2.8918 2.42333 2.36328 2.71122 1.89062 3.17958C1.5168 3.54911 1.26328 3.95302 1.08711 4.44716L0.966797 4.79091L0.945312 7.56669L0.923828 10.3425L0.726172 10.5616C0.468359 10.8452 0.193359 11.3823 0.0859375 11.7991C0.00429688 12.1171 0 12.289 0 15.7265V19.3229L0.0988281 19.469C0.292188 19.7612 0.326562 19.7655 1.93359 19.7655C3.54063 19.7655 3.575 19.7612 3.76836 19.469C3.86719 19.3272 3.86719 19.2972 3.86719 18.1628V17.0026L4.15938 17.0327C4.31836 17.0456 4.74805 17.0886 5.11328 17.1229C9.075 17.4968 13.634 17.4796 17.5055 17.0757C17.832 17.0456 18.107 17.0155 18.1156 17.0155C18.1242 17.0155 18.1328 17.5354 18.1328 18.1714C18.1328 19.8643 18.0125 19.7655 20.0664 19.7655C21.6734 19.7655 21.7078 19.7612 21.9012 19.469L22 19.3229V15.7265C22 12.289 21.9957 12.1171 21.9141 11.7991C21.8066 11.378 21.5359 10.8581 21.2652 10.5487L21.0547 10.3081V7.65263C21.0547 5.16474 21.0504 4.97568 20.973 4.6706C20.7367 3.75966 20.1137 2.99052 19.2715 2.57372C18.5625 2.22568 19.2973 2.25575 11.1074 2.24716C5.17344 2.24286 3.75117 2.25146 3.51914 2.29872ZM18.2832 3.63075C18.9406 3.80263 19.4305 4.26669 19.6539 4.91982C19.7355 5.16044 19.7398 5.30653 19.757 7.36474L19.7699 9.55185L19.6496 9.51747C19.3918 9.45302 19.0438 9.41005 18.7688 9.41005H18.4766V8.58075C18.4766 7.80302 18.468 7.74286 18.3734 7.54091C18.1801 7.12411 17.9051 6.92646 17.3164 6.77177C16.0145 6.42802 14.6695 6.40224 13.3934 6.70302C12.6199 6.88349 12.302 7.08544 12.0914 7.53232C11.9926 7.74286 11.9883 7.79872 11.9883 8.58075V9.41005H11H10.0117V8.58075C10.0117 7.80302 10.0031 7.74286 9.90859 7.54091C9.71523 7.12411 9.44023 6.92646 8.85156 6.77177C7.54961 6.42802 6.20469 6.40224 4.92852 6.70302C4.15508 6.88349 3.83711 7.08544 3.62656 7.53232C3.52773 7.74286 3.52344 7.79872 3.52344 8.58075V9.41005H3.23555C2.95625 9.41005 2.6082 9.45302 2.35039 9.51747L2.22578 9.55185L2.24297 7.34325C2.26016 5.23349 2.26445 5.12607 2.35039 4.89403C2.59102 4.2538 3.06797 3.80263 3.69961 3.63505C4.06055 3.53622 17.9094 3.53622 18.2832 3.63075ZM7.94922 7.92763C8.12539 7.962 8.37031 8.02216 8.49492 8.05653L8.72266 8.12529V8.76552V9.41005H6.76758H4.8082L4.82109 8.75693L4.83398 8.1038L5.15625 8.02216C5.80508 7.85888 6.17891 7.82021 6.91797 7.84169C7.30898 7.85029 7.77305 7.88896 7.94922 7.92763ZM16.4141 7.92763C16.5902 7.962 16.8352 8.02216 16.9598 8.05653L17.1875 8.12529V8.76552V9.41005H15.2324H13.273L13.2859 8.75693L13.2988 8.1038L13.6211 8.02216C14.2699 7.85888 14.6438 7.82021 15.3828 7.84169C15.7738 7.85029 16.2379 7.88896 16.4141 7.92763ZM19.2715 10.8065C19.7871 10.944 20.234 11.3007 20.4703 11.7647L20.582 11.9882H11H1.41797L1.52969 11.7647C1.67578 11.4768 2.00664 11.1288 2.26875 10.987C2.73281 10.7335 2.23438 10.7464 10.9785 10.7464C18.0684 10.7421 19.048 10.7507 19.2715 10.8065ZM20.7109 15.8768V18.4335H20.0664H19.4219V17.2347C19.4219 16.0659 19.4219 16.0358 19.323 15.894C19.2715 15.8124 19.1512 15.7093 19.0609 15.6663C18.8934 15.5847 18.8805 15.5847 18.0512 15.6792C13.4277 16.1905 8.59375 16.1905 4.10352 15.6792C3.09375 15.5632 2.95625 15.5761 2.74141 15.8038L2.57812 15.98V17.2089V18.4335H1.95508H1.33203V15.8768V13.3202H11.0215H20.7109V15.8768Z" fill="#112323"/>
</svg>
