<svg width="24" height="24" viewBox="0 0 24 24" fill="none" xmlns="http://www.w3.org/2000/svg">
<g clip-path="url(#clip0_262_429)">
<path d="M10.6781 0.0766964C10.5094 0.180515 10.3594 0.451349 10.3594 0.658989V0.83503L9.96563 0.934336C9.75 0.988503 9.40781 1.09684 9.20625 1.17809C8.37188 1.51211 7.30313 2.36072 6.5625 3.26802L6.21094 3.70135H4.14844C2.27813 3.70135 2.07188 3.71038 1.92188 3.7826C1.72031 3.87739 1.53281 4.20239 1.56094 4.401C1.575 4.47322 1.99688 5.70551 2.50313 7.14093L3.42188 9.74093L3.25781 10.3503C2.65313 12.6208 2.25938 15.284 2.10938 18.1458L2.05313 19.1163L1.44844 20.7323C1.10625 21.6531 0.84375 22.4159 0.84375 22.5107C0.84375 22.7274 0.95625 22.9395 1.12031 23.0343C1.24688 23.1066 1.90313 23.1111 11.0625 23.1111C21.7266 23.1111 21.0516 23.1291 21.1781 22.8628C21.3094 22.5875 21.2531 22.3753 20.6297 20.6961L20.025 19.0711L19.9688 17.9878C19.9406 17.392 19.9078 16.8729 19.8938 16.8368C19.8844 16.7961 19.9641 16.6652 20.0719 16.5434C22.0031 14.309 23.1094 11.384 23.1281 8.44093C23.1328 7.46593 23.0906 7.25829 22.7484 6.59024C22.3547 5.81836 21.6281 5.24059 20.7891 5.03295C20.5641 4.97878 20.1563 4.96524 18.6094 4.96524H16.7063L16.5234 4.65829C15.3188 2.66315 13.7063 1.29545 12.1406 0.934336L11.7188 0.83503V0.640932C11.7188 0.24371 11.4563 -4.00543e-05 11.0391 -4.00543e-05C10.9031 -4.00543e-05 10.7531 0.0360718 10.6781 0.0766964ZM11.6156 2.19371C12.3609 2.33816 13.0125 2.69475 13.6875 3.3267L14.0859 3.69683L11.0391 3.70135H7.99688L8.27344 3.426C8.95313 2.76246 9.81563 2.29302 10.575 2.17114C10.9406 2.10795 11.2266 2.11697 11.6156 2.19371ZM5.33438 5.04198C5.325 5.06454 5.16563 5.376 4.97813 5.73711C4.79063 6.10274 4.52344 6.66697 4.3875 6.99649L4.13906 7.59684L4.03594 7.30795C3.81563 6.69406 3.23438 5.03746 3.23438 5.02392C3.23438 5.01489 3.7125 5.01038 4.29375 5.01038C4.875 5.01038 5.34375 5.02392 5.33438 5.04198ZM15.3516 5.33538C15.8438 6.06663 16.4438 7.40725 16.9172 8.81559C17.7703 11.3614 18.3656 14.6566 18.5906 18.0645L18.6234 18.552H11.0391H3.45938L3.49219 18.0645C3.82031 12.8059 4.94531 8.39128 6.7125 5.42566L6.96094 5.01038H11.0484H15.1313L15.3516 5.33538ZM20.4516 6.34197C20.775 6.42322 21.0141 6.56315 21.2438 6.8069C21.6281 7.21767 21.75 7.61038 21.75 8.44093C21.75 10.0795 21.2859 11.9437 20.4984 13.4739C20.2828 13.8892 19.7297 14.8145 19.7063 14.792C19.6969 14.7875 19.6359 14.4354 19.5703 14.0156C19.1438 11.3569 18.4313 8.78399 17.4891 6.50899L17.3906 6.27427H18.7875C19.8703 6.27427 20.2453 6.28781 20.4516 6.34197ZM19.1766 20.7864C19.3547 21.2559 19.5141 21.6802 19.5281 21.7208C19.5516 21.7975 19.125 21.802 11.0391 21.802C2.94375 21.802 2.52188 21.7975 2.55469 21.7208C2.57344 21.6802 2.71875 21.2875 2.88281 20.8541C3.04688 20.4208 3.19219 20.0281 3.21094 19.9829C3.24375 19.9107 3.64688 19.9062 11.0484 19.9152L18.8578 19.9288L19.1766 20.7864Z" fill="#112323"/>
<path d="M10.4289 6.71665C9.86645 6.90624 9.42582 7.28089 9.1727 7.79999L9.0227 8.10242L9.00863 11.6639C8.99457 15.5548 8.99457 15.5278 9.26645 15.9746C9.67426 16.6472 10.5274 17.0399 11.3336 16.9271C11.9993 16.8368 12.6133 16.4035 12.9039 15.8121L13.0539 15.5052L13.068 11.876C13.0774 8.30554 13.0774 8.23783 12.9836 7.96249C12.7821 7.3802 12.2758 6.90172 11.6805 6.72568C11.3008 6.61283 10.7524 6.60832 10.4289 6.71665ZM11.3196 8.03471C11.4414 8.09339 11.5493 8.18818 11.6149 8.30103L11.718 8.47707V11.7858C11.718 14.8507 11.7133 15.1125 11.6336 15.2569C11.3852 15.7354 10.7196 15.7309 10.4664 15.2569L10.3586 15.0583V11.7993C10.3586 9.59652 10.3727 8.49513 10.4102 8.40936C10.4758 8.24235 10.6305 8.07985 10.8039 8.00763C10.9961 7.92638 11.0946 7.93089 11.3196 8.03471Z" fill="#112323"/>
</g>
<defs>
<clipPath id="clip0_262_429">
<rect width="24" height="23.1111" fill="white"/>
</clipPath>
</defs>
</svg>
