<svg width="24" height="24" viewBox="0 0 24 24" fill="none" xmlns="http://www.w3.org/2000/svg">
<path d="M0.375 4.44375C0.285938 4.48594 0.164062 4.59375 0.107813 4.68281L0 4.84219V12V19.1578L0.107813 19.3172C0.3375 19.6641 0.01875 19.6406 5.01562 19.6312L9.49219 19.6172L9.65156 19.5047C9.95156 19.2891 9.9375 19.5984 9.9375 13.8281V8.57812H15.2344H20.5312V13.8703V19.1578L20.6391 19.3172C20.8406 19.6219 20.9297 19.6406 22.2656 19.6406C23.6016 19.6406 23.6906 19.6219 23.8922 19.3172L24 19.1578V12V4.84219L23.8922 4.68281C23.8359 4.59375 23.7141 4.48594 23.625 4.44375C23.4703 4.36406 22.8188 4.35937 12 4.35937C1.18125 4.35937 0.529688 4.36406 0.375 4.44375ZM22.5938 6.46875V7.125H12H1.40625V6.46875V5.8125H12H22.5938V6.46875ZM8.53125 10.6172V12.6562H4.96875H1.40625V10.6172V8.57812H4.96875H8.53125V10.6172ZM22.5938 13.3828V18.1875H22.2656H21.9375V13.3828V8.57812H22.2656H22.5938V13.3828ZM8.53125 16.1484V18.1875H4.96875H1.40625V16.1484V14.1094H4.96875H8.53125V16.1484Z" fill="#112323"/>
<path d="M4.17617 9.99379C3.66523 10.2563 3.66523 10.9735 4.17617 11.2407C4.36836 11.3391 4.4293 11.3485 5.02461 11.3344C5.71836 11.3204 5.79805 11.2922 6.01836 10.9969C6.1543 10.8188 6.1543 10.4157 6.01836 10.2375C5.79805 9.94223 5.71836 9.9141 5.02461 9.90004C4.4293 9.88598 4.36836 9.89535 4.17617 9.99379Z" fill="#112323"/>
<path d="M4.27954 15.4687C4.07329 15.5344 3.85297 15.7687 3.81547 15.9656C3.74516 16.3312 3.87641 16.6312 4.17172 16.7859C4.42016 16.9219 5.46547 16.9125 5.74672 16.7765C6.11704 16.5984 6.25297 16.0781 6.01391 15.7547C5.80297 15.4781 5.7186 15.45 5.04829 15.4359C4.7061 15.4312 4.36391 15.4453 4.27954 15.4687Z" fill="#112323"/>
</svg>
