<svg width="24" height="24" viewBox="0 0 24 24" fill="none" xmlns="http://www.w3.org/2000/svg">
<g clip-path="url(#clip0_262_424)">
<path d="M5.64888 0.0677662C3.48326 0.438414 1.57545 1.83964 0.637946 3.75164C0.192634 4.66018 0.0473215 5.26587 0.014509 6.33713C-0.00424101 6.96542 0.00513399 7.23211 0.0660715 7.58919C0.384821 9.40627 1.32701 10.8843 2.85513 11.933C3.25826 12.2132 3.90045 12.5477 4.31763 12.6969L4.58013 12.7918L4.60826 13.8224C4.66451 15.7886 4.98326 17.8317 5.50357 19.572C5.97701 21.1585 6.21138 21.6331 6.79732 22.1936C7.48638 22.8581 8.21295 23.1428 9.2067 23.1428C9.87232 23.1428 10.2848 23.0569 10.7817 22.8219C11.5458 22.4558 12.1129 21.7552 12.3989 20.815C12.6098 20.1189 12.6051 19.8341 12.3333 17.7865C12.2067 16.7921 12.0004 15.1649 11.8879 14.1704C11.7708 13.176 11.6629 12.2856 11.6489 12.1952L11.6254 12.0279L11.8926 11.9556C13.5895 11.4765 18.3098 10.4504 19.1723 10.3736C19.4489 10.3464 19.6504 10.3826 21.3848 10.7804C23.4942 11.2595 23.5176 11.264 23.8083 11.0019L23.977 10.8572L23.9911 6.62642C24.0051 1.94812 24.0192 2.21933 23.7051 2.034C23.6208 1.98428 23.4708 1.9436 23.3583 1.9436C23.2551 1.9436 22.3223 2.13797 21.2958 2.37301L19.4254 2.7979L18.9614 2.73462C17.4942 2.53573 14.2411 1.84416 11.9067 1.23847C10.7629 0.940144 10.0786 0.73222 9.45045 0.488134C9.19263 0.388693 8.73795 0.244049 8.44263 0.171728C7.94107 0.045166 7.82388 0.0316048 6.96138 0.0180454C6.30045 0.00900459 5.91607 0.0225658 5.64888 0.0677662ZM8.05357 1.44639C8.2692 1.50064 8.70045 1.64076 9.01451 1.7628C9.66607 2.00688 10.4629 2.24645 11.7426 2.5719C13.5895 3.0465 16.4911 3.67932 17.8833 3.90984C18.2723 3.97312 18.6333 4.0364 18.6942 4.04544L18.7973 4.06804V6.56765V9.06726L17.8973 9.23903C14.8036 9.83568 11.4098 10.6538 9.00045 11.3861C7.96451 11.7025 7.43482 11.7974 6.69888 11.7974C5.38638 11.7974 4.26607 11.377 3.19732 10.4911C2.69576 10.0752 2.1192 9.32039 1.84263 8.72826C0.905134 6.69874 1.36451 4.38445 3.01451 2.82954C3.79732 2.09729 4.84732 1.57296 5.91607 1.37407C6.43638 1.28367 7.5567 1.31983 8.05357 1.44639ZM22.6411 6.55409C22.6411 8.26721 22.6223 9.67296 22.5989 9.67296C22.5708 9.67296 21.3192 9.38819 20.3114 9.15315L20.2036 9.13055V6.56314V3.99572L21.3895 3.72C22.0364 3.57084 22.5848 3.44427 22.6083 3.43975C22.627 3.43975 22.6411 4.83646 22.6411 6.55409ZM10.3317 12.7331C10.402 13.4337 10.7536 16.2858 10.9786 18.0125C11.1989 19.7256 11.2129 19.8884 11.1614 20.1822C11.0817 20.6387 10.8614 21.0636 10.5708 21.3303C10.2801 21.597 10.1254 21.6738 9.74107 21.7642C8.96295 21.9405 8.21763 21.728 7.70201 21.1766C7.43013 20.8873 7.32232 20.6749 7.06451 19.911C6.40826 17.9492 6.0942 16.1819 5.97701 13.741L5.9442 13.1308L6.64263 13.1263C7.68795 13.1173 8.48013 12.9817 9.51607 12.6336C10.3129 12.3624 10.2942 12.3624 10.3317 12.7331Z" fill="#112323"/>
<path d="M5.91172 3.02842C4.47734 3.31771 3.35234 4.34377 3.00078 5.67268C2.86953 6.16085 2.86953 6.94734 3.00078 7.44003C3.34766 8.74634 4.41641 9.75884 5.76641 10.0572C6.26328 10.1656 7.04141 10.1566 7.52422 10.0391C8.86953 9.7046 9.90078 8.68758 10.2242 7.39031C10.3555 6.85694 10.332 6.02524 10.1727 5.53707C9.78828 4.35733 8.88828 3.49399 7.66484 3.11882C7.29453 3.00582 6.28203 2.9561 5.91172 3.02842ZM7.01328 4.34377C8.23203 4.55621 9.12266 5.76308 8.91172 6.91118C8.71016 8.00504 7.73516 8.80962 6.61016 8.81414C5.11953 8.81414 3.96641 7.40839 4.33672 6.03428C4.51484 5.38791 4.98359 4.82742 5.58828 4.54717C6.09922 4.31213 6.50234 4.25337 7.01328 4.34377Z" fill="#112323"/>
</g>
<defs>
<clipPath id="clip0_262_424">
<rect width="24" height="23.1429" fill="white"/>
</clipPath>
</defs>
</svg>
