<svg width="24" height="25" viewBox="0 0 24 25" fill="none" xmlns="http://www.w3.org/2000/svg">
<g clip-path="url(#clip0_274_83)">
<path d="M0.374294 0.0878773C0.0414814 0.258776 -0.108519 0.761705 0.0649189 1.11327C0.102419 1.18651 0.439919 1.56249 0.814919 1.94823L1.49929 2.64647V12.4902V22.3291L0.819606 23.0517C-0.0288311 23.9551 -0.113206 24.1357 0.0977314 24.5947C0.261794 24.9463 0.678981 25.0976 1.04461 24.9316C1.12898 24.8974 1.49929 24.5459 1.86961 24.1504L2.53992 23.4375H8.03367C11.1696 23.4375 13.6024 23.418 13.7055 23.3887C13.8696 23.3496 14.3993 22.8174 18.1259 18.9355C20.4602 16.5088 22.3962 14.4678 22.4337 14.3945C22.4899 14.2822 22.4993 13.4082 22.4993 8.45702V2.64647L23.1837 1.94823C23.5587 1.56249 23.8962 1.18651 23.9337 1.11327C24.0368 0.90819 24.018 0.532213 23.8915 0.336901C23.6899 0.0195179 23.2352 -0.0976696 22.9446 0.0927601C22.8696 0.141588 22.504 0.478502 22.143 0.844713L21.4774 1.51366H11.9993H2.52117L1.85554 0.844713C1.49461 0.478502 1.13367 0.141588 1.05398 0.0927601C0.875856 -0.0244274 0.585231 -0.0244274 0.374294 0.0878773ZM5.99929 5.61522V8.20311H4.47586H2.95242V5.61522V3.02733H4.47586H5.99929V5.61522ZM16.9212 5.61522V8.20311H12.1868H7.45242V5.61522V3.02733H12.1868H16.9212V5.61522ZM21.0462 5.61522V8.20311H19.7102H18.3743V5.61522V3.02733H19.7102H21.0462V5.61522ZM5.99929 13.6719V17.6269H4.47586H2.95242V13.6719V9.71678H4.47586H5.99929V13.6719ZM16.9212 11.499V13.2812H15.154C13.5087 13.2812 13.368 13.291 13.1852 13.3789C13.068 13.4326 12.9462 13.54 12.8899 13.6328C12.8009 13.7891 12.7962 13.8769 12.7962 15.708V17.6269H10.1243H7.45242V13.6719V9.71678H12.1868H16.9212V11.499ZM21.0462 11.499V13.2812H19.7102H18.3743V11.499V9.71678H19.7102H21.0462V11.499ZM20.0149 14.8096C20.0149 14.8144 18.7165 16.1719 17.1321 17.8223L14.2493 20.8252V17.8076V14.7949H17.1321C18.7165 14.7949 20.0149 14.7998 20.0149 14.8096ZM5.99929 20.5322V21.9238H4.47586H2.95242V20.5322V19.1406H4.47586H5.99929V20.5322ZM12.7962 20.5322V21.9238H10.1243H7.45242V20.5322V19.1406H10.1243H12.7962V20.5322Z" fill="#112323"/>
</g>
<defs>
<clipPath id="clip0_274_83">
<rect width="24" height="25" fill="white"/>
</clipPath>
</defs>
</svg>
