<svg width="26" height="26" viewBox="0 0 26 26" fill="none" xmlns="http://www.w3.org/2000/svg">
<g clip-path="url(#clip0_267_449)">
<path d="M4.28008 5.09654C4.10234 5.13594 3.84336 5.22458 3.70625 5.29844C3.40664 5.45601 3.00039 5.8598 2.84805 6.14541C2.6043 6.60336 2.58906 6.78556 2.58906 8.89314V10.8678L2.18789 10.8924C1.36523 10.9367 0.598438 11.4636 0.2125 12.2465L0.0246094 12.6306L0.009375 16.1859L-0.00585938 19.7412L0.156641 19.9136C0.253125 20.0219 0.390234 20.1106 0.512109 20.1401C0.644141 20.1746 1.37539 20.1893 2.57891 20.1795C4.33086 20.1647 4.45273 20.1598 4.61016 20.0662C4.90469 19.8939 4.97578 19.6625 4.97578 18.8943V18.2197H12.9992H21.0227V18.8844C21.0227 19.6723 21.0836 19.8791 21.373 20.0515C21.5508 20.1647 21.5813 20.1647 23.4195 20.1795C24.623 20.1893 25.3543 20.1746 25.4863 20.1401C25.6082 20.1106 25.7453 20.0219 25.8418 19.9136L26.0043 19.7412L25.9891 16.1859L25.9738 12.6306L25.7859 12.2465C25.4203 11.503 24.7043 10.9958 23.8766 10.8825C23.6684 10.853 23.4805 10.8431 23.4551 10.8628C23.4297 10.8776 23.4094 10.0848 23.4094 8.87836C23.4094 7.33215 23.3941 6.81018 23.3383 6.61814C23.1148 5.80564 22.4191 5.19503 21.5711 5.067C21.3781 5.03745 19.809 5.02268 17.6203 5.03253C13.5984 5.0473 13.8016 5.03253 13.243 5.37723L12.9992 5.52495L12.7605 5.3723C12.2426 5.03745 12.4 5.05223 8.30195 5.03745C5.31094 5.03253 4.53398 5.04238 4.28008 5.09654ZM11.882 6.56397C11.948 6.59844 12.0598 6.70185 12.1207 6.79048L12.2375 6.95791V10.2473V13.5416H8.60664H4.97578V13.2954C4.97578 12.7242 4.73203 12.0988 4.34609 11.6852L4.10742 11.4291L4.12266 9.13442L4.13789 6.8348L4.32578 6.66738L4.51875 6.49995H8.13438C10.9273 6.49995 11.7855 6.51473 11.882 6.56397ZM21.6879 6.692L21.8859 6.88404V9.15905V11.434L21.6574 11.6803C21.2664 12.0988 21.0227 12.7291 21.0227 13.2954V13.5416H17.3918H13.7609V10.267C13.7609 6.64768 13.7508 6.79541 14.0809 6.59844C14.2383 6.50488 14.3602 6.49995 17.8691 6.49995H21.4898L21.6879 6.692ZM2.88359 12.4041C3.11211 12.5174 3.32539 12.7291 3.39648 12.9162C3.43203 13.0098 3.45234 14.0045 3.45234 15.8856V18.7121H2.46211H1.47188V15.9053C1.47188 12.8768 1.47188 12.8965 1.74102 12.6109C2.01016 12.3253 2.5332 12.2318 2.88359 12.4041ZM23.907 12.3844C24.1559 12.4878 24.3184 12.6405 24.4301 12.8768C24.5164 13.059 24.5266 13.256 24.5266 15.8905V18.7121H23.5363H22.5461V15.8806C22.5461 13.192 22.5512 13.0344 22.6426 12.8621C22.8914 12.3943 23.4246 12.1924 23.907 12.3844ZM21.0227 15.8806V16.7424H12.9992H4.97578V15.8806V15.0189H12.9992H21.0227V15.8806Z" fill="#112323"/>
</g>
<defs>
<clipPath id="clip0_267_449">
<rect width="26" height="25.2121" fill="white"/>
</clipPath>
</defs>
</svg>
