<svg width="24" height="24" viewBox="0 0 24 24" fill="none" xmlns="http://www.w3.org/2000/svg">
<g clip-path="url(#clip0_274_18)">
<path d="M7.26579 0.0843773C6.63767 0.318752 6.21579 0.745314 5.97204 1.38281C5.88767 1.60781 5.88298 1.86563 5.86892 8.25938L5.85485 14.9063H4.98767C4.01267 14.9063 3.72673 14.9531 3.26735 15.1969C2.93454 15.375 2.4986 15.8344 2.33454 16.1766C1.88454 17.1328 1.34079 19.7625 1.11579 22.0406L1.05954 22.6406H0.811104C0.497042 22.6406 0.290792 22.725 0.126729 22.9172C-0.117021 23.2078 -0.00920824 23.7563 0.323604 23.9297C0.450167 23.9906 1.67829 24 12.0002 24C22.322 24 23.5502 23.9906 23.6767 23.9297C24.0095 23.7563 24.1174 23.2078 23.8736 22.9172C23.7095 22.725 23.5033 22.6406 23.1892 22.6406H22.9408L22.8799 22.0453C22.6549 19.7297 22.1158 17.1375 21.6658 16.1766C21.5017 15.8344 21.0658 15.375 20.733 15.1969C20.2736 14.9531 19.9877 14.9063 19.0127 14.9063H18.1455L18.1314 8.25938C18.1174 1.86563 18.1127 1.60781 18.0283 1.38281C17.7845 0.745314 17.3205 0.281252 16.7158 0.079689C16.5049 0.00937653 16.0642 1.90735e-06 11.9814 0.00468826C7.88923 0.00468826 7.45798 0.0140648 7.26579 0.0843773ZM16.397 1.45313C16.4814 1.50469 16.5892 1.6125 16.6408 1.69688C16.7345 1.85156 16.7345 1.95469 16.7345 10.3359C16.7345 18.3188 16.7299 18.8297 16.6502 18.9797C16.608 19.0688 16.5095 19.1859 16.4392 19.2375C16.308 19.3359 16.2705 19.3359 12.0564 19.35C7.30798 19.3594 7.60329 19.3828 7.3736 19.0359L7.26579 18.8766V10.3641C7.26579 1.95469 7.26579 1.85156 7.35954 1.69688C7.4111 1.6125 7.51892 1.50469 7.60329 1.45313C7.75329 1.36406 7.85173 1.35938 12.0002 1.35938C16.1486 1.35938 16.247 1.36406 16.397 1.45313ZM5.86892 17.6813C5.89704 19.2469 5.9111 19.3313 6.2111 19.8047C6.46423 20.1984 6.81579 20.4703 7.28923 20.6531C7.50954 20.7375 7.73923 20.7422 11.7189 20.7563C14.1986 20.7656 16.0642 20.7516 16.2799 20.7234C17.0205 20.6344 17.6111 20.2125 17.9205 19.5563L18.0705 19.2422L18.0845 17.7469L18.0986 16.2563L18.9517 16.275C19.758 16.2891 19.8189 16.2984 20.0158 16.4063C20.3674 16.6031 20.508 16.9031 20.8314 18.1547C21.0705 19.0734 21.3986 21.0516 21.4924 22.125C21.5111 22.3172 21.5345 22.5141 21.5439 22.5563C21.5674 22.6359 21.0892 22.6406 12.0002 22.6406H2.42829L2.45642 22.5094C2.47048 22.4391 2.49392 22.2328 2.51267 22.0547C2.70017 19.9641 3.31423 17.1375 3.68454 16.6547C3.92829 16.3359 4.1486 16.275 5.11423 16.2703L5.85017 16.2656L5.86892 17.6813Z" fill="#112323"/>
<path d="M9.04713 2.6719C8.79401 2.73283 8.59245 2.98596 8.55495 3.28596C8.54088 3.42658 8.53151 4.78127 8.54088 6.30471C8.55495 9.37971 8.54557 9.2719 8.8737 9.46877C9.01901 9.55783 9.13151 9.56252 11.9909 9.56252C15.2581 9.56252 15.1174 9.57658 15.3378 9.2719L15.4456 9.11721V6.10783C15.4456 3.14533 15.4456 3.09846 15.3471 2.9719C15.2956 2.90158 15.1924 2.79846 15.1221 2.7469C14.9956 2.64846 14.944 2.64846 12.1034 2.63908C10.5143 2.6344 9.1362 2.64846 9.04713 2.6719ZM14.0628 6.11721V8.20315H12.0003H9.93776V6.11721V4.03127H12.0003H14.0628V6.11721Z" fill="#112323"/>
<path d="M8.87392 11.1094C8.45205 11.3625 8.4708 12.075 8.90674 12.2906C9.15517 12.4172 9.99892 12.4078 10.2099 12.2812C10.6552 12.0094 10.6552 11.3812 10.2099 11.1094C9.98486 10.9734 9.09424 10.9734 8.87392 11.1094Z" fill="#112323"/>
<path d="M11.3492 11.1C11.1149 11.2265 11.007 11.4515 11.0305 11.7562C11.0492 12.0187 11.157 12.1828 11.4008 12.3094C11.5836 12.4031 12.4274 12.3984 12.6383 12.3C12.8539 12.1969 12.9852 11.9719 12.9852 11.6953C12.9852 11.4187 12.8539 11.1937 12.6383 11.0906C12.3992 10.9781 11.5649 10.9875 11.3492 11.1Z" fill="#112323"/>
<path d="M13.7918 11.1094C13.7074 11.1609 13.5996 11.2687 13.548 11.3531C13.3605 11.6625 13.473 12.0844 13.7918 12.2812C14.0027 12.4078 14.8465 12.4172 15.0949 12.2906C15.5308 12.075 15.5496 11.3625 15.1277 11.1094C14.9074 10.9734 14.0168 10.9734 13.7918 11.1094Z" fill="#112323"/>
<path d="M8.90723 13.9219C8.44785 14.1609 8.45254 14.8828 8.90723 15.1172C9.00567 15.1688 9.19317 15.1875 9.56348 15.1875C10.1682 15.1875 10.29 15.1406 10.4541 14.8453C10.6463 14.5078 10.515 14.0859 10.1682 13.9125C9.93848 13.7906 9.13692 13.7953 8.90723 13.9219Z" fill="#112323"/>
<path d="M11.3907 13.9125C10.9313 14.1422 10.8891 14.8359 11.3157 15.0984C11.5313 15.2297 12.4735 15.2297 12.6891 15.0937C12.9095 14.9625 12.9985 14.7562 12.9751 14.4516C12.9516 14.1844 12.8438 14.0203 12.6001 13.8937C12.4079 13.7953 11.6016 13.8047 11.3907 13.9125Z" fill="#112323"/>
<path d="M13.8336 13.9125C13.4868 14.0859 13.3555 14.5078 13.5477 14.8453C13.7118 15.1406 13.8336 15.1875 14.4477 15.1875C14.8883 15.1875 15.0008 15.1734 15.1274 15.0938C15.5539 14.8359 15.5305 14.1469 15.0852 13.9172C14.8461 13.7953 14.068 13.7906 13.8336 13.9125Z" fill="#112323"/>
<path d="M9.05153 16.6828C8.5734 16.8046 8.39997 17.4562 8.74684 17.8171C8.93434 18.0093 9.13122 18.0609 9.65153 18.0375C10.0359 18.0234 10.1297 18.0046 10.2609 17.9109C10.6547 17.6296 10.6312 17.0015 10.214 16.7578C10.0406 16.6546 9.34215 16.6125 9.05153 16.6828Z" fill="#112323"/>
<path d="M11.4703 16.7063C11.1516 16.8235 11.0156 17.0156 11.0156 17.3578C11.0156 17.611 11.1609 17.85 11.3906 17.9625C11.6203 18.0797 12.3797 18.0797 12.6094 17.9625C13.0688 17.7328 13.1203 17.0766 12.6984 16.7766C12.5766 16.6922 12.4734 16.6688 12.0984 16.6547C11.7891 16.6453 11.5922 16.6594 11.4703 16.7063Z" fill="#112323"/>
<path d="M13.899 16.7062C13.2428 16.95 13.3459 17.9203 14.0397 18.0234C14.4287 18.0844 14.9818 18.0328 15.1225 17.925C15.3568 17.7516 15.4318 17.6062 15.4318 17.3437C15.4318 17.0812 15.3568 16.9359 15.1272 16.7672C14.9631 16.6406 14.1803 16.6031 13.899 16.7062Z" fill="#112323"/>
</g>
<defs>
<clipPath id="clip0_274_18">
<rect width="24" height="24" fill="white"/>
</clipPath>
</defs>
</svg>
