<svg width="24" height="25" viewBox="0 0 24 25" fill="none" xmlns="http://www.w3.org/2000/svg">
<g clip-path="url(#clip0_274_32)">
<path d="M14.4194 0.077774C12.2866 0.476385 10.4351 2.10972 9.7132 4.22916C9.53976 4.7493 9.41789 5.30347 9.38039 5.77986L9.35226 6.14444L8.91632 6.20764C6.28195 6.57222 3.96632 8.39514 2.90226 10.9375C2.57414 11.7299 2.38195 12.5319 2.29757 13.4799C2.23664 14.1653 2.27414 14.3792 2.49914 14.5444L2.64914 14.6562L9.91476 14.6708C14.9538 14.6806 17.232 14.6708 17.3538 14.6319C17.4476 14.6028 17.5835 14.5104 17.6538 14.4229L17.7804 14.2674L17.7523 13.6354C17.6163 10.466 15.5445 7.62708 12.5913 6.5625C12.1554 6.40694 11.1335 6.17361 10.8804 6.17361C10.7491 6.17361 10.7351 6.15903 10.7351 6.01319C10.7351 5.72153 10.9132 4.97291 11.0773 4.54513C11.7101 2.94583 13.1069 1.78402 14.7616 1.48263C16.196 1.22013 17.7523 1.72083 18.8398 2.79027C19.5101 3.45625 19.9366 4.2 20.2179 5.20139L20.3163 5.56597L20.3445 14.9965C20.3632 22.3222 20.382 24.4514 20.4241 24.5292C20.457 24.5875 20.5507 24.6944 20.6351 24.7674C20.771 24.884 20.8132 24.8986 21.0804 24.8792C21.3288 24.8646 21.3991 24.8354 21.5163 24.7187C21.596 24.641 21.6804 24.4951 21.7038 24.3931C21.7366 24.2764 21.746 21.0778 21.7366 14.9139C21.7226 5.65347 21.7226 5.61458 21.6241 5.15277C21.3288 3.78194 20.7523 2.69791 19.8241 1.7743C18.9054 0.865273 17.8413 0.296524 16.6132 0.077774C16.0929 -0.0194492 14.9304 -0.0194492 14.4194 0.077774ZM11.1569 7.65625C13.7538 8.1618 15.7695 10.2035 16.2804 12.8576L16.346 13.1979L10.0413 13.2125C6.57257 13.2174 3.72726 13.2174 3.72257 13.2076C3.68976 13.1785 3.85851 12.4396 3.98976 12.0361C4.29914 11.0736 4.85695 10.1597 5.5882 9.42083C6.59601 8.39514 7.88039 7.76805 9.32882 7.58333C9.7882 7.525 10.6601 7.56389 11.1569 7.65625Z" fill="#112323"/>
<path d="M4.50937 15.3126C4.20937 15.5021 4.17188 15.6285 4.17188 16.5278C4.17188 17.1938 4.18594 17.3591 4.25625 17.5001C4.47656 17.957 5.175 17.9765 5.44219 17.5341C5.52656 17.3931 5.53125 17.3056 5.52187 16.4938C5.50781 15.6285 5.50781 15.6091 5.39062 15.4827C5.1375 15.2008 4.79062 15.1376 4.50937 15.3126Z" fill="#112323"/>
<path d="M7.96875 15.2979C7.65938 15.468 7.61719 15.6139 7.61719 16.5618C7.61719 17.4708 7.63125 17.5243 7.93125 17.7576C8.09063 17.884 8.47031 17.884 8.66719 17.7625C8.93906 17.5972 9 17.3736 9 16.5229C9 15.7014 8.95781 15.5361 8.70938 15.3465C8.53125 15.2104 8.175 15.1861 7.96875 15.2979Z" fill="#112323"/>
<path d="M11.3906 15.3223C11.1 15.5216 11.0625 15.6723 11.0625 16.5521C11.0625 17.2181 11.0766 17.3542 11.1516 17.5C11.3813 17.9521 12.0703 17.9716 12.3281 17.5341C12.4125 17.398 12.4219 17.2862 12.4219 16.5375C12.4219 15.8521 12.4078 15.6674 12.3469 15.5653C12.2297 15.3563 12.0516 15.2493 11.7938 15.225C11.6016 15.2105 11.5219 15.2299 11.3906 15.3223Z" fill="#112323"/>
<path d="M14.8594 15.2979C14.55 15.468 14.5078 15.6139 14.5078 16.5618C14.5078 17.4708 14.5219 17.5243 14.8219 17.7576C14.9813 17.884 15.3609 17.884 15.5578 17.7625C15.8297 17.5972 15.8906 17.3736 15.8906 16.5229C15.8906 15.7014 15.8484 15.5361 15.6 15.3465C15.4219 15.2104 15.0656 15.1861 14.8594 15.2979Z" fill="#112323"/>
<path d="M6.38566 18.7639C6.20285 18.8076 6.02941 18.9632 5.95441 19.1528C5.9216 19.2403 5.90754 19.5757 5.91691 20.1396L5.93098 20.9951L6.0716 21.1458C6.32473 21.4181 6.73723 21.457 7.0091 21.2333C7.22941 21.0535 7.26691 20.8833 7.26691 20.0424C7.26691 19.3861 7.25285 19.25 7.17785 19.1042C7.03723 18.8271 6.70441 18.6813 6.38566 18.7639Z" fill="#112323"/>
<path d="M9.82009 18.7639C9.63259 18.8222 9.47321 18.9777 9.39353 19.1819C9.29509 19.4298 9.30446 20.7569 9.4029 20.9805C9.63259 21.4764 10.3263 21.5152 10.6076 21.0534C10.706 20.8882 10.7107 20.825 10.7107 20.0423C10.7107 19.2743 10.7013 19.1965 10.6123 19.075C10.4107 18.7882 10.1107 18.6715 9.82009 18.7639Z" fill="#112323"/>
<path d="M13.3125 18.7493C13.2469 18.7639 13.1391 18.8174 13.0641 18.8709C12.825 19.0507 12.7969 19.1722 12.7969 20.0667C12.7969 20.8396 12.8016 20.8979 12.9047 21.0535C13.0266 21.2431 13.275 21.3889 13.4766 21.3889C13.6781 21.3889 13.9266 21.2431 14.0484 21.0535C14.1516 20.8979 14.1562 20.8396 14.1562 20.0813C14.1562 19.4104 14.1422 19.2452 14.0719 19.1042C13.95 18.8466 13.6125 18.691 13.3125 18.7493Z" fill="#112323"/>
<path d="M7.93594 22.3611C7.65469 22.5361 7.61719 22.6771 7.61719 23.6007C7.61719 24.3882 7.62187 24.4368 7.725 24.5875C8.02969 25.0298 8.68594 24.9812 8.91562 24.5C9.0375 24.2521 9.0375 22.9007 8.91562 22.6528C8.74219 22.293 8.26875 22.1472 7.93594 22.3611Z" fill="#112323"/>
<path d="M11.4844 22.2979C11.4469 22.3125 11.3625 22.3708 11.3063 22.4292C11.0859 22.6333 11.0625 22.7451 11.0625 23.5764C11.0625 24.4368 11.0859 24.534 11.3438 24.7625C11.6297 25.0104 12.1781 24.8986 12.3516 24.5535C12.4078 24.4368 12.4219 24.2326 12.4219 23.5764C12.4219 22.6528 12.3938 22.5264 12.1266 22.3611C11.9813 22.2688 11.6484 22.2347 11.4844 22.2979Z" fill="#112323"/>
</g>
<defs>
<clipPath id="clip0_274_32">
<rect width="24" height="24.8889" fill="white"/>
</clipPath>
</defs>
</svg>
