<svg width="24" height="24" viewBox="0 0 24 24" fill="none" xmlns="http://www.w3.org/2000/svg">
<g clip-path="url(#clip0_274_14)">
<path d="M11.6479 0.0609226C11.4182 0.164047 11.2635 0.379673 10.5042 1.63592C10.0354 2.40467 9.76355 2.8078 9.72605 2.79374C9.69323 2.78436 8.93386 2.2828 8.04323 1.68748C6.2948 0.524984 6.15886 0.454672 5.78386 0.557796C5.5073 0.632797 5.28698 0.79686 5.16511 1.01717C5.06667 1.1953 5.03855 1.43905 4.82761 3.7828C4.69636 5.19374 4.59323 6.53436 4.59323 6.75936C4.59323 7.50467 4.81355 8.23123 5.22605 8.85936L5.47448 9.23436H3.93698C2.53542 9.23436 2.37136 9.24373 2.09948 9.32811C0.716671 9.75467 0.0369833 11.3297 0.665108 12.6469C0.740108 12.8109 0.866671 13.0125 0.946358 13.1015L1.08698 13.2656L0.946358 13.439C0.121358 14.4937 0.313546 16.0781 1.35886 16.8469L1.62605 17.0437L1.46198 17.2312C0.749483 18.0375 0.379171 19.1015 0.435421 20.1562C0.468233 20.7562 0.561983 21.1359 0.801046 21.6469C1.3448 22.8187 2.3573 23.639 3.60417 23.925C3.89948 23.9906 4.86511 24 12.7635 24C22.4104 24 21.7682 24.0187 22.3167 23.7375C22.5979 23.5969 23.0151 23.2125 23.1979 22.9312C23.7323 22.0969 23.6854 20.9672 23.0901 20.189L22.9167 19.964L23.062 19.7812C23.2542 19.5375 23.4698 19.064 23.5307 18.7547C23.7042 17.8453 23.3573 16.9312 22.6354 16.3875L22.3729 16.1906L22.537 16.0031C24.487 13.7906 23.5589 10.3359 20.7651 9.41248C20.3432 9.27186 20.2729 9.26248 19.4245 9.24373L18.5339 9.22498L18.7776 8.85467C19.1854 8.23123 19.4057 7.49061 19.4057 6.73592C19.4057 6.52498 19.3026 5.19374 19.1714 3.7828C18.9604 1.43905 18.9323 1.1953 18.8339 1.01717C18.712 0.79686 18.4917 0.632797 18.2151 0.557796C17.8401 0.454672 17.7089 0.520298 15.9276 1.71092C14.7839 2.47499 14.2635 2.79374 14.2401 2.75155C14.2214 2.72342 13.8932 2.16092 13.5135 1.50467C12.6885 0.0890465 12.637 0.0327969 12.126 0.0140476C11.9151 0.004673 11.737 0.0234222 11.6479 0.0609226ZM13.1432 3.78749C13.7245 4.79998 14.2495 5.73748 14.3057 5.87342C14.4464 6.2203 14.4792 7.00311 14.3667 7.3828C14.1042 8.28748 13.462 8.91561 12.5714 9.14061C12.3135 9.20623 11.7089 9.20623 11.4135 9.14061C10.5885 8.95311 9.8573 8.23123 9.6323 7.3828C9.52448 6.95623 9.54323 6.32342 9.67448 5.94373C9.74011 5.75623 10.1854 4.96873 10.8089 3.95155C12.0557 1.90311 12.051 1.9078 12.0651 1.93123C12.0745 1.93592 12.5573 2.77498 13.1432 3.78749ZM7.73386 3.24842C8.39011 3.68436 8.94323 4.05467 8.96198 4.07342C8.98073 4.09217 8.89167 4.28436 8.75573 4.49998C8.35261 5.17498 8.17917 5.66248 8.10886 6.35155C8.0198 7.2328 8.24011 8.15155 8.7323 8.9203L8.90573 9.18748H8.51667C8.29636 9.18748 8.01511 9.15467 7.8698 9.11248C6.80105 8.79842 6.04636 7.81873 6.04636 6.74998C6.04636 6.46873 6.35105 2.8828 6.40261 2.54061C6.41667 2.43748 6.4448 2.39998 6.4823 2.42342C6.51511 2.44217 7.07761 2.81248 7.73386 3.24842ZM17.7698 4.41561C17.8682 5.5078 17.9526 6.54842 17.9526 6.72655C17.9526 7.3828 17.7042 7.97811 17.2214 8.45623C16.7339 8.94842 16.1573 9.18748 15.4823 9.18748H15.0885L15.2245 8.98592C15.9135 7.9828 16.0964 6.64686 15.6979 5.4703C15.6229 5.23123 15.4307 4.82342 15.2807 4.56092L15.0089 4.08748L16.2792 3.23905C16.9776 2.77498 17.5589 2.40467 17.5682 2.41405C17.5823 2.42342 17.6714 3.32342 17.7698 4.41561ZM20.1557 10.7578C20.8729 10.95 21.501 11.4609 21.8292 12.1265C22.5417 13.5515 21.8667 15.1781 20.3151 15.764L20.0385 15.8672L11.3901 15.8812C5.23542 15.8906 2.69011 15.8812 2.56355 15.8437C2.21198 15.7406 1.87917 15.3187 1.87448 14.9719C1.87448 14.6531 2.06198 14.3156 2.34323 14.1422L2.5073 14.039L10.9682 14.0156L19.4292 13.9922L19.5885 13.8797C19.926 13.6359 20.001 13.1437 19.7479 12.839C19.4948 12.539 20.1651 12.5625 11.0526 12.5625C5.10886 12.5625 2.69011 12.5484 2.55417 12.5109C2.31042 12.4406 1.99636 12.1265 1.92136 11.8734C1.79948 11.4703 2.00105 10.9828 2.37605 10.7859C2.55417 10.6922 2.66198 10.6922 11.226 10.6922C18.6885 10.6875 19.9354 10.6969 20.1557 10.7578ZM21.5385 17.4328C22.2182 17.7422 22.312 18.6281 21.7073 19.0547L21.5057 19.1953L13.0635 19.2187C4.69167 19.2422 4.61667 19.2422 4.45261 19.3359C3.98386 19.6078 3.98386 20.3109 4.45261 20.5734L4.63073 20.6719H12.9464C22.2323 20.6719 21.5432 20.6484 21.862 21C22.2839 21.464 22.1573 22.1672 21.5995 22.4625L21.3979 22.5703H12.7729C4.67761 22.5703 4.12917 22.5656 3.84792 22.4859C3.38855 22.3594 3.00886 22.1344 2.64792 21.7734C1.78073 20.9062 1.63073 19.5844 2.29167 18.5765C2.68542 17.9765 3.18698 17.6156 3.8573 17.4375C4.18073 17.3531 4.52761 17.3484 12.7729 17.3484C20.9714 17.3437 21.3604 17.3484 21.5385 17.4328Z" fill="#112323"/>
</g>
<defs>
<clipPath id="clip0_274_14">
<rect width="24" height="24" fill="white"/>
</clipPath>
</defs>
</svg>
