<svg width="24" height="24" viewBox="0 0 24 24" fill="none" xmlns="http://www.w3.org/2000/svg">
<path d="M3.83906 2.50785C3.15469 2.64379 2.57812 2.95785 2.0625 3.46879C1.65469 3.87191 1.37813 4.31254 1.18594 4.8516L1.05469 5.2266L1.03125 8.25473L1.00781 11.2829L0.792188 11.5219C0.510938 11.8313 0.210938 12.4172 0.09375 12.8719C0.0046875 13.2188 0 13.4063 0 17.1563V21.0797L0.107813 21.2391C0.31875 21.5579 0.35625 21.5625 2.10938 21.5625C3.8625 21.5625 3.9 21.5579 4.11094 21.2391C4.21875 21.0844 4.21875 21.0516 4.21875 19.8141V18.5485L4.5375 18.5813C4.71094 18.5954 5.17969 18.6422 5.57812 18.6797C9.9 19.0875 14.8734 19.0688 19.0969 18.6282C19.4531 18.5954 19.7531 18.5625 19.7625 18.5625C19.7719 18.5625 19.7812 19.1297 19.7812 19.8235C19.7812 21.6704 19.65 21.5625 21.8906 21.5625C23.6438 21.5625 23.6813 21.5579 23.8922 21.2391L24 21.0797V17.1563C24 13.4063 23.9953 13.2188 23.9062 12.8719C23.7891 12.4125 23.4938 11.8454 23.1984 11.5079L22.9688 11.2454V8.34848C22.9688 5.63441 22.9641 5.42817 22.8797 5.09535C22.6219 4.1016 21.9422 3.26254 21.0234 2.80785C20.25 2.42816 21.0516 2.46098 12.1172 2.4516C5.64375 2.44691 4.09219 2.45629 3.83906 2.50785ZM19.9453 3.96098C20.6625 4.14848 21.1969 4.65473 21.4406 5.36723C21.5297 5.62973 21.5344 5.7891 21.5531 8.03442L21.5672 10.4204L21.4359 10.3829C21.1547 10.3125 20.775 10.2657 20.475 10.2657H20.1562V9.36098C20.1562 8.51254 20.1469 8.44691 20.0438 8.2266C19.8328 7.77192 19.5328 7.55629 18.8906 7.38754C17.4703 7.01254 16.0031 6.98442 14.6109 7.31254C13.7672 7.50941 13.4203 7.72973 13.1906 8.21723C13.0828 8.44691 13.0781 8.50785 13.0781 9.36098V10.2657H12H10.9219V9.36098C10.9219 8.51254 10.9125 8.44691 10.8094 8.2266C10.5984 7.77192 10.2984 7.55629 9.65625 7.38754C8.23594 7.01254 6.76875 6.98442 5.37656 7.31254C4.53281 7.50941 4.18594 7.72973 3.95625 8.21723C3.84844 8.44691 3.84375 8.50785 3.84375 9.36098V10.2657H3.52969C3.225 10.2657 2.84531 10.3125 2.56406 10.3829L2.42813 10.4204L2.44688 8.01098C2.46563 5.70941 2.47031 5.59223 2.56406 5.3391C2.82656 4.64067 3.34688 4.14848 4.03594 3.96566C4.42969 3.85785 19.5375 3.85785 19.9453 3.96098ZM8.67188 8.64848C8.86406 8.68598 9.13125 8.7516 9.26719 8.7891L9.51562 8.8641V9.56254V10.2657H7.38281H5.24531L5.25938 9.55317L5.27344 8.84066L5.625 8.7516C6.33281 8.57348 6.74063 8.53129 7.54688 8.55473C7.97344 8.5641 8.47969 8.60629 8.67188 8.64848ZM17.9062 8.64848C18.0984 8.68598 18.3656 8.7516 18.5016 8.7891L18.75 8.8641V9.56254V10.2657H16.6172H14.4797L14.4938 9.55317L14.5078 8.84066L14.8594 8.7516C15.5672 8.57348 15.975 8.53129 16.7812 8.55473C17.2078 8.5641 17.7141 8.60629 17.9062 8.64848ZM21.0234 11.7891C21.5859 11.9391 22.0734 12.3282 22.3313 12.8344L22.4531 13.0782H12H1.54688L1.66875 12.8344C1.82813 12.5204 2.18906 12.1407 2.475 11.986C2.98125 11.7094 2.4375 11.7235 11.9766 11.7235C19.7109 11.7188 20.7797 11.7282 21.0234 11.7891ZM22.5938 17.3204V20.1094H21.8906H21.1875V18.8016C21.1875 17.5266 21.1875 17.4938 21.0797 17.3391C21.0234 17.25 20.8922 17.1375 20.7938 17.0907C20.6109 17.0016 20.5969 17.0016 19.6922 17.1047C14.6484 17.6625 9.375 17.6625 4.47656 17.1047C3.375 16.9782 3.225 16.9922 2.99063 17.2407L2.8125 17.4329V18.7735V20.1094H2.13281H1.45312V17.3204V14.5313H12.0234H22.5938V17.3204Z" fill="#112323"/>
</svg>
