<svg width="24" height="24" viewBox="0 0 24 24" fill="none" xmlns="http://www.w3.org/2000/svg">
<path d="M11.2031 0.0328121C8.62031 0.449999 6.55312 2.51719 5.79375 5.45156C5.61562 6.14062 5.53125 6.85781 5.53125 7.72031C5.53125 10.0312 6.29531 12.0234 7.77656 13.5562L8.25937 14.0625L5.25937 14.0719C2.325 14.0859 2.25469 14.0859 2.12812 14.1797C2.05781 14.2312 1.96406 14.3484 1.91719 14.4375C1.83281 14.5922 1.82812 14.7984 1.82812 18.6047C1.82812 22.5 1.83281 22.6172 1.92187 22.8047C2.07187 23.1187 2.22187 23.175 2.92031 23.1937C3.51562 23.2125 3.51562 23.2125 3.51562 23.325C3.51562 23.5078 3.63281 23.7375 3.79219 23.8734C3.91406 23.9766 3.99375 24 4.18594 24C4.59375 24 4.83281 23.7937 4.89844 23.4047L4.93125 23.2031H12H19.0687L19.1016 23.4C19.1672 23.7937 19.4062 24 19.8141 24C20.0062 24 20.0859 23.9766 20.2078 23.8734C20.3672 23.7375 20.4844 23.5078 20.4844 23.325C20.4844 23.2125 20.4844 23.2125 21.0844 23.1937C21.7781 23.175 21.9281 23.1187 22.0781 22.8C22.1719 22.6125 22.1719 22.5234 22.1625 18.5578L22.1484 14.5078L22.0359 14.3484C21.825 14.0578 21.9094 14.0625 18.6703 14.0625H15.7266L16.2187 13.5562C17.4187 12.3234 18.1594 10.7484 18.4031 8.89219C18.5156 8.04375 18.4734 6.69375 18.3047 5.90625C17.9719 4.30781 17.2969 2.97187 16.2891 1.93125C15.7219 1.34062 15.1734 0.918749 14.5687 0.609375C14.0719 0.360937 13.3781 0.126562 12.8906 0.046875C12.6 0.00468636 11.4516 -0.00937653 11.2031 0.0328121ZM13.05 1.5C14.5687 1.90781 15.8719 3.16875 16.5656 4.88906C16.8891 5.69531 17.1094 6.84375 17.1094 7.72031C17.1094 9.13594 16.6547 10.6547 15.9 11.7844C15.6187 12.2062 14.9859 12.8672 14.5828 13.1672C13.6828 13.8328 12.5578 14.1516 11.5453 14.025C10.4812 13.8891 9.60469 13.4391 8.775 12.6047C7.04062 10.8516 6.43125 7.90312 7.27031 5.33437C7.92656 3.31875 9.41719 1.82812 11.1562 1.44844C11.6859 1.33125 12.5203 1.35469 13.05 1.5ZM20.7656 18.6094V21.7969H12H3.23437V18.6094V15.4219H12H20.7656V18.6094Z" fill="#112323"/>
<path d="M11.4607 2.62969C11.3154 2.70938 7.96854 6.05625 7.89354 6.19688C7.80447 6.37031 7.80916 6.73125 7.9076 6.89531C8.00135 7.05 8.31072 7.21875 8.49822 7.21875C8.56854 7.21875 8.6951 7.19063 8.77947 7.15313C8.86385 7.11563 9.69353 6.31875 10.6732 5.33906C12.5154 3.48281 12.5154 3.48281 12.4498 3.11719C12.4123 2.92969 12.2717 2.74219 12.0935 2.64844C11.9342 2.56875 11.5967 2.55938 11.4607 2.62969Z" fill="#112323"/>
<path d="M12.2575 5.22185C12.1825 5.25935 11.7419 5.66247 11.2872 6.12185C10.3966 7.02653 10.3544 7.09216 10.4294 7.48591C10.4716 7.7156 10.7153 7.94528 10.9544 7.98278C11.3153 8.04372 11.4044 7.9781 12.3419 7.0406C13.2606 6.11716 13.2513 6.12653 13.2231 5.74216C13.1856 5.31091 12.6747 5.03435 12.2575 5.22185Z" fill="#112323"/>
<path d="M10.7061 18.0422C10.4108 18.2203 10.3171 18.6937 10.5139 18.9891C10.7108 19.2891 10.8186 19.3125 11.9999 19.3125C13.1811 19.3125 13.2889 19.2891 13.4858 18.9891C13.6874 18.6891 13.5889 18.2344 13.2889 18.0469C13.1483 17.9578 13.0593 17.9531 11.9952 17.9531C10.9593 17.9531 10.8374 17.9625 10.7061 18.0422Z" fill="#112323"/>
</svg>
