<svg width="24" height="24" viewBox="0 0 24 24" fill="none" xmlns="http://www.w3.org/2000/svg">
<g clip-path="url(#clip0_274_52)">
<path d="M10.7109 0.0890656C9.87188 0.243753 9.20156 0.459379 8.57812 0.773441C6.40781 1.86563 4.94063 3.76406 4.40156 6.16406C4.29844 6.61875 4.29375 6.72656 4.27969 9.66563L4.26094 12.7031H2.13281H0V13.4063V14.1094H0.726562H1.45312V19.0547V24H12H22.5469V19.0547V14.1094H23.2734H24V13.4063V12.7031H21.8672H19.7391L19.7203 9.66563C19.7063 6.72656 19.7016 6.61875 19.5984 6.16406C18.9047 3.075 16.6313 0.801567 13.5703 0.135941C12.8906 -0.0093708 11.3766 -0.0328083 10.7109 0.0890656ZM11.1703 1.90782C11.0438 2.71875 10.8328 3.36563 10.4484 4.14844C9.54844 5.97188 7.87969 7.40625 5.93438 8.03438C5.80781 8.07656 5.69531 8.10938 5.68594 8.10938C5.65313 8.10938 5.72813 7.14375 5.79375 6.70313C5.97656 5.52657 6.57188 4.33125 7.42969 3.43125C8.325 2.48907 9.46875 1.8375 10.6922 1.57032C10.8563 1.5375 11.0484 1.50469 11.1141 1.50469L11.2359 1.5L11.1703 1.90782ZM13.2891 1.57032C15.15 1.96407 16.7812 3.23438 17.6438 4.95938C17.8875 5.44688 18.1266 6.18282 18.2063 6.70313C18.2719 7.14375 18.3469 8.10938 18.3141 8.10938C18.3047 8.10938 18.1922 8.07656 18.0656 8.03438C16.1203 7.40625 14.4516 5.97188 13.5516 4.14844C13.1672 3.36563 12.9563 2.71875 12.8297 1.90782C12.75 1.42969 12.7266 1.45313 13.2891 1.57032ZM12.2719 4.85157C12.9609 6.21094 13.9313 7.32656 15.2016 8.22188L15.5156 8.44688V10.575V12.7031H12H8.48438V10.575V8.44688L8.80313 8.22188C10.0828 7.31719 11.0344 6.22032 11.7281 4.85157C11.8641 4.57969 11.9859 4.35938 12 4.35938C12.0141 4.35938 12.1359 4.57969 12.2719 4.85157ZM7.07813 10.9453V12.7031H6.375H5.67188V11.1656V9.62344L6.04219 9.52032C6.24375 9.46875 6.54844 9.37031 6.70781 9.30469C6.87188 9.24375 7.02188 9.19219 7.04531 9.1875C7.06406 9.1875 7.07813 9.97969 7.07813 10.9453ZM17.3297 9.32344C17.5312 9.39375 17.8359 9.49219 18.0141 9.53906L18.3281 9.62344V11.1609V12.7031H17.625H16.9219V10.9453C16.9219 9.97969 16.9313 9.1875 16.9406 9.1875C16.9547 9.1875 17.1281 9.24844 17.3297 9.32344ZM4.26562 16.9453V19.7813H3.5625H2.85938V16.9453V14.1094H3.5625H4.26562V16.9453ZM7.07813 16.9453V19.7813H6.375H5.67188V16.9453V14.1094H6.375H7.07813V16.9453ZM9.89062 16.9453V19.7813H9.1875H8.48438V16.9453V14.1094H9.1875H9.89062V16.9453ZM12.7031 16.9453V19.7813H12H11.2969V16.9453V14.1094H12H12.7031V16.9453ZM15.5156 16.9453V19.7813H14.8125H14.1094V16.9453V14.1094H14.8125H15.5156V16.9453ZM18.3281 16.9453V19.7813H17.625H16.9219V16.9453V14.1094H17.625H18.3281V16.9453ZM21.1406 16.9453V19.7813H20.4375H19.7344V16.9453V14.1094H20.4375H21.1406V16.9453ZM21.1406 21.8906V22.5938H12H2.85938V21.8906V21.1875H12H21.1406V21.8906Z" fill="#112323"/>
</g>
<defs>
<clipPath id="clip0_274_52">
<rect width="24" height="24" fill="white"/>
</clipPath>
</defs>
</svg>
