<svg width="24" height="24" viewBox="0 0 24 24" fill="none" xmlns="http://www.w3.org/2000/svg">
<g clip-path="url(#clip0_262_434)">
<path d="M7.10715 0.0703869C6.43215 0.257887 5.80872 0.764137 5.50872 1.37351C5.33997 1.7157 5.20403 2.22664 5.20403 2.53132C5.20403 2.91101 5.51809 3.23445 5.89309 3.23445C6.30559 3.23445 6.53997 3.00007 6.59153 2.55007C6.65247 2.02039 6.84934 1.7157 7.28059 1.50007C7.59934 1.3407 7.84309 1.32195 8.16184 1.42976C8.45247 1.5282 8.7009 1.74382 8.8509 2.03445L8.97747 2.27351L8.99153 9.03289L9.0009 15.7923L8.56965 15.9329C7.21497 16.3641 6.12747 16.2938 4.70247 15.6844C3.63372 15.2298 2.99153 15.0891 1.92278 15.0891C1.2009 15.0891 0.582154 15.1735 0.333717 15.3001C0.0946541 15.4266 -0.00847095 15.6329 0.0149666 15.9516C0.0290291 16.1673 0.057154 16.2469 0.164967 16.3594C0.380592 16.5844 0.568092 16.6173 1.07903 16.5282C1.62747 16.4344 2.2134 16.4344 2.74778 16.5235C3.25403 16.6126 3.60559 16.7251 4.30403 17.0251C5.31184 17.4563 6.10403 17.6016 7.21028 17.5641C8.21809 17.5266 8.79465 17.3907 9.83528 16.936C10.1025 16.8235 10.5243 16.6735 10.7728 16.6079C11.1759 16.4954 11.3165 16.4813 12.0009 16.4813C12.6853 16.4813 12.8259 16.4954 13.229 16.6079C13.4775 16.6735 13.8993 16.8235 14.1665 16.936C15.1415 17.3626 15.765 17.5126 16.7118 17.5594C17.8134 17.6157 18.6853 17.4516 19.7775 16.9923C20.729 16.5891 21.1603 16.486 21.9853 16.4813C22.379 16.4766 22.815 16.5048 23.0212 16.5423C23.4431 16.6173 23.6306 16.5751 23.8368 16.3594C23.9447 16.2469 23.9728 16.1673 23.9868 15.9516C24.0103 15.6329 23.9072 15.4266 23.6681 15.3001C23.429 15.1782 22.7681 15.0938 22.0509 15.0938C21.0197 15.0938 20.3165 15.2438 19.304 15.6798L18.8212 15.886L18.7978 8.98601L18.7743 2.08601L18.6712 1.77664C18.4134 1.02195 17.8087 0.393824 17.0775 0.131325C16.7447 0.00944901 16.0228 -0.0327377 15.6431 0.0469494C14.9306 0.192263 14.2228 0.750074 13.9087 1.40632C13.7118 1.82351 13.6228 2.2407 13.6509 2.60164C13.6697 2.83132 13.6978 2.89226 13.8478 3.03757C14.0072 3.20164 14.0353 3.21101 14.3212 3.21101C14.6072 3.21101 14.6353 3.20164 14.79 3.04226C14.9353 2.90164 14.9634 2.83132 15.0056 2.55007C15.0618 2.13757 15.1931 1.87039 15.4322 1.66414C15.8025 1.35007 16.3087 1.27976 16.7259 1.49539C16.965 1.61726 17.265 1.95945 17.3353 2.19382C17.3728 2.32039 17.3915 2.89226 17.3915 4.0032V5.62507H13.8806H10.365L10.3509 3.80632C10.3368 1.99695 10.3368 1.99226 10.215 1.68757C9.90559 0.876637 9.25403 0.276636 8.46184 0.0703869C8.12434 -0.0139885 7.4259 -0.0139885 7.10715 0.0703869ZM17.3915 9.00007V11.0157H13.8759H10.3603V9.00007V6.98445H13.8759H17.3915V9.00007ZM17.3915 14.2969V16.1719H16.9181C16.304 16.1719 15.6525 16.036 15.0618 15.7923C13.7728 15.2485 13.0509 15.0844 11.9775 15.0891C11.4009 15.0891 10.6743 15.1735 10.4353 15.2626C10.365 15.2907 10.3603 15.1641 10.3603 13.8563V12.4219H13.8759H17.3915V14.2969Z" fill="#112323"/>
<path d="M1.17656 18.3281C0.510938 18.4219 0.360938 18.4734 0.178125 18.6562C0.0140625 18.8156 0 18.8578 0 19.0828C0 19.6781 0.360938 19.8844 1.12031 19.7391C1.48594 19.6641 2.41406 19.6781 2.84531 19.7578C3.27656 19.8375 3.70781 19.9828 4.24219 20.2172C5.34375 20.7 6.40313 20.8828 7.5375 20.775C8.36719 20.7 8.90156 20.5547 9.82031 20.1562C10.7156 19.7672 11.5641 19.6172 12.4406 19.6922C13.0172 19.7391 13.5281 19.8797 14.1938 20.1609C15.2719 20.6203 15.9891 20.775 17.0391 20.775C18.0844 20.775 18.8109 20.6203 19.8891 20.1609C20.8219 19.7625 21.6047 19.6219 22.4391 19.6969C22.6406 19.7109 22.9641 19.7437 23.1562 19.7625C23.4422 19.7859 23.5406 19.7766 23.6625 19.7156C23.8781 19.6031 24 19.3828 24 19.1109C24 18.5484 23.6297 18.3656 22.3594 18.2953C21.4266 18.2484 20.475 18.4125 19.5938 18.7781C18.2953 19.3172 17.7656 19.4344 16.8047 19.3922C16.0641 19.3594 15.6281 19.2562 14.8031 18.9094C13.6922 18.4406 13.0641 18.3047 12 18.3047C10.9266 18.3047 10.3172 18.4359 9.20156 18.9141C8.18438 19.3406 7.44375 19.4766 6.53906 19.4016C5.93438 19.35 5.44219 19.2187 4.73438 18.9141C4.05938 18.6281 3.675 18.5016 3.13125 18.3984C2.66719 18.3094 1.59844 18.2719 1.17656 18.3281Z" fill="#112323"/>
<path d="M0.867719 21.586C0.661469 21.6235 0.422406 21.6891 0.338031 21.7266C-0.126031 21.9422 -0.111969 22.7203 0.361469 22.9453C0.539594 23.0297 0.628656 23.0297 1.33647 22.9219C2.18959 22.7906 3.14584 22.9547 4.20053 23.4094C5.29741 23.8781 6.06147 24.0235 7.23334 23.986C8.16616 23.9578 8.73803 23.8266 9.75991 23.3953C10.763 22.9781 11.1052 22.9031 12.024 22.9031C12.9146 22.9078 13.3224 22.9969 14.2505 23.3906C15.4271 23.8875 16.1255 24.0235 17.2927 23.986C18.2443 23.9578 18.8443 23.8172 19.7912 23.4141C20.9443 22.9172 21.7974 22.786 22.8755 22.9453L23.4521 23.0344L23.6443 22.9266C23.8927 22.7953 24.0005 22.6172 24.0005 22.3266C24.0005 21.7453 23.649 21.5766 22.3318 21.5297C21.1787 21.4875 20.4193 21.6328 19.3646 22.0828C18.6427 22.3922 18.1552 22.5328 17.5365 22.5985C16.6365 22.6969 15.7552 22.5422 14.7474 22.1016C13.8193 21.6985 12.9662 21.5156 12.0005 21.5156C11.0021 21.5156 10.299 21.6703 9.20209 22.1297C8.23178 22.5375 7.87553 22.6125 6.96147 22.6125C6.05678 22.6172 5.67709 22.5328 4.78178 22.1531C3.62397 21.6563 3.21147 21.5625 2.08647 21.5391C1.47241 21.525 1.13959 21.5391 0.867719 21.586Z" fill="#112323"/>
</g>
<defs>
<clipPath id="clip0_262_434">
<rect width="24" height="24" fill="white"/>
</clipPath>
</defs>
</svg>
