<svg width="24" height="24" viewBox="0 0 24 24" fill="none" xmlns="http://www.w3.org/2000/svg">
<g clip-path="url(#clip0_274_9)">
<path d="M1.32656 0.0656242C0.84375 0.220312 0.403125 0.609375 0.159375 1.10156L0.0234375 1.38281V11.5078V21.6328L0.173438 21.9469C0.365625 22.3594 0.703125 22.6969 1.11563 22.8891C1.41563 23.0297 1.4625 23.0391 2.1 23.0531L2.76562 23.0719V23.3156C2.76562 23.7469 3.01875 24 3.45 24C3.8625 24 4.125 23.7188 4.125 23.2781V23.0625H12H19.875V23.2734C19.875 23.7141 20.1469 24 20.5641 24C20.9859 24 21.2344 23.7422 21.2344 23.3062V23.0719L21.9047 23.0531C22.5375 23.0391 22.5844 23.0297 22.8844 22.8891C23.2969 22.6969 23.6344 22.3594 23.8266 21.9469L23.9766 21.6328V11.5078V1.38281L23.8266 1.07344C23.6391 0.698437 23.2641 0.328125 22.8891 0.15L22.6172 0.0234375L12.0703 0.014061C3.44063 0.00937462 1.48594 0.0187492 1.32656 0.0656242ZM22.3453 1.45312C22.6641 1.64531 22.6406 0.801561 22.6406 11.5453V21.2672L22.5328 21.4266C22.4672 21.525 22.3594 21.6094 22.2469 21.6469C22.1063 21.6937 19.9781 21.7031 11.9109 21.6937C2.20312 21.6797 1.75313 21.675 1.63125 21.5953C1.36406 21.4125 1.35938 21.3797 1.35938 19.2234V17.25H1.91719H2.47969L2.49375 18.6703C2.50781 20.2406 2.50781 20.2453 2.82656 20.4375C2.97188 20.5312 3.12188 20.5312 12.0563 20.5219L21.1313 20.5078L21.2578 20.3906C21.5297 20.1422 21.5156 20.6906 21.5156 11.4984C21.5156 3.38437 21.5109 3.01406 21.4313 2.85938C21.375 2.75625 21.2672 2.65312 21.1406 2.5875L20.9344 2.48438H12.0047C3.08438 2.48438 3.075 2.48438 2.87813 2.58281C2.73281 2.65312 2.65313 2.73281 2.58281 2.87812C2.48906 3.06562 2.48438 3.15937 2.48438 4.44375V5.8125H1.92188H1.35938V3.82031C1.35938 1.61719 1.35938 1.63125 1.65469 1.45312C1.8 1.35938 1.96875 1.35938 12 1.35938C22.0312 1.35938 22.2 1.35938 22.3453 1.45312ZM20.1094 11.5312V19.1719H12H3.89063V18.2109V17.25H4.38281C4.92188 17.25 5.10938 17.1984 5.29219 16.9969C5.44219 16.8375 5.48438 16.4391 5.37188 16.2234C5.22656 15.9516 5.0625 15.8906 4.44375 15.8906H3.89063V11.5312V7.17188H4.40625C4.96406 7.17188 5.09063 7.13437 5.29219 6.91875C5.44219 6.75937 5.48438 6.36094 5.37188 6.14531C5.22656 5.87344 5.0625 5.8125 4.44375 5.8125H3.89063V4.85156V3.89062H12H20.1094V11.5312ZM2.48438 11.5312V15.8906H1.92188H1.35938V11.5312V7.17188H1.92188H2.48438V11.5312Z" fill="#112323"/>
<path d="M11.438 7.92656C11.1052 7.9875 10.5005 8.31562 10.2473 8.56406C9.71297 9.08906 9.45984 9.67031 9.45515 10.4062C9.45047 11.0859 9.66609 11.6859 10.0645 12.1031L10.2333 12.2766L10.1302 13.2984C10.0036 14.6109 10.0036 14.7656 10.1348 14.9297C10.327 15.1734 10.4208 15.1875 11.9864 15.1875C12.8302 15.1875 13.5005 15.1687 13.6036 15.1406C13.6973 15.1125 13.8192 15.0375 13.8755 14.9672C13.9973 14.8078 13.9973 14.5125 13.8708 13.2516L13.7677 12.2766L13.913 12.1266C14.1333 11.8969 14.3395 11.5359 14.4427 11.2031C14.5786 10.7812 14.5786 10.0781 14.4427 9.65156C14.0489 8.41406 12.7598 7.67344 11.438 7.92656ZM12.5114 9.375C12.9239 9.58125 13.1677 9.975 13.1723 10.4203C13.1723 10.7906 13.0927 10.9594 12.7083 11.3625L12.3755 11.7141V12.0094C12.3755 12.1734 12.4083 12.5906 12.4458 12.9375C12.4833 13.2844 12.5161 13.6266 12.5161 13.6969V13.8281H12.0005C11.527 13.8281 11.4848 13.8187 11.4848 13.7391C11.4848 13.6922 11.5177 13.35 11.5552 12.9797C11.6911 11.7328 11.6958 11.7516 11.2177 11.2687C10.7255 10.7719 10.688 10.1719 11.1239 9.675C11.4989 9.24844 12.038 9.13125 12.5114 9.375Z" fill="#112323"/>
</g>
<defs>
<clipPath id="clip0_274_9">
<rect width="24" height="24" fill="white"/>
</clipPath>
</defs>
</svg>
