<svg width="24" height="25" viewBox="0 0 24 25" fill="none" xmlns="http://www.w3.org/2000/svg">
<path d="M1.33594 3.14362C0.829688 3.33252 0.403125 3.72971 0.159375 4.2383L0.0234375 4.52893V8.86893V13.2041L0.201563 13.5722C0.4125 14.013 0.726562 14.3327 1.17188 14.5506L1.47656 14.7008H12.0047H22.5281L22.8797 14.5216C23.3156 14.2988 23.6203 13.9791 23.8266 13.5238L23.9766 13.1992V8.86409V4.52893L23.85 4.24799C23.6719 3.85565 23.2594 3.42455 22.8797 3.2308L22.5703 3.0758L12.0703 3.06612C2.02969 3.05643 1.56094 3.05643 1.33594 3.14362ZM22.2656 4.54346C22.3547 4.58705 22.4766 4.69846 22.5328 4.79049L22.6406 4.95518V8.88831V12.8214L22.5328 12.9861C22.4766 13.0781 22.3547 13.1896 22.2656 13.2331C22.1109 13.3155 21.525 13.3203 12 13.3203C2.475 13.3203 1.88906 13.3155 1.73906 13.2331C1.65 13.1896 1.53281 13.0878 1.48125 13.0152C1.38281 12.8796 1.38281 12.836 1.36875 8.91737L1.35938 4.95518L1.46719 4.79049C1.52344 4.69846 1.64531 4.58705 1.73438 4.54346C1.88906 4.46112 2.475 4.45627 12 4.45627C21.525 4.45627 22.1109 4.46112 22.2656 4.54346Z" fill="#112323"/>
<path d="M3.44 10.6271C3.12125 10.7724 2.96187 11.252 3.12594 11.5765C3.17281 11.6685 3.28062 11.7945 3.36969 11.8526L3.52906 11.964H11.9994H20.4697L20.6291 11.8526C20.9572 11.6298 21.0369 11.1745 20.8072 10.8402C20.6009 10.5399 21.1681 10.5593 11.99 10.5593C5.03844 10.5641 3.56187 10.5738 3.44 10.6271Z" fill="#112323"/>
<path d="M7.18555 16.5656C6.83398 16.6479 6.87148 16.585 5.3668 19.6462C4.8418 20.7119 4.77148 20.8911 4.77148 21.0897C4.78086 21.5062 5.01992 21.7484 5.41367 21.7484C5.65273 21.7484 5.83086 21.6709 5.98086 21.4965C6.03711 21.4384 6.51523 20.4987 7.04961 19.4186C7.81836 17.854 8.01523 17.4133 8.01523 17.2631C8.01523 16.7981 7.6168 16.4639 7.18555 16.5656Z" fill="#112323"/>
<path d="M11.6947 16.614C11.315 16.8078 11.3197 16.7642 11.3056 19.0456C11.2963 20.3244 11.3103 21.1381 11.3384 21.2544C11.3666 21.3561 11.4509 21.5014 11.5306 21.5789C11.6478 21.6951 11.7181 21.7242 11.9666 21.7387C12.2338 21.7581 12.2759 21.7484 12.4166 21.6225C12.7025 21.3755 12.7025 21.3706 12.7025 19.1473C12.7025 17.2098 12.6978 17.1226 12.6041 16.924C12.5338 16.7739 12.4541 16.6915 12.3088 16.6189C12.0603 16.493 11.9338 16.493 11.6947 16.614Z" fill="#112323"/>
<path d="M16.4389 16.5898C16.2139 16.6673 16.153 16.7254 16.0592 16.924C15.9045 17.2631 15.9233 17.3212 16.9498 19.4137C17.4842 20.4987 17.9623 21.4384 18.0186 21.4965C18.1686 21.6709 18.3467 21.7484 18.5858 21.7484C18.9983 21.7484 19.2373 21.5014 19.2373 21.0703C19.2327 20.8814 19.1061 20.5908 18.3045 18.9633C17.7936 17.9218 17.3248 16.9918 17.2639 16.895C17.0905 16.6043 16.753 16.4784 16.4389 16.5898Z" fill="#112323"/>
</svg>
