<svg width="24" height="24" viewBox="0 0 24 24" fill="none" xmlns="http://www.w3.org/2000/svg">
<g clip-path="url(#clip0_274_4)">
<path d="M4.49063 0.0796871C4.425 0.121874 4.32188 0.234375 4.27031 0.332811L4.17188 0.506248V11.4656C4.17188 21.8109 4.17656 22.4391 4.25625 22.5891C4.41563 22.9031 4.52344 22.9453 5.25469 22.9594L5.90625 22.9781V23.2312C5.90625 23.7375 6.13594 24 6.58594 24C7.02656 24 7.26563 23.7328 7.26563 23.2312V22.9688H12H16.7344V23.2594C16.7344 23.7516 16.9641 24 17.4188 24C17.8453 24 18.0938 23.7188 18.0938 23.2359V22.9781L18.7453 22.9594C19.4766 22.9453 19.5844 22.9031 19.7438 22.5891C19.8234 22.4391 19.8281 21.8109 19.8281 11.4656V0.506248L19.7297 0.328125C19.5281 -0.0281258 20.2313 0 11.9906 0C5.2125 0.00468636 4.60781 0.00937462 4.49063 0.0796871ZM18.4688 4.6875V8.01562H12H5.53125V4.6875V1.35938H12H18.4688V4.6875ZM18.4688 15.4922V21.6094H12H5.53125V15.4922V9.375H12H18.4688V15.4922Z" fill="#112323"/>
<path d="M7.17751 3.36561C6.8447 3.52967 6.82126 3.60936 6.8072 4.58436C6.78845 5.58749 6.82126 5.75155 7.05095 5.92967C7.35095 6.15936 7.73533 6.13123 7.99783 5.85467L8.13376 5.71405L8.14783 4.71561L8.16189 3.71717L8.03533 3.56248C7.80095 3.29061 7.47283 3.21092 7.17751 3.36561Z" fill="#112323"/>
<path d="M7.21875 14.1422C7.18125 14.1562 7.09688 14.2125 7.04063 14.2687C6.81563 14.4703 6.79688 14.564 6.79688 15.4922C6.79688 16.4297 6.81563 16.5093 7.05 16.7297C7.20938 16.8797 7.60781 16.9218 7.82344 16.8093C8.12813 16.65 8.15625 16.5375 8.15625 15.5015C8.15625 14.4703 8.13281 14.3672 7.86094 14.2031C7.71563 14.114 7.38281 14.0812 7.21875 14.1422Z" fill="#112323"/>
</g>
<defs>
<clipPath id="clip0_274_4">
<rect width="24" height="24" fill="white"/>
</clipPath>
</defs>
</svg>
