<svg width="24" height="23" viewBox="0 0 24 23" fill="none" xmlns="http://www.w3.org/2000/svg">
<g clip-path="url(#clip0_267_461)">
<path d="M3.39786 0.0898435C2.89629 0.193164 2.53067 0.314453 2.08536 0.525586C1.47129 0.82207 0.716606 1.38359 0.585356 1.64414C0.365044 2.08887 0.693169 2.60547 1.19942 2.60547C1.40567 2.60547 1.53223 2.53359 2.09004 2.09785C3.48223 1.01973 5.57754 1.04668 6.99786 2.16074C7.45254 2.51562 7.62129 2.60547 7.81817 2.60547C8.20723 2.60547 8.48379 2.33145 8.48379 1.94961C8.48379 1.65762 8.38067 1.50488 7.95879 1.17246C7.33536 0.67832 6.66036 0.35039 5.83536 0.134765C5.28223 -0.0134768 3.99317 -0.0359378 3.39786 0.0898435Z" fill="#112323"/>
<path d="M4.10287 2.40781C3.84037 2.44824 3.45131 2.56953 3.21224 2.68184C2.87006 2.84805 2.45756 3.17598 2.37318 3.34668C2.15287 3.79141 2.47631 4.3125 2.96849 4.3125C3.17474 4.3125 3.26381 4.27207 3.58724 4.04297C3.90131 3.81836 4.16381 3.72852 4.50131 3.72852C4.84818 3.72852 5.18568 3.84531 5.46693 4.06543C5.78568 4.31699 6.06693 4.3709 6.35756 4.24063C6.67162 4.09688 6.80756 3.64316 6.63412 3.32422C6.48881 3.0502 5.83724 2.65039 5.29818 2.49766C5.03568 2.42129 4.35599 2.37188 4.10287 2.40781Z" fill="#112323"/>
<path d="M4.28945 4.49671C4.09258 4.55061 3.89102 4.76175 3.83945 4.96839C3.81602 5.06722 3.79727 7.34925 3.79727 10.1164V15.0848L2.61602 15.1028C1.43008 15.1162 1.43008 15.1162 1.15352 15.242C0.619141 15.4801 0.291016 15.817 0.0988281 16.3291C0.000390625 16.5942 -0.00429688 16.6391 0.00976563 18.7325L0.0238281 20.8662L0.150391 21.1268C0.403516 21.6389 1.00352 22.0971 1.52852 22.1735C1.72539 22.2004 1.73477 22.2094 1.73477 22.3576C1.73477 22.5598 1.88945 22.8293 2.06289 22.9237C2.22695 23.018 2.58789 23.0225 2.7707 22.9326C2.95352 22.8383 3.09414 22.6137 3.09414 22.4026V22.2364H12.0004H20.9066V22.4026C20.9066 22.6137 21.0473 22.8383 21.2301 22.9326C21.4129 23.0225 21.7738 23.018 21.9379 22.9237C22.1113 22.8293 22.266 22.5598 22.266 22.3576C22.266 22.2094 22.2754 22.2004 22.4723 22.1735C22.9973 22.0971 23.5973 21.6389 23.8504 21.1268L23.977 20.8662V18.6426V16.419L23.8457 16.1629C23.6441 15.7676 23.3441 15.4801 22.9316 15.2869L22.5754 15.1162L13.8895 15.1028L5.20352 15.0938V10.0535C5.20352 5.05823 5.20352 5.01331 5.10508 4.82464C5.03477 4.68538 4.95508 4.60901 4.80977 4.54163C4.59883 4.43831 4.50977 4.43382 4.28945 4.49671ZM22.266 16.4549C22.3598 16.4864 22.4723 16.5762 22.5332 16.6616L22.6457 16.8188L22.6316 18.6965L22.6176 20.5742L22.4629 20.718L22.3129 20.8662L12.066 20.8797C0.741016 20.8887 1.6457 20.9157 1.45352 20.6057C1.36445 20.4709 1.35977 20.3676 1.35977 18.6741C1.35977 16.7514 1.36914 16.6705 1.60352 16.5223C1.66445 16.4819 1.7582 16.4414 1.80508 16.428C1.85664 16.419 6.4457 16.4055 12.0004 16.4055C19.7113 16.401 22.1395 16.4145 22.266 16.4549Z" fill="#112323"/>
<path d="M3.00123 18.0137C2.91217 18.0316 2.77154 18.1215 2.68717 18.2068C2.48561 18.418 2.44811 18.6381 2.56061 18.9076C2.68248 19.1906 2.94029 19.3164 3.38561 19.3164C3.95748 19.3164 4.26686 19.0918 4.26686 18.683C4.26686 18.2293 4.03248 18.0182 3.50279 17.9912C3.31998 17.9822 3.09029 17.9912 3.00123 18.0137Z" fill="#112323"/>
<path d="M6.29531 18.0092C5.94844 18.0945 5.76562 18.3236 5.76562 18.6785C5.76562 18.8986 5.925 19.1322 6.14062 19.2355C6.36562 19.3434 6.94687 19.3434 7.16719 19.2355C7.63125 19.0109 7.67344 18.3596 7.2375 18.1035C7.06406 17.9957 6.54844 17.9463 6.29531 18.0092Z" fill="#112323"/>
<path d="M9.52063 18.0092C8.90657 18.162 8.86438 19.011 9.45501 19.2536C9.68469 19.3479 10.2003 19.3344 10.43 19.2266C10.9034 19.0065 10.9363 18.409 10.4956 18.0901C10.3597 17.9958 9.78313 17.9463 9.52063 18.0092Z" fill="#112323"/>
<path d="M12.8215 18.0092C12.4559 18.099 12.2544 18.373 12.2965 18.7234C12.3434 19.1277 12.6247 19.3164 13.1731 19.3164C13.5903 19.3164 13.8012 19.2311 13.9559 19.0064C14.1575 18.7189 14.0544 18.2607 13.7497 18.09C13.5856 18.0002 13.0465 17.9508 12.8215 18.0092Z" fill="#112323"/>
</g>
<defs>
<clipPath id="clip0_267_461">
<rect width="24" height="23" fill="white"/>
</clipPath>
</defs>
</svg>
