<svg width="24" height="24" viewBox="0 0 24 24" fill="none" xmlns="http://www.w3.org/2000/svg">
<path d="M10.8986 0.0281239C8.84076 0.318748 7.31263 0.923437 5.85951 2.01094C3.14545 4.05 1.61264 7.25625 1.74857 10.6172C1.8142 12.1687 2.12357 13.3828 2.80326 14.7656C3.00014 15.1641 3.16889 15.5062 3.17826 15.525C3.18764 15.5484 2.9767 15.5625 2.70951 15.5625C2.31576 15.5625 2.20326 15.5812 2.09076 15.6516C1.84232 15.8156 1.78139 15.9656 1.78139 16.4344C1.78139 17.2172 2.09545 18.1312 2.58764 18.7875L2.80795 19.0781H2.51732C2.19389 19.0781 2.02045 19.1625 1.87045 19.3875C1.80014 19.4953 1.78139 19.6125 1.78139 19.95C1.78139 20.7328 2.09545 21.6469 2.58764 22.2984L2.80795 22.5938H2.51732C2.03451 22.5938 1.78139 22.8375 1.78139 23.2969C1.78139 23.5875 1.87514 23.7656 2.09076 23.9109C2.22201 23.9953 2.50326 24 12.0001 24C21.497 24 21.7783 23.9953 21.9095 23.9109C22.1251 23.7656 22.2189 23.5875 22.2189 23.2969C22.2189 23.0062 22.1251 22.8281 21.9095 22.6828C21.797 22.6078 21.6845 22.5938 21.2486 22.5938H20.7236L20.9439 22.2984C21.4361 21.6469 21.7501 20.7328 21.7501 19.95C21.7501 19.6125 21.7314 19.4953 21.6611 19.3875C21.5111 19.1625 21.3376 19.0781 21.0142 19.0781H20.7236L20.9439 18.7828C21.4361 18.1312 21.7501 17.2172 21.7501 16.4344C21.7501 16.0969 21.7314 15.9797 21.6611 15.8719C21.5204 15.6562 21.3329 15.5625 21.0564 15.5625C20.9158 15.5625 20.8126 15.5484 20.822 15.525C20.8314 15.5062 21.0001 15.1641 21.197 14.7656C21.8767 13.3875 22.1861 12.1734 22.247 10.6172C22.3689 7.75781 21.2908 5.01562 19.2423 2.97656C17.9204 1.65937 16.3314 0.745312 14.5829 0.309374C13.6595 0.0749989 13.3408 0.0374985 12.1642 0.0234375C11.5454 0.014061 10.9783 0.0187492 10.8986 0.0281239ZM12.7126 1.47187C12.9658 1.48594 13.4298 1.55156 13.7486 1.6125C16.3829 2.14687 18.647 3.88594 19.8751 6.31875C20.9251 8.4 21.0939 10.8937 20.3345 13.0734C20.1329 13.6641 19.6829 14.5687 19.3361 15.0984L19.0314 15.5625H18.1408H17.2454L17.5361 15.2344C19.1626 13.4203 19.8048 10.9266 19.2564 8.55469C18.5908 5.65781 16.2095 3.40781 13.2892 2.90625C12.5439 2.77969 11.4611 2.77969 10.7251 2.90156C7.79076 3.40781 5.40951 5.65312 4.74388 8.55469C4.19545 10.9266 4.83763 13.4203 6.4642 15.2344L6.75482 15.5625H5.8642H4.97357L4.66888 15.1031C3.54857 13.4203 3.03764 11.3625 3.23451 9.37031C3.5017 6.75469 4.94545 4.37812 7.1767 2.88281C8.05795 2.29688 9.28607 1.79531 10.3642 1.58906C10.8704 1.49531 11.8126 1.41094 12.1173 1.43906C12.197 1.44375 12.4642 1.4625 12.7126 1.47187ZM13.0314 4.34531C13.5142 4.425 14.2548 4.66406 14.672 4.875C16.0501 5.57344 17.1798 6.87187 17.672 8.325C17.9111 9.02812 17.972 9.42187 17.972 10.2422C17.972 11.3203 17.7939 12.0609 17.3017 13.0125C16.8423 13.9031 16.1486 14.6719 15.2908 15.2344L14.7986 15.5625H12.0001H9.2017L8.70951 15.2344C7.83763 14.6625 7.15326 13.8984 6.68451 12.9844C6.19232 12.0234 6.02826 11.3297 6.02826 10.2422C6.02826 9.42187 6.0892 9.02812 6.32826 8.325C6.81576 6.87187 7.95013 5.56875 9.32357 4.875C10.4345 4.31719 11.7517 4.12969 13.0314 4.34531ZM20.1845 17.0953C20.0533 17.6437 19.3736 18.45 18.797 18.7359C18.1173 19.0734 18.572 19.0547 11.7658 19.0547C4.95951 19.0547 5.4142 19.0734 4.73451 18.7359C4.15795 18.45 3.47826 17.6437 3.34701 17.0953L3.31889 16.9687H11.7658H20.2126L20.1845 17.0953ZM20.1845 20.6109C20.0533 21.1594 19.3736 21.9656 18.797 22.2516C18.1173 22.5891 18.572 22.5703 11.7658 22.5703C4.95951 22.5703 5.4142 22.5891 4.73451 22.2516C4.15795 21.9656 3.47826 21.1594 3.34701 20.6109L3.31889 20.4844H11.7658H20.2126L20.1845 20.6109Z" fill="#112323"/>
</svg>
