<svg width="22" height="21" viewBox="0 0 22 21" fill="none" xmlns="http://www.w3.org/2000/svg">
<g clip-path="url(#clip0_274_61)">
<path d="M0.889453 0.159908C0.708984 0.31987 0.708984 0.323971 0.708984 0.615181C0.708984 0.906393 0.708984 0.910494 0.889453 1.07046C1.03125 1.1935 1.1043 1.23042 1.22461 1.23042H1.375V10.2416C1.375 19.1666 1.375 19.2568 1.46094 19.3921C1.61563 19.6341 1.76602 19.6875 2.29023 19.6875H2.75V20.1263C2.75 20.6267 2.80586 20.7703 3.05938 20.9179C3.24844 21.0287 3.58359 21.0287 3.77266 20.9179C3.99609 20.7867 4.08203 20.5611 4.08203 20.0853V19.6875H11H17.918V20.0853C17.918 20.5611 18.0039 20.7867 18.2273 20.9179C18.4164 21.0287 18.7516 21.0287 18.9406 20.9179C19.1941 20.7703 19.25 20.6267 19.25 20.1263V19.6875H19.7141C20.234 19.6875 20.3844 19.6341 20.5391 19.3921C20.625 19.2568 20.625 19.1666 20.625 10.2416V1.23042H20.7754C20.8957 1.23042 20.9688 1.1935 21.1105 1.07046C21.291 0.910494 21.291 0.906393 21.291 0.615181C21.291 0.323971 21.291 0.31987 21.1105 0.159908L20.9301 -5.34058e-05H11H1.06992L0.889453 0.159908ZM10.3555 7.85444V14.4785H6.53125H2.70703V7.85444V1.23042H6.53125H10.3555V7.85444ZM19.293 7.85444V14.4785H15.4688H11.6445V7.85444V1.23042H15.4688H19.293V7.85444ZM19.293 17.083V18.416H11H2.70703V17.083V15.75H11H19.293V17.083Z" fill="#112323"/>
<path d="M6.6337 7.25974C6.45324 7.31306 6.24269 7.54685 6.20402 7.73553C6.13956 8.05545 6.37589 8.41638 6.68527 8.47381C7.02042 8.53533 7.30831 8.41638 7.44152 8.15799C7.71222 7.6576 7.20519 7.09568 6.6337 7.25974Z" fill="#112323"/>
<path d="M14.9363 7.25977C14.6484 7.3459 14.4594 7.62481 14.4895 7.92422C14.5152 8.16211 14.6227 8.31797 14.8289 8.41641C15.3016 8.6502 15.8516 8.29746 15.8 7.79707C15.757 7.40332 15.3359 7.14082 14.9363 7.25977Z" fill="#112323"/>
</g>
<defs>
<clipPath id="clip0_274_61">
<rect width="22" height="21" fill="white"/>
</clipPath>
</defs>
</svg>
