<svg width="24" height="24" viewBox="0 0 24 24" fill="none" xmlns="http://www.w3.org/2000/svg">
<g clip-path="url(#clip0_274_56)">
<path d="M1.33672 0.0890427C0.830469 0.271856 0.399219 0.660919 0.155469 1.16248L0.0242188 1.42967L0.0101563 9.37498L-0.00390625 17.3203L0.0992188 17.6015C0.314844 18.2015 0.760156 18.6469 1.34141 18.8437C1.59922 18.9328 1.75391 18.9375 5.06797 18.9375H8.52734L8.64453 19.1906C8.88359 19.6969 8.90234 20.0765 8.71016 20.4609C8.56953 20.7375 8.13359 21.164 7.71172 21.45C7.24766 21.7547 6.26797 22.2328 5.50859 22.5187C4.80078 22.7859 4.64141 22.9312 4.64141 23.3062C4.64141 23.4703 4.67422 23.6062 4.73516 23.7047C4.92734 24.0234 4.38359 24 12.0102 24C18.7742 24 18.9195 24 19.0648 23.9062C19.2664 23.7844 19.3602 23.5875 19.3602 23.2922C19.3602 22.9406 19.168 22.7625 18.5164 22.5234C17.832 22.275 16.7492 21.75 16.2945 21.45C15.868 21.164 15.4367 20.7375 15.2914 20.4609C15.0992 20.0765 15.118 19.6969 15.357 19.1906L15.4742 18.9375L19.0227 18.9281L22.5711 18.914L22.8383 18.7828C23.3445 18.5344 23.7617 18.0656 23.9258 17.5547C23.9961 17.339 24.0008 16.6031 23.9914 9.37498L23.9773 1.42967L23.8508 1.15779C23.6727 0.778107 23.2602 0.360918 22.8805 0.173418L22.5711 0.0234184L12.0711 0.0140438C2.03047 0.00466919 1.56172 0.00466919 1.33672 0.0890427ZM22.3039 1.45311C22.3883 1.50467 22.4961 1.61248 22.5477 1.69686C22.6414 1.85154 22.6414 1.94998 22.6414 9.46873C22.6414 16.9875 22.6414 17.0859 22.5477 17.2406C22.4961 17.325 22.3883 17.4328 22.3039 17.4844C22.1492 17.5781 22.0461 17.5781 12.0008 17.5781C1.95547 17.5781 1.85234 17.5781 1.69766 17.4844C1.61328 17.4328 1.50547 17.325 1.45391 17.2406C1.36016 17.0859 1.36016 16.9875 1.36016 9.46873C1.36016 1.94998 1.36016 1.85154 1.45391 1.69686C1.50547 1.61248 1.61328 1.50467 1.69766 1.45311C1.85234 1.35936 1.95547 1.35936 12.0008 1.35936C22.0461 1.35936 22.1492 1.35936 22.3039 1.45311ZM13.8992 19.1109C13.7633 19.6172 13.7445 20.1422 13.8523 20.55C14.0211 21.1922 14.6164 21.989 15.2633 22.4344C15.4039 22.5281 15.5164 22.6172 15.5164 22.6265C15.5164 22.6312 13.932 22.6406 11.9961 22.6406H8.47109L8.78516 22.4015C9.70391 21.7078 10.1539 20.9765 10.2055 20.1C10.2289 19.739 10.1773 19.2703 10.093 19.05C10.0742 18.9937 10.3648 18.9844 12.0008 18.9844H13.932L13.8992 19.1109Z" fill="#001123"/>
<path d="M2.87344 2.58281C2.73281 2.65312 2.64844 2.7375 2.58281 2.87812C2.48438 3.075 2.48438 3.11719 2.48438 9.46875C2.48438 15.7406 2.48438 15.8625 2.57812 16.0547C2.62969 16.1578 2.7375 16.2844 2.82188 16.3359C2.97656 16.4297 3.10313 16.4297 11.9484 16.4437L20.9203 16.4531L21.1219 16.3594C21.2672 16.2844 21.3469 16.2047 21.4172 16.0594C21.5156 15.8625 21.5156 15.8297 21.5156 9.46406C21.5156 3.23437 21.5109 3.06562 21.4219 2.86875C21.3516 2.71406 21.2859 2.64844 21.1313 2.57812C20.9344 2.48906 20.7422 2.48437 12 2.48437H3.07031L2.87344 2.58281ZM20.1094 9.46875V15.0469H12H3.89062V9.46875V3.89062H12H20.1094V9.46875Z" fill="#001123"/>
</g>
<defs>
<clipPath id="clip0_274_56">
<rect width="24" height="24" fill="white"/>
</clipPath>
</defs>
</svg>
