<svg width="24" height="24" viewBox="0 0 24 24" fill="none" xmlns="http://www.w3.org/2000/svg">
<path d="M0.389063 2.76562C0.271875 2.81719 0.15 2.92031 0.09375 3.00937C0 3.16406 0 3.22031 0 12C0 20.7797 0 20.8359 0.09375 20.9906C0.196875 21.1547 0.501563 21.3234 0.703125 21.3281C0.9 21.3281 1.23281 21.1312 1.33594 20.9531C1.425 20.7937 1.42969 20.7 1.44375 18.4547L1.45781 16.125H3.98906H6.51563V18.4781C6.51563 20.7609 6.52031 20.8406 6.60938 20.9906C6.7125 21.1547 7.01719 21.3234 7.21875 21.3281C7.41563 21.3281 7.74844 21.1312 7.85156 20.9531C7.94531 20.7937 7.94531 20.7047 7.95938 17.3437C7.96406 15.4312 7.95469 13.7391 7.92656 13.5375C7.81875 12.6375 7.17656 11.925 6.33281 11.7656C6.18281 11.7375 5.13281 11.7188 3.76875 11.7188H1.45781L1.44375 7.4625C1.42969 3.29062 1.42969 3.20625 1.33594 3.04688C1.23281 2.86875 0.9 2.67188 0.703125 2.67188C0.6375 2.67188 0.496875 2.71406 0.389063 2.76562ZM6.16875 13.2469C6.42188 13.3687 6.4875 13.5375 6.50625 14.1422L6.525 14.6719H3.98906H1.45312V13.9219V13.1719H3.73125C5.74219 13.1719 6.02813 13.1812 6.16875 13.2469Z" fill="#112323"/>
<path d="M22.9693 2.775C22.8474 2.84062 22.7209 2.94844 22.6646 3.04688C22.5709 3.20625 22.5709 3.29062 22.5568 7.4625L22.5428 11.7188H20.274C18.774 11.7188 17.9209 11.7375 17.7568 11.7703C17.1521 11.9016 16.6271 12.3141 16.3506 12.8812L16.1959 13.1953L16.1818 16.9922C16.1678 21.3 16.1443 21.0047 16.5521 21.225C16.9271 21.4266 17.3584 21.2766 17.5365 20.8875C17.6162 20.7094 17.6256 20.5359 17.6256 18.4078V16.125H20.1099H22.5943V18.4781C22.5943 20.7609 22.599 20.8406 22.6881 20.9906C22.7912 21.1547 23.1006 21.3281 23.2974 21.3281C23.4943 21.3281 23.8037 21.1547 23.9068 20.9906C24.0006 20.8359 24.0006 20.7797 24.0006 12C24.0006 3.22031 24.0006 3.16406 23.9068 3.00937C23.8037 2.84531 23.499 2.67656 23.2974 2.67188C23.2318 2.67188 23.0818 2.71875 22.9693 2.775ZM22.5474 13.9219V14.6719H20.0865H17.6256V14.1141C17.6256 13.575 17.6303 13.5469 17.7521 13.4062C17.8178 13.3219 17.9209 13.2375 17.9724 13.2188C18.0287 13.1953 19.0787 13.1766 20.3115 13.1766L22.5474 13.1719V13.9219Z" fill="#112323"/>
<path d="M3.51562 6.51094C3.42656 6.55781 3.30469 6.67969 3.24844 6.77812C3.14531 6.95625 3.14062 6.99375 3.14062 8.46094C3.14062 10.1344 3.14531 10.1766 3.46875 10.3922L3.62344 10.5H6.34688L9.07031 10.5047L10.1813 11.7328L11.2922 12.9609L11.2969 16.3922V19.8281H10.7156C10.1953 19.8281 10.125 19.8375 9.97969 19.9359C9.75469 20.0859 9.64688 20.3156 9.67031 20.5922C9.69375 20.85 9.80625 21.0281 10.0359 21.1641C10.1859 21.2531 10.2797 21.2578 12 21.2578C13.7203 21.2578 13.8141 21.2531 13.9641 21.1641C14.1938 21.0281 14.3063 20.85 14.3297 20.5922C14.3531 20.3156 14.2453 20.0859 14.0203 19.9359C13.875 19.8375 13.8047 19.8281 13.3078 19.8281H12.75V16.4156V13.0031L13.8656 11.7516L14.9766 10.5047L17.6766 10.5H20.3766L20.5312 10.3922C20.8547 10.1766 20.8594 10.1344 20.8594 8.46094C20.8594 6.99375 20.8547 6.95625 20.7516 6.77812C20.6953 6.67969 20.5734 6.55781 20.4844 6.51094C20.3297 6.42656 20.0156 6.42187 12 6.42187C3.98438 6.42187 3.67031 6.42656 3.51562 6.51094ZM7.20938 8.46094L7.73906 9.04687H6.16875H4.59375V8.46094V7.875H5.63906L6.67969 7.87969L7.20938 8.46094ZM15.2297 8.01562C15.0328 8.26406 12.0703 11.5734 12.0422 11.5734C12.0234 11.5781 9.98906 9.35625 8.84063 8.07187L8.6625 7.875H12H15.3422L15.2297 8.01562ZM19.4062 8.46094V9.04687H17.8547H16.3078L16.3922 8.93437C16.4391 8.87344 16.6688 8.61094 16.8984 8.35312L17.3203 7.87969L18.3656 7.875H19.4062V8.46094Z" fill="#112323"/>
</svg>
