<svg width="20" height="20" viewBox="0 0 20 20" fill="none" xmlns="http://www.w3.org/2000/svg">
<g clip-path="url(#clip0_125_386)">
<path d="M12.5 18.75H10.625C10.2936 18.7497 9.97585 18.6178 9.7415 18.3835C9.50715 18.1492 9.37535 17.8314 9.375 17.5V14.375H10.625V17.5H12.5V14.375H13.75V11.875C13.7498 11.7093 13.6839 11.5504 13.5667 11.4333C13.4496 11.3161 13.2907 11.2502 13.125 11.25H7.67456L6.42456 7.5H2.5C2.3343 7.50018 2.17543 7.56609 2.05826 7.68326C1.94109 7.80043 1.87518 7.9593 1.875 8.125V11.875H3.125V17.5H5.625V13.125H6.875V17.5C6.87465 17.8314 6.74285 18.1492 6.5085 18.3835C6.27415 18.6178 5.95641 18.7497 5.625 18.75H3.125C2.79359 18.7497 2.47585 18.6178 2.2415 18.3835C2.00716 18.1492 1.87535 17.8314 1.875 17.5V13.125C1.54359 13.1247 1.22585 12.9928 0.9915 12.7585C0.757155 12.5242 0.625347 12.2064 0.625 11.875V8.125C0.625546 7.62789 0.823265 7.15129 1.17478 6.79978C1.52629 6.44827 2.00289 6.25055 2.5 6.25H6.42456C6.68696 6.24979 6.94277 6.33224 7.15565 6.48565C7.36853 6.63906 7.52768 6.85564 7.6105 7.10463L8.57544 10H13.125C13.6221 10.0005 14.0987 10.1983 14.4502 10.5498C14.8017 10.9013 14.9995 11.3779 15 11.875V14.375C14.9997 14.7064 14.8678 15.0242 14.6335 15.2585C14.3992 15.4928 14.0814 15.6247 13.75 15.625V17.5C13.7497 17.8314 13.6178 18.1492 13.3835 18.3835C13.1492 18.6178 12.8314 18.7497 12.5 18.75Z" fill="#112323"/>
<path d="M17.5 18.75H16.25V11.875H18.125V8.125C18.1248 7.9593 18.0589 7.80043 17.9417 7.68326C17.8246 7.56609 17.6657 7.50018 17.5 7.5H15V6.25H17.5C17.9971 6.25055 18.4737 6.44827 18.8252 6.79978C19.1767 7.15129 19.3745 7.62789 19.375 8.125V11.875C19.3747 12.2064 19.2428 12.5242 19.0085 12.7585C18.7742 12.9928 18.4564 13.1247 18.125 13.125H17.5V18.75Z" fill="#112323"/>
<path d="M4.375 5.625C3.88055 5.625 3.3972 5.47838 2.98608 5.20368C2.57495 4.92897 2.25452 4.53852 2.0653 4.08171C1.87608 3.62489 1.82657 3.12223 1.92304 2.63728C2.0195 2.15232 2.2576 1.70687 2.60723 1.35723C2.95687 1.0076 3.40232 0.769501 3.88728 0.673038C4.37223 0.576575 4.87489 0.626083 5.33171 0.815302C5.78853 1.00452 6.17897 1.32495 6.45368 1.73608C6.72838 2.1472 6.875 2.63055 6.875 3.125C6.87426 3.78781 6.61063 4.42327 6.14195 4.89195C5.67327 5.36063 5.03781 5.62426 4.375 5.625ZM4.375 1.875C4.12777 1.875 3.8861 1.94831 3.68054 2.08566C3.47498 2.22302 3.31476 2.41824 3.22015 2.64665C3.12554 2.87505 3.10079 3.12639 3.14902 3.36886C3.19725 3.61134 3.3163 3.83407 3.49112 4.00888C3.66593 4.1837 3.88866 4.30275 4.13114 4.35098C4.37361 4.39921 4.62495 4.37446 4.85336 4.27985C5.08176 4.18524 5.27699 4.02503 5.41434 3.81946C5.55169 3.6139 5.625 3.37223 5.625 3.125C5.62465 2.79359 5.49285 2.47585 5.2585 2.2415C5.02416 2.00716 4.70642 1.87535 4.375 1.875Z" fill="#112323"/>
<path d="M15.625 5.625C15.1305 5.625 14.6472 5.47838 14.2361 5.20368C13.825 4.92897 13.5045 4.53852 13.3153 4.08171C13.1261 3.62489 13.0766 3.12223 13.173 2.63728C13.2695 2.15232 13.5076 1.70687 13.8572 1.35723C14.2069 1.0076 14.6523 0.769501 15.1373 0.673038C15.6222 0.576575 16.1249 0.626083 16.5817 0.815302C17.0385 1.00452 17.429 1.32495 17.7037 1.73608C17.9784 2.1472 18.125 2.63055 18.125 3.125C18.1243 3.78781 17.8606 4.42327 17.3919 4.89195C16.9233 5.36063 16.2878 5.62426 15.625 5.625ZM15.625 1.875C15.3778 1.875 15.1361 1.94831 14.9305 2.08566C14.725 2.22302 14.5648 2.41824 14.4702 2.64665C14.3755 2.87505 14.3508 3.12639 14.399 3.36886C14.4473 3.61134 14.5663 3.83407 14.7411 4.00888C14.9159 4.1837 15.1387 4.30275 15.3811 4.35098C15.6236 4.39921 15.8749 4.37446 16.1034 4.27985C16.3318 4.18524 16.527 4.02503 16.6643 3.81946C16.8017 3.6139 16.875 3.37223 16.875 3.125C16.8747 2.79359 16.7428 2.47585 16.5085 2.2415C16.2742 2.00716 15.9564 1.87535 15.625 1.875Z" fill="#112323"/>
<path d="M11.5625 9.375C11.1299 9.375 10.7069 9.24671 10.3472 9.00634C9.98746 8.76598 9.70708 8.42433 9.54151 8.02462C9.37595 7.62491 9.33263 7.18507 9.41703 6.76074C9.50144 6.33641 9.70978 5.94663 10.0157 5.64071C10.3216 5.33478 10.7114 5.12644 11.1357 5.04203C11.5601 4.95763 11.9999 5.00095 12.3996 5.16651C12.7993 5.33208 13.141 5.61246 13.3813 5.97219C13.6217 6.33192 13.75 6.75485 13.75 7.1875C13.7493 7.76745 13.5186 8.32346 13.1085 8.73355C12.6985 9.14364 12.1425 9.37432 11.5625 9.375ZM11.5625 6.25C11.3771 6.25 11.1958 6.30498 11.0417 6.408C10.8875 6.51101 10.7673 6.65743 10.6964 6.82874C10.6254 7.00004 10.6068 7.18854 10.643 7.3704C10.6792 7.55226 10.7685 7.7193 10.8996 7.85041C11.0307 7.98153 11.1977 8.07081 11.3796 8.10699C11.5615 8.14316 11.75 8.1246 11.9213 8.05364C12.0926 7.98268 12.239 7.86252 12.342 7.70835C12.445 7.55418 12.5 7.37292 12.5 7.1875C12.4997 6.93895 12.4009 6.70065 12.2251 6.5249C12.0493 6.34914 11.8111 6.25028 11.5625 6.25Z" fill="#112323"/>
</g>
<defs>
<clipPath id="clip0_125_386">
<rect width="20" height="20" fill="white"/>
</clipPath>
</defs>
</svg>
