<svg width="53" height="53" viewBox="0 0 53 53" fill="none" xmlns="http://www.w3.org/2000/svg">
<path d="M22.173 9.79258C21.6658 10.1445 21.5105 10.8277 21.8004 11.4385C22.0592 11.9871 22.4525 12.1113 23.9535 12.1113H25.2578V13.2811V14.4404L23.8396 14.6164C13.5295 15.8793 5.68301 24.1191 4.84453 34.5328L4.72031 36.1063L3.62305 36.1477C2.61895 36.1787 2.48438 36.2098 1.88398 36.541C1.15938 36.924 0.641797 37.4623 0.289844 38.1869C0.0828125 38.5906 0.0517578 38.8287 0.0517578 39.75C0.0517578 40.6713 0.0828125 40.9094 0.289844 41.3131C0.641797 42.0377 1.15938 42.576 1.88398 42.9693L2.53613 43.3213H26.5H50.4639L50.9814 43.0625C51.6439 42.7416 52.3686 42.017 52.6895 41.3545C52.9172 40.9094 52.9482 40.692 52.9482 39.75C52.9482 38.808 52.9172 38.5906 52.6895 38.1455C52.3686 37.483 51.6439 36.7584 50.9814 36.4375C50.5674 36.2408 50.2568 36.1787 49.377 36.1477L48.2797 36.1063L48.1555 34.5328C47.317 24.1398 39.4809 15.8897 29.2225 14.6268L27.7422 14.4404V13.2811V12.1113H29.0465C30.5475 12.1113 30.9408 11.9871 31.1996 11.4385C31.4066 11.0141 31.4066 10.6311 31.21 10.248C30.8787 9.6166 30.9822 9.62695 26.5 9.62695C22.9598 9.62695 22.3697 9.64766 22.173 9.79258ZM27.7836 16.9766C36.4582 17.608 43.6629 23.9535 45.3398 32.4211C45.4951 33.2389 45.7332 35.3195 45.7539 36.0441C45.7539 36.0959 37.0896 36.127 26.4896 36.127H7.23574L7.29785 35.2678C7.59805 31.3652 8.57109 28.4357 10.5482 25.4959C13.8504 20.5893 19.2746 17.401 25.0404 16.9869C25.6408 16.9352 26.2102 16.8938 26.293 16.8938C26.3758 16.8834 27.0486 16.9248 27.7836 16.9766ZM50.2154 39.0047C50.6295 39.4705 50.6295 40.0295 50.2154 40.4953L49.9152 40.8369H26.5H3.08477L2.78457 40.4953C2.27734 39.926 2.46367 38.9943 3.14688 38.7148C3.26074 38.6631 13.84 38.632 26.6346 38.6424L49.9152 38.6631L50.2154 39.0047Z" fill="#9A4629"/>
<path d="M21.2 21.7383C19.0676 22.1006 17.049 23.3014 15.7551 24.9783C15.1236 25.8168 14.3887 27.2764 14.3887 27.7215C14.3887 28.7566 15.4963 29.3363 16.3555 28.7463C16.6039 28.5807 16.7799 28.3219 16.9869 27.8146C17.6184 26.2412 18.9227 25.0922 20.7652 24.4918C21.0551 24.3986 21.8004 24.2537 22.4111 24.1709C23.7361 23.9949 24.0053 23.8189 24.0881 23.0633C24.1502 22.4939 23.9328 22.0178 23.498 21.79C23.1771 21.6244 22.0592 21.5934 21.2 21.7383Z" fill="#9A4629"/>
</svg>
