<svg width="44" height="44" viewBox="0 0 44 44" fill="none" xmlns="http://www.w3.org/2000/svg">
<g clip-path="url(#clip0_94_220)">
<path d="M19.0786 0.128958C14.5067 0.687551 10.3388 2.34615 6.77236 5.0274C5.4833 5.99849 4.08252 7.26177 3.91924 7.60552C3.73877 7.98365 3.74736 8.40474 3.94502 8.7399C4.03955 8.88599 7.98408 12.6758 12.7106 17.1618C19.0528 23.1688 21.3903 25.343 21.6395 25.429C22.1981 25.6352 22.5161 25.5149 23.3153 24.7672C23.702 24.4063 27.638 20.6766 32.0638 16.4829C37.77 11.0774 40.1419 8.77427 40.2106 8.58521C40.4341 7.94927 40.288 7.6399 39.42 6.79771C35.656 3.18833 30.388 0.756302 24.9653 0.128958C23.6075 -0.0257282 20.3677 -0.0257282 19.0786 0.128958ZM24.5356 2.50083C27.595 2.81021 31.0067 3.94458 33.7481 5.5688C34.6505 6.10161 36.2661 7.25318 37.0739 7.94068L37.3231 8.14693L36.3435 9.08365C35.802 9.59068 35.0716 10.2868 34.7106 10.6305C34.3583 10.9743 34.0317 11.2579 34.006 11.2579C33.9716 11.2579 33.7224 11.0774 33.4474 10.854C32.1927 9.82271 30.1216 8.67115 28.42 8.0438C25.0169 6.78052 21.0122 6.57427 17.4888 7.47661C14.9966 8.12115 12.6333 9.2813 10.6224 10.8626C10.3388 11.0774 10.081 11.2493 10.0466 11.2407C9.94346 11.1977 6.78955 8.21568 6.78955 8.15552C6.78955 8.12974 7.15908 7.81177 7.60596 7.45083C12.4185 3.60083 18.3224 1.87349 24.5356 2.50083ZM23.3755 9.37583C26.4349 9.65083 29.2192 10.7079 31.6599 12.5211C31.9692 12.7446 32.2185 12.9508 32.2013 12.9852C32.1927 13.011 31.4364 13.7329 30.5255 14.6008L28.8755 16.1735L28.3341 15.8297C24.6216 13.4063 19.4911 13.4149 15.6927 15.8469L15.1942 16.1649L13.9481 14.979C13.2692 14.3258 12.5044 13.6126 12.2638 13.3891L11.8169 12.9852L12.0317 12.8047C12.6247 12.3149 14.2403 11.3008 15.0395 10.9227C16.7325 10.1149 18.7778 9.54771 20.5825 9.37583C21.7083 9.27271 22.2669 9.27271 23.3755 9.37583ZM23.6505 16.4485C24.4841 16.6118 25.4724 16.9469 26.1942 17.3079C27.2427 17.8493 27.4145 17.5313 24.5958 20.2211C23.2208 21.5274 22.0692 22.6016 22.0349 22.6016C21.9833 22.6016 20.3849 21.0977 17.8669 18.6829L16.956 17.8149L17.6177 17.454C19.0958 16.6719 20.3591 16.3454 21.9747 16.3368C22.5505 16.3282 23.3067 16.3797 23.6505 16.4485Z" fill="#9A4629"/>
<path d="M4.15985 32.4844C3.85907 32.6047 3.5411 33.0602 3.48094 33.4555C3.45516 33.6531 3.43797 35.9219 3.45516 38.5C3.48094 42.7883 3.49813 43.2094 3.63563 43.4586C3.83329 43.8281 4.18563 44 4.72704 44C5.09657 44 5.19969 43.957 5.48329 43.7078L5.80125 43.4156L5.82704 41.4391L5.85282 39.4625L7.76063 39.4281C9.42782 39.4023 9.70282 39.3852 9.90907 39.2477C10.6567 38.7578 10.6739 37.6492 9.94344 37.2109C9.69422 37.0562 9.50516 37.0391 7.76063 37.0391H5.84422V35.9219V34.8047H7.58875C8.54266 34.8047 9.46219 34.7617 9.63407 34.7188C10.5966 34.4523 10.7942 33.0859 9.94344 32.5703C9.68563 32.407 9.49657 32.3984 7.00438 32.407C5.53485 32.407 4.26297 32.4414 4.15985 32.4844Z" fill="#9A4629"/>
<path d="M13.3289 32.5532C13.1656 32.6391 12.9594 32.8454 12.8734 33.0087C12.7274 33.2751 12.7188 33.6188 12.7188 38.1821C12.7188 43.5618 12.7102 43.5016 13.2516 43.8282C13.6383 44.0602 14.2828 44.0602 14.618 43.8196C15.0906 43.4844 15.125 43.3212 15.125 41.293V39.4454H15.9758H16.8266L18.468 41.6368C19.5164 43.0376 20.1953 43.8626 20.3328 43.9141C21.0117 44.1805 21.7766 43.8797 21.9914 43.261C22.1977 42.668 22.0945 42.436 20.8484 40.7688L19.6969 39.2305L20.1094 39.0329C21.4672 38.3883 22.2922 36.7813 22.0172 35.3118C21.8024 34.143 21.0891 33.2149 20.0406 32.7165L19.4649 32.4415L16.543 32.4157C13.8359 32.3985 13.6039 32.4071 13.3289 32.5532ZM19.1727 35.0024C19.5078 35.2258 19.7399 35.7672 19.6539 36.111C19.5594 36.4633 19.1813 36.8501 18.8375 36.9532C18.6656 36.9962 17.7547 37.0391 16.8266 37.0391H15.125V35.9219V34.8047H17.007C18.8117 34.8047 18.8891 34.8133 19.1727 35.0024Z" fill="#9A4629"/>
<path d="M24.8618 32.5617C24.3032 32.9055 24.3204 32.7336 24.3204 38.1992C24.3204 43.5789 24.3032 43.4328 24.8016 43.8195C25.0251 43.9914 25.1196 44 27.7751 44C30.886 44 30.9204 43.9914 31.204 43.3727C31.2899 43.175 31.3673 42.943 31.3673 42.8656C31.3673 42.5391 31.0837 42.0234 30.8087 41.8516C30.5509 41.6969 30.3876 41.6797 28.6259 41.6797H26.7266V40.5625V39.4453H28.4282C29.3907 39.4453 30.2673 39.4023 30.4563 39.3508C31.1954 39.1445 31.5391 38.3883 31.204 37.7008C30.8946 37.0648 30.7915 37.0391 28.6259 37.0391H26.7266V35.9219V34.8047H28.4712C29.4251 34.8047 30.3532 34.7617 30.5251 34.7188C30.8946 34.6156 31.2298 34.2203 31.3243 33.7992C31.4016 33.4211 31.2469 33 30.929 32.6906L30.6712 32.4414L27.904 32.4156C25.2743 32.3984 25.1196 32.407 24.8618 32.5617Z" fill="#9A4629"/>
<path d="M34.1434 32.5703C33.5762 32.9141 33.5934 32.7164 33.6192 38.3367L33.645 43.4156L33.963 43.7078L34.2895 44H37.0481C39.4458 44 39.8411 43.9828 40.0473 43.8625C40.3911 43.6562 40.563 43.3039 40.563 42.7969C40.563 42.393 40.5286 42.3156 40.2278 42.0148L39.8926 41.6797H37.9505H36.0083V40.5711V39.4539L37.8817 39.4281C39.5231 39.4023 39.7809 39.3852 40.013 39.2391C40.3911 39.007 40.563 38.6805 40.563 38.1648C40.563 37.7867 40.52 37.6836 40.2708 37.4L39.9786 37.082L37.9934 37.0562L36.0083 37.0305V35.9133V34.8047H37.7958C39.7981 34.8047 40.1676 34.7188 40.4255 34.2117C40.6231 33.8336 40.6059 33.1633 40.3825 32.8797C40.013 32.407 39.9356 32.3984 37.0653 32.3984C34.5903 32.3984 34.4012 32.407 34.1434 32.5703Z" fill="#9A4629"/>
</g>
<defs>
<clipPath id="clip0_94_220">
<rect width="44" height="44" fill="white"/>
</clipPath>
</defs>
</svg>
