<svg width="49" height="49" viewBox="0 0 49 49" fill="none" xmlns="http://www.w3.org/2000/svg">
<path d="M16.0781 2.54571C14.3363 2.91895 12.9199 4.2588 12.4031 6.01973C12.2691 6.48868 12.25 7.94337 12.25 19.8106V33.0846L10.1732 33.142C7.82852 33.2186 6.01016 33.3908 3.82812 33.7449C1.34941 34.1565 0.669922 34.3383 0.31582 34.6924C0.0382813 34.9699 0 35.0656 0 35.5346C0 35.9652 0.0478516 36.1184 0.248828 36.3576C0.669922 36.8553 1.03359 36.9031 2.40215 36.616C5.56992 35.9557 8.1252 35.6781 11.2451 35.6781C15.2264 35.6781 18.6717 36.2236 24.0789 37.707C27.8592 38.7406 32.3189 39.3244 35.6016 39.2096C39.535 39.066 43.2865 38.3865 47.1816 37.1137C48.7033 36.6065 49 36.3672 49 35.5729C49 34.9125 48.7033 34.5106 48.1195 34.3479C47.7559 34.2522 47.6027 34.2809 46.3299 34.702C42.7889 35.8408 39.3723 36.4725 35.8121 36.6256L34.3574 36.683L34.3766 21.715L34.4053 6.74708L34.6828 6.23985C35.2953 5.13926 36.6064 4.67989 37.707 5.17755C38.5588 5.56036 39.0086 6.20157 39.1521 7.24473C39.2 7.57969 39.3053 7.96251 39.3914 8.09649C39.8699 8.82384 41.0758 8.77598 41.5352 8.01036C41.7648 7.63712 41.7744 7.07247 41.583 6.23985C41.1141 4.23965 39.4871 2.76583 37.4391 2.46915C34.9604 2.10548 32.6156 3.69415 31.9648 6.17286C31.9074 6.39297 31.8691 7.75196 31.8691 9.39805V12.25H23.2941H14.7287L14.7574 9.49376C14.7861 6.89063 14.7957 6.72794 14.9967 6.35469C15.8197 4.81387 17.7816 4.51719 18.9014 5.76133C19.3033 6.20157 19.4086 6.4504 19.533 7.21602C19.5904 7.52227 19.6861 7.89551 19.7723 8.04864C20.1838 8.85254 21.5332 8.77598 21.9734 7.92422C22.2988 7.28301 21.9352 5.54122 21.2557 4.55548C20.5762 3.5793 19.3799 2.78497 18.1932 2.52657C17.418 2.36387 16.882 2.36387 16.0781 2.54571ZM31.8691 17.1787V19.6191H23.3037H14.7383V17.1787V14.7383H23.3037H31.8691V17.1787ZM31.8691 24.5V26.8926H23.3037H14.7383V24.5V22.1074H23.3037H31.8691V24.5ZM31.8691 33.0176V36.549L31.6107 36.5107C31.4576 36.482 30.7207 36.3768 29.9551 36.2715C28.1176 36.0035 26.1844 35.6016 24.0215 35.0274C20.7676 34.1756 17.4658 33.5248 15.4656 33.343L14.7383 33.276V31.3811V29.4766H23.3037H31.8691V33.0176Z" fill="#9A4629"/>
<path d="M7.7041 40.5877C5.39766 40.7982 1.17715 41.516 0.650781 41.784C0.200977 42.0137 0 42.3678 0 42.9324C0 43.3344 0.0478516 43.4971 0.248828 43.7268C0.679492 44.234 0.976172 44.2531 2.87109 43.8799C6.63223 43.143 10.068 42.8654 13.1018 43.0473C16.3557 43.2482 18.241 43.5832 23.3994 44.8848C27.9357 46.0236 30.3188 46.4065 33.7545 46.5691C37.5061 46.7318 42.674 45.9375 47.1338 44.502C48.7129 43.9852 49 43.7459 49 42.9229C49 42.4348 48.9713 42.3486 48.6842 42.0615C48.1674 41.5447 47.9186 41.5447 46.0715 42.1094C41.8414 43.3918 38.9512 43.899 35.3623 43.9852C31.716 44.0809 30.0412 43.8416 23.6865 42.3008C17.3223 40.76 15.992 40.5686 11.6758 40.5303C10.0201 40.5111 8.23047 40.5398 7.7041 40.5877Z" fill="#9A4629"/>
</svg>
