<svg width="49" height="49" viewBox="0 0 49 49" fill="none" xmlns="http://www.w3.org/2000/svg">
<path d="M23.7344 0.15313C22.6721 0.344536 20.892 0.937893 19.935 1.41641C17.2266 2.78497 14.8436 5.20625 13.5898 7.8668C13.3793 8.3166 13.207 8.7377 13.207 8.79512C13.207 8.85254 13.0156 8.90039 12.7381 8.90039C12.4893 8.90039 11.8959 8.96738 11.427 9.04395C6.04844 9.99141 2.20117 14.566 2.20117 20.0402C2.20117 23.1219 3.37832 25.8781 5.57949 28.0123C6.49824 28.8928 7.40742 29.5531 8.34531 30.0125L8.90039 30.2805V37.0563V43.832L10.0871 46.215C10.8527 47.7367 11.3791 48.665 11.5418 48.799C11.7236 48.9426 11.9342 49 12.2787 49H12.7668L15.1977 46.5883C16.5662 45.2293 17.6859 44.033 17.7625 43.8512C18.0113 43.2865 17.8582 42.9324 16.9777 42.0232L16.193 41.2002L16.9777 40.3771C18.1836 39.133 18.1836 38.8172 16.9107 37.5348L16.126 36.75L16.9107 35.9557C17.3414 35.525 17.7434 35.0465 17.7912 34.9029C17.8582 34.7402 17.8965 33.7354 17.8965 32.4434V30.2422L18.4037 29.9934C19.1598 29.6105 19.8201 29.1703 20.5092 28.577L21.1408 28.0506L21.8395 28.2898C23.2941 28.7779 24.3182 28.9406 26.1748 28.9406C27.4859 28.9502 28.0889 28.9023 28.7109 28.7779C29.4287 28.6248 30.6059 28.309 30.9695 28.1654C31.0844 28.1271 31.1035 28.6248 31.1035 31.2088C31.1035 34.5967 31.1801 35.257 31.6299 36.0227C31.9744 36.6064 32.7305 37.2859 33.3813 37.5922L33.9268 37.8506L38.7406 37.8793C42.9611 37.908 43.6311 37.8889 44.1 37.7549C45.1623 37.4486 45.9758 36.75 46.4926 35.6973L46.751 35.1709V24.5V13.8291L46.4926 13.3027C45.9854 12.2596 45.1623 11.5609 44.1287 11.2547C43.7268 11.1398 43.1621 11.1016 41.7266 11.1016H39.8412L39.7168 10.5465C39.2 8.23047 37.8793 5.90488 36.0418 4.06739C34.099 2.13418 31.8883 0.909184 29.1895 0.267971C28.0697 0.00957489 24.9211 -0.0574188 23.7344 0.15313ZM27.8113 2.40215C31.2854 2.88067 34.5584 5.13926 36.3002 8.24961C36.6447 8.87168 37.2381 10.3072 37.3625 10.8336L37.4199 11.0824L35.6686 11.1207C34.0129 11.1494 33.898 11.1686 33.3813 11.4078C32.4242 11.848 31.6012 12.7668 31.2854 13.7334C31.1896 14.0205 31.1514 15.4943 31.1035 19.8393L31.0557 25.5719L30.4814 25.8111C29.2564 26.3279 28.2037 26.5289 26.5098 26.5768C25.1508 26.615 24.7871 26.5959 23.9354 26.4141C23.3803 26.3088 22.9018 26.1939 22.8539 26.1652C22.8156 26.1365 22.9688 25.7633 23.1984 25.3326C24.1842 23.4951 24.5383 21.916 24.4713 19.667C24.4234 17.7816 24.165 16.7289 23.409 15.1689C22.0596 12.4127 19.8393 10.4508 16.9873 9.49375C16.5088 9.33106 16.0111 9.17793 15.858 9.13965L15.5996 9.0918L15.8006 8.68027C16.5375 7.23516 17.8965 5.61777 19.2363 4.60332C20.5857 3.58887 22.4998 2.75625 24.1746 2.45C25.0934 2.28731 26.8064 2.2586 27.8113 2.40215ZM12.3936 11.6949C12.3553 11.915 12.2979 12.3936 12.2596 12.7668L12.2021 13.4367L11.7428 13.5516C11.025 13.7334 10.3264 14.1162 9.81914 14.5947C8.575 15.791 8.575 17.5998 9.80957 18.8057C11.915 20.8537 16.3939 20.3369 17.5807 17.9156C17.9252 17.217 17.9443 16.26 17.6381 15.5805C17.2361 14.6904 15.9059 13.6856 14.901 13.5229L14.5373 13.4654L14.5947 12.9295C14.7191 11.7906 14.834 11.3887 15.035 11.3887C15.4273 11.3887 17.0256 11.982 17.7816 12.4031C18.7004 12.9295 19.9254 14.0301 20.5188 14.8723C21.093 15.6762 21.5715 16.6523 21.8777 17.6668C22.117 18.442 22.1457 18.6525 22.1457 20.0498C22.1457 21.4471 22.117 21.6576 21.8777 22.4424C21.0738 25.0934 19.2555 27.1127 16.7193 28.1846C15.9729 28.5004 15.6475 28.7875 15.5613 29.199C15.5326 29.3713 15.5039 30.5102 15.5039 31.7543V34.0033L14.4607 35.0752C12.9678 36.5969 12.9486 36.8648 14.2215 38.1855L15.0158 39.0086L14.298 39.7264C13.5133 40.492 13.3027 40.8078 13.3027 41.2002C13.3027 41.583 13.4559 41.8031 14.2693 42.6357L15.0254 43.4014L13.7908 44.6359L12.5563 45.8705L11.8768 44.5211L11.1973 43.1621V36.2236C11.1973 30.4432 11.1781 29.2277 11.0633 28.9502C10.9389 28.6727 10.7762 28.5578 9.74258 28.0506C8.34531 27.3711 7.43613 26.7012 6.63223 25.7441C4.48848 23.1889 3.9334 19.7723 5.16797 16.7193C6.20156 14.1928 8.46973 12.2213 11.1303 11.5322C11.6184 11.4078 12.116 11.3025 12.2309 11.293C12.4414 11.293 12.451 11.3217 12.3936 11.6949ZM37.8027 14.0205C37.8027 15.1402 38.1473 15.5996 38.9799 15.5996C39.3818 15.5996 39.4967 15.5518 39.7742 15.2742C40.09 14.9584 40.0996 14.9297 40.0996 14.1641V13.3889L41.8127 13.4176C43.6885 13.4463 43.7842 13.475 44.2531 14.1066C44.4541 14.365 44.4541 14.4129 44.4541 24.5C44.4541 34.5871 44.4541 34.635 44.2531 34.8934C44.1479 35.0369 43.9373 35.2475 43.7938 35.3527C43.5354 35.5441 43.4014 35.5537 39.1234 35.5824C34.8168 35.6111 34.7115 35.6016 34.3 35.4102C34.0703 35.2953 33.8023 35.0656 33.6875 34.8934C33.4961 34.5775 33.4961 34.4723 33.4961 24.5C33.4961 14.5564 33.4961 14.4225 33.6875 14.1162C34.0607 13.5133 34.4818 13.3984 36.2523 13.3984H37.8027V14.0205ZM14.6426 15.9059C15.8006 16.4035 15.7814 16.9969 14.5947 17.5232C13.8865 17.8391 12.7764 17.8295 12.0395 17.4945C11.1016 17.0639 10.9771 16.5758 11.6949 16.1068C12.4605 15.5996 13.7334 15.5135 14.6426 15.9059Z" fill="#9A4629"/>
</svg>
