<svg width="42" height="42" viewBox="0 0 42 42" fill="none" xmlns="http://www.w3.org/2000/svg">
<g clip-path="url(#clip0_94_217)">
<path d="M6.30813 4.30664C3.04328 6.67734 0.303441 8.70351 0.229613 8.80195C-0.106716 9.23672 -0.0164811 9.92578 0.418285 10.2949C0.647972 10.4836 0.738206 10.5 1.40266 10.5H2.13274V19.5809C2.13274 28.5551 2.13274 28.6699 2.2968 28.9406C2.51828 29.3098 2.90383 29.4492 3.65032 29.4492H4.26555V35.4375V41.4176L4.55266 41.7129C4.80696 41.9672 4.89719 42 5.25813 42C5.50422 42 5.77493 41.9426 5.91438 41.8605C6.34914 41.598 6.39836 41.3684 6.39836 39.5062V37.8164H12.6738H18.9491V39.5391C18.9491 41.4422 18.9902 41.6473 19.4413 41.877C19.7449 42.0328 20.2863 42.0328 20.5898 41.877C21.0984 41.6145 21.082 41.8441 21.082 35.3473V29.4246L22.0089 29.4656C23.0507 29.5148 23.5839 29.6789 24.4124 30.2531C25.4378 30.9422 26.0202 31.5656 28.8503 34.9863C30.2859 36.7172 31.2292 37.7344 32.2054 38.5629C34.7894 40.7859 37.2831 41.8523 40.1542 41.9754C41.3929 42.0246 41.721 41.9508 41.9179 41.598C42.0409 41.352 42.0245 36.2578 41.8933 36.0855C41.68 35.8148 41.3683 35.7 40.6628 35.6508C37.9476 35.4375 36.0445 34.084 32.4679 29.8184C31.6804 28.8668 30.696 27.743 30.2859 27.3082L29.5476 26.5289L29.5066 23.8301C29.4656 20.8359 29.4491 20.7129 28.8995 19.6055C28.4812 18.7523 27.5132 17.7844 26.6601 17.366C25.8152 16.9477 25.3066 16.8246 24.1827 16.759L23.2148 16.7098V13.6008V10.5H23.871C24.6339 10.5 24.9538 10.377 25.1425 10.0078C25.3066 9.69609 25.2984 9.14648 25.1343 8.87578C25.0605 8.75273 22.337 6.71836 19.0886 4.34765L13.1659 0.0410118L12.7066 0.0164032L12.2554 -0.0164108L6.30813 4.30664ZM16.7917 5.41406L20.8605 8.36718H12.6656C5.63547 8.36718 4.49524 8.35078 4.63469 8.25234C4.72493 8.18672 6.55422 6.85781 8.69524 5.29922C10.8363 3.74062 12.6245 2.46093 12.6573 2.46093C12.6902 2.46093 14.5523 3.78984 16.7917 5.41406ZM20.9999 16.7754V23.0508H20.0238H19.0476L19.0148 20.4832C18.982 18.2027 18.9573 17.8582 18.8015 17.2922C18.1206 14.8148 16.1437 13.0266 13.6335 12.641C12.8132 12.5098 12.2062 12.5344 11.3613 12.7066C9.02336 13.1906 7.20227 14.9051 6.51321 17.2676C6.39836 17.6777 6.36555 18.2109 6.34094 20.4012L6.29993 23.0508H5.32375H4.34758V16.7754V10.5H12.6738H20.9999V16.7754ZM13.6909 14.8887C15.1593 15.2742 16.3077 16.4391 16.6933 17.9402C16.7917 18.3012 16.8163 18.941 16.8163 20.7293V23.0508H12.6738H8.53118V20.6883C8.53118 18.6457 8.54758 18.2602 8.68703 17.7844C9.06438 16.4145 10.221 15.2578 11.5745 14.8969C12.1488 14.741 13.1331 14.7328 13.6909 14.8887ZM25.5363 19.2609C26.1679 19.5727 26.7503 20.1715 27.0538 20.8195C27.2671 21.2707 27.2753 21.3445 27.2999 22.9934L27.3327 24.6996L26.9226 24.4453C25.9874 23.8711 24.6339 23.3707 23.6331 23.223L23.2558 23.1738L23.2312 21.0492L23.2148 18.9246L24.1089 18.9656C24.9128 18.9984 25.0605 19.0312 25.5363 19.2609ZM20.9999 26.25V27.2344H12.6738H4.34758V26.25V25.2656H12.6738H20.9999V26.25ZM24.1581 25.5691C24.8144 25.7742 25.9054 26.373 26.6601 26.9391C27.6034 27.6527 28.9406 29.0473 30.8027 31.2539C33.1488 34.043 34.371 35.2488 35.8476 36.2332C36.955 36.9797 37.9476 37.398 39.1698 37.6441L39.9081 37.7918L39.9327 38.7926C39.9573 39.941 40.0476 39.859 38.973 39.6621C37.5046 39.3832 35.8886 38.6531 34.5679 37.6687C33.5179 36.8895 31.9019 35.2324 30.3515 33.3457C27.6855 30.0973 26.8816 29.2605 25.5937 28.391C24.88 27.9152 24.0679 27.5379 23.5183 27.4395L23.2148 27.382V26.3566V25.3312L23.4855 25.3887C23.6249 25.4133 23.9366 25.4953 24.1581 25.5691ZM18.9491 30.4746V31.5H12.6738H6.39836V30.4746V29.4492H12.6738H18.9491V30.4746ZM18.9491 34.6582V35.6836H12.6738H6.39836V34.6582V33.6328H12.6738H18.9491V34.6582Z" fill="#9A4629"/>
</g>
<defs>
<clipPath id="clip0_94_217">
<rect width="42" height="42" fill="white"/>
</clipPath>
</defs>
</svg>
