<svg width="50" height="50" viewBox="0 0 50 50" fill="none" xmlns="http://www.w3.org/2000/svg">
<path d="M32.3144 0.283167L32.0312 0.56637V3.44723V6.31832L31.1913 6.5234C30.2538 6.75778 29.3358 7.1484 28.6522 7.62692L28.203 7.92965L26.1815 5.9277C24.0038 3.75973 23.8378 3.65231 23.2128 3.95504C22.7538 4.16989 22.5976 4.50192 22.6366 5.16598C22.6562 5.34176 23.2323 5.99606 24.6776 7.4316L26.6894 9.46286L26.4452 9.83395C25.9179 10.6347 25.3808 11.8652 25.244 12.5976C25.1073 13.3496 25.4101 13.2812 22.2069 13.2812H19.3163L19.0331 13.5644C18.5448 14.0625 18.6815 14.9023 19.3065 15.2246C19.4433 15.2929 20.4394 15.332 22.3046 15.332C25.4101 15.332 25.1171 15.2539 25.2538 16.0644C25.3808 16.7871 25.7714 17.6855 26.3964 18.6816L26.6894 19.1601L24.7265 21.123C23.6425 22.207 22.7147 23.2129 22.6659 23.3593C22.5292 23.7304 22.6269 24.1699 22.9296 24.4629C23.1249 24.6582 23.2714 24.707 23.662 24.707H24.1503L26.1815 22.6953L28.2128 20.6738L28.6815 20.9765C29.414 21.4453 30.3612 21.8554 31.1034 22.0312C31.4843 22.1191 31.8456 22.207 31.914 22.2265C32.0019 22.2558 32.0312 22.9199 32.0312 25.1367V28.0078L32.3339 28.3105C32.6659 28.6425 33.0858 28.7109 33.5448 28.4961C34.0526 28.2617 34.0819 28.0761 34.0819 25.0488C34.0819 22.9004 34.1112 22.2558 34.2089 22.2265C34.2675 22.207 34.6288 22.1191 35.0097 22.0312C35.7519 21.8554 36.6991 21.4453 37.4315 20.9765L37.9003 20.6738L39.9315 22.6953C41.914 24.6679 41.9628 24.707 42.3632 24.707C43.203 24.707 43.5155 24.3554 43.4667 23.4472C43.4569 23.2714 42.9003 22.6464 41.4354 21.1816L39.4237 19.1504L39.7655 18.584C40.3905 17.5586 40.703 16.7773 40.9569 15.5957L41.0155 15.332H43.8085C45.664 15.332 46.6698 15.2929 46.8065 15.2246C47.1776 15.039 47.3632 14.7265 47.3632 14.2773C47.3632 13.9355 47.3046 13.7988 47.08 13.5644L46.7968 13.2812H43.9062C40.6933 13.2812 41.0058 13.3593 40.8593 12.5488C40.7421 11.8945 40.3417 10.9277 39.8729 10.1757L39.4237 9.45309L41.4452 7.4316C42.8808 5.99606 43.4569 5.34176 43.4765 5.16598C43.5155 4.50192 43.3593 4.16989 42.9003 3.95504C42.2655 3.65231 42.119 3.75973 39.9218 5.93746L37.9003 7.93942L37.4315 7.63668C36.6894 7.15817 35.5175 6.65035 34.7655 6.48434L34.0819 6.32809V3.46676V0.605433L33.7987 0.302698C33.5644 0.0487919 33.4472 -3.62396e-05 33.0565 -3.62396e-05C32.6854 -3.62396e-05 32.5487 0.0487919 32.3144 0.283167ZM34.414 8.59371C35.4979 8.86715 36.2597 9.31637 37.119 10.1562C38.3007 11.3183 38.8671 12.6757 38.8671 14.3359C38.8671 16.5136 37.5976 18.5547 35.6347 19.5214C34.0819 20.2832 32.6854 20.3906 31.1132 19.8437C28.6913 19.0136 27.119 16.7968 27.1386 14.2578C27.1483 12.6269 27.6659 11.3965 28.8573 10.205C29.7362 9.31637 30.4687 8.88668 31.5624 8.59371C32.4901 8.34957 33.4765 8.34957 34.414 8.59371Z" fill="#9A4629"/>
<path d="M6.42608 30.4589C4.64874 30.8496 2.94952 31.5527 2.75421 31.9824C2.46124 32.6269 2.74444 33.3105 3.38897 33.4863C3.67217 33.5644 3.84796 33.5449 4.28741 33.3789C6.5628 32.5488 7.43194 32.3632 8.71124 32.4609C9.74639 32.5292 10.4495 32.7343 12.139 33.4179C15.137 34.6289 16.1233 34.873 17.9202 34.8828C19.7171 34.8828 21.2894 34.5507 23.428 33.7207C26.1331 32.6757 26.719 32.5195 28.1351 32.5195C29.3558 32.5195 30.1273 32.7246 32.4515 33.6523C34.844 34.6093 35.8304 34.8632 37.4026 34.9316C38.7698 34.9902 39.971 34.8339 41.4065 34.4238C42.6956 34.0429 43.9944 33.5156 44.2288 33.2617C44.7171 32.7441 44.5511 31.9042 43.8968 31.5917C43.4866 31.4062 43.3792 31.416 42.1292 31.8847C40.3323 32.5488 39.7659 32.6562 37.9886 32.666C36.1526 32.666 35.8792 32.6074 33.9358 31.8066C30.3128 30.3222 28.721 30.0195 26.553 30.4199C25.4983 30.6152 25.098 30.7519 23.1644 31.5039C20.8597 32.4121 20.0394 32.6269 18.4964 32.6855C16.5726 32.7636 15.9085 32.6074 12.8909 31.3671C10.9476 30.5664 10.1077 30.3613 8.54522 30.3125C7.53936 30.2832 7.09991 30.3125 6.42608 30.4589Z" fill="#9A4629"/>
<path d="M6.34767 37.9883C4.7754 38.3203 3.20313 38.9551 2.85157 39.4043C2.45118 39.9121 2.6172 40.7129 3.19337 41.0059C3.5254 41.1816 3.84767 41.1328 4.65821 40.8105C6.3379 40.1367 7.46095 39.9316 8.8086 40.0488C9.90235 40.1367 10.5664 40.3418 12.7539 41.2207C15.2149 42.2168 16.0254 42.4121 17.8223 42.4219C19.9512 42.4316 21.3184 42.1387 24.0332 41.0645C26.0938 40.2441 26.709 40.0977 28.0762 40.0977C29.4824 40.0879 30.0391 40.2344 32.3145 41.1523C35.0879 42.2754 35.9863 42.5 37.8418 42.5C39.3555 42.5 40.5859 42.2754 42.334 41.6895C43.7598 41.2012 44.1895 40.9766 44.3457 40.6055C44.4824 40.2637 44.4043 39.6875 44.1602 39.3555C43.8379 38.9258 43.4961 38.9062 42.5195 39.2578C40.2246 40.0879 39.8438 40.166 38.0371 40.1758C36.0938 40.1855 35.9961 40.166 33.1348 39.0039C30.5664 37.9688 30.0684 37.8516 28.2227 37.8418C26.3867 37.8418 25.7617 37.9785 23.291 38.9648C22.3828 39.3359 21.1914 39.7559 20.6543 39.9023C19.7656 40.1562 19.541 40.1855 18.0664 40.1855C16.582 40.1855 16.3867 40.166 15.6055 39.9121C15.1367 39.7656 14.2871 39.4434 13.7012 39.1992C11.9629 38.4668 11.1719 38.1934 10.166 37.9883C8.95509 37.7441 7.49024 37.7441 6.34767 37.9883Z" fill="#9A4629"/>
<path d="M6.88454 45.4785C5.50758 45.6934 3.13454 46.5625 2.82204 46.9531C2.59743 47.2461 2.5779 47.8613 2.78297 48.1836C2.99782 48.4961 3.43727 48.6719 3.84743 48.5938C4.03297 48.5547 4.51149 48.3984 4.90212 48.2324C6.05446 47.7539 7.14821 47.5195 8.25172 47.5195C9.46266 47.5195 10.1267 47.6855 12.0603 48.457C14.0134 49.2383 15.0193 49.5898 15.8396 49.7559C18.1931 50.2539 20.5857 49.9121 23.9451 48.6035C26.3377 47.6758 26.5818 47.6074 28.1248 47.6172C29.6287 47.627 30.0193 47.7246 32.4705 48.7305C35.0095 49.7656 35.9763 50 37.822 50C39.5506 50 40.9861 49.7168 42.9978 48.9648C44.1111 48.5449 44.4334 48.252 44.4334 47.6465C44.4334 47.3633 44.365 47.1875 44.1502 46.9531C43.7693 46.5234 43.3006 46.5234 42.1873 46.9629C40.7517 47.5293 39.7263 47.7539 38.3298 47.8223C36.4256 47.9102 35.908 47.7832 32.5193 46.4062C30.5369 45.5957 29.8923 45.459 28.1248 45.4688C26.3377 45.4688 25.7322 45.5957 23.6228 46.4355C20.4685 47.6855 20.0388 47.793 18.0174 47.8027C16.1619 47.8027 16.0447 47.7734 13.281 46.6699C10.7517 45.6543 10.1463 45.498 8.49587 45.459C7.77321 45.4395 7.05055 45.4492 6.88454 45.4785Z" fill="#9A4629"/>
</svg>
