<svg width="67" height="54" viewBox="0 0 67 54" fill="none" xmlns="http://www.w3.org/2000/svg">
<g clip-path="url(#clip0_94_43)">
<path d="M23.6 40.3L6.3 22.9L10.4 49.2H18.4L25.4 42.2L28.7 45.5L20.3 53.9H6.5L0 12.7H2.7L26.9 37L23.6 40.3ZM28.9 38.7L44.7 22.9L33.6 7.9L22.4 23.2L31.4 33.1L28 36.2L16.4 23.5L33.5 0L50.8 23.4L32.2 42L28.9 38.7ZM40.1 53.9H22.4L64.4 12.8H66.5L60.3 53.7L46 53.8L40 48.1L43.2 44.7L47.8 49L56.3 48.8L60.2 23.5L33.9 49.2H40.2V53.9H40.1Z" fill="#E1DAD0"/>
<path d="M28.9004 38.7L44.7004 22.9L33.6004 7.9L22.4004 23.2L31.4004 33.1L28.0004 36.2L16.4004 23.5L33.5004 0L50.9004 23.4L32.3004 41.9L29.0004 38.7H28.9004Z" fill="#E1DAD0"/>
</g>
<defs>
<clipPath id="clip0_94_43">
<rect width="66.5" height="53.9" fill="white"/>
</clipPath>
</defs>
</svg>
