<svg width="68" height="46" viewBox="0 0 68 46" fill="none" xmlns="http://www.w3.org/2000/svg">
<g clip-path="url(#clip0_123_381)">
<path d="M7.46099 27.2178H8.93617V37.3119H7.46099V29.5234L1.47518 37.2838H0V27.2178H1.47518V35.0063L7.46099 27.2178ZM20.4823 34.4721L17.0213 30.367V37.3119H15.5745V28.6518L14.383 27.2459H16.3121L20.4823 32.1946L24.6809 27.2178H26.6099L25.4184 28.6237V37.2838H23.9716V30.367L20.4823 34.4721ZM33.5319 35.7936H39.8014V37.2838H32.0567V27.2178H39.2057V28.708H33.5319V31.7728C33.844 31.6041 34.156 31.4917 34.4681 31.4354C34.7801 31.4073 35.1206 31.3792 35.461 31.3792H37.6738V32.8694H35.461C35.1206 32.8694 34.8085 32.8975 34.4965 32.9538C34.1844 33.01 33.844 33.1225 33.5603 33.2631V35.7936H33.5319ZM50.7518 31.5198C51.7447 31.5198 52.2553 31.0418 52.2553 30.0858C52.2553 29.5797 52.1418 29.2141 51.8865 29.0173C51.6312 28.8205 51.2624 28.708 50.7801 28.708H47.0355V31.9415C47.3475 31.7728 47.6596 31.6604 47.9716 31.6041C48.2837 31.5479 48.6241 31.5479 48.9645 31.5479H50.7518V31.5198ZM45.5319 37.2838V27.2178H50.7801C51.234 27.2178 51.6312 27.2741 52 27.4146C52.3688 27.5552 52.6809 27.7239 52.9362 27.977C53.1915 28.23 53.3901 28.5393 53.5319 28.8767C53.6738 29.2423 53.7305 29.6359 53.7305 30.0858C53.7305 30.5357 53.6738 30.9293 53.5319 31.2948C53.3901 31.6604 53.1915 31.9697 52.9362 32.2227C52.6809 32.4758 52.3688 32.6726 52 32.8132C51.6312 32.9538 51.234 33.01 50.7801 33.01H48.9645C48.6241 33.01 48.3121 33.0381 47.9716 33.0943C47.6312 33.1506 47.3191 33.2631 47.0071 33.4318V37.3119H45.5319V37.2838ZM61.4752 27.021H63.1206L68.0284 37.2838H66.3546L65.6738 35.8217H62.5816C62.1277 35.8217 61.7021 35.8498 61.3333 35.9061C60.9645 35.9623 60.6809 36.0467 60.4255 36.1591C60.1702 36.2716 59.9716 36.356 59.8014 36.4965C59.6596 36.609 59.5461 36.7215 59.4894 36.834L59.234 37.3119H57.617L62.0142 28.2863L61.4752 27.021ZM64.9929 34.3315L62.7801 30.0577L60.539 34.8939C60.7092 34.7533 61.0213 34.6127 61.4468 34.5002C61.8723 34.3877 62.4397 34.3315 63.1489 34.3315H64.9929Z" fill="#E1DAD0"/>
<path d="M30.582 13.5807L24.7381 7.70416L26.1281 16.533H28.8515L31.2345 14.1711L32.3693 15.2958L29.5324 18.1076H24.7664L22.582 4.27384H23.5182L31.7168 12.456L30.582 13.5807ZM32.3976 13.0183L37.7593 7.70416L33.9863 2.64303L30.1849 7.78851L33.2487 11.1064L32.0856 12.1748L28.1423 7.90098L33.9579 0L39.8303 7.87286L33.504 14.143L32.3976 13.0183ZM36.1991 18.1357H30.1849L44.4544 4.30196H45.1636L43.0359 18.0795L38.1849 18.1076L36.1707 16.2237L37.2487 15.0709L38.809 16.533L41.6742 16.4487L43.0076 7.9291L34.0998 16.5892H36.2274V18.1357H36.1991Z" fill="#CE9B7F"/>
<path d="M32.3969 13.0183L37.7586 7.70416L33.9856 2.64303L30.1842 7.78851L33.248 11.1345L32.0849 12.1748L28.1416 7.90098L33.9572 0L39.8579 7.87286L33.56 14.1149L32.4253 13.0183H32.3969Z" fill="#4196A3"/>
</g>
<defs>
<clipPath id="clip0_123_381">
<rect width="68" height="46" fill="white"/>
</clipPath>
</defs>
</svg>
