<svg width="215" height="42" viewBox="0 0 215 42" fill="none" xmlns="http://www.w3.org/2000/svg">
<g clip-path="url(#clip0_175_358)">
<path d="M62.176 31L48.8635 17.6154L52.0185 37.8462H58.1745L63.5611 32.4615L66.1005 35L59.6366 41.4615H49.0174L44.0156 9.84615H46.1702L64.7153 28.4615L62.176 31ZM66.3313 29.7692L78.4895 17.6154L69.948 6.07692L61.2526 17.8462L68.1781 25.4615L65.5618 27.8462L56.6355 18.0769L69.871 0L83.1835 18L68.8707 32.3077L66.3313 29.7692ZM74.8728 41.4615H61.3295L93.6488 9.84615H95.2647L90.4938 41.3077L79.4899 41.3846L74.9498 37.0769L77.4122 34.4615L80.798 37.6923L87.3388 37.5385L90.3399 18.0769L70.1019 37.8462H74.9498V41.4615H74.8728Z" fill="#9A4629"/>
<path d="M66.3315 29.7692L78.4128 17.6154L69.8713 6.07692L61.2528 17.8462L68.1783 25.4615L65.562 27.8462L56.6357 18.0769L69.8713 0L83.1837 18L68.8709 32.2308L66.3315 29.7692Z" fill="#4196A3"/>
<path d="M31.088 9.76923H25.0859L4.61704 34.0769V9.76923H0V41.6154H4.61704L22.8543 19.6923V41.6154H27.3944V14.2308L31.088 9.76923Z" fill="#9A4629"/>
<path d="M115.042 37.1538H135.126V41.9231H110.348V9.46154H133.125V14.2308H114.965V24.0769C115.965 23.5385 116.965 23.1538 117.966 23C118.966 22.8462 120.043 22.7692 121.121 22.7692H128.2V27.6923H121.121C120.043 27.6923 119.043 27.7692 118.043 27.9231C117.042 28.0769 115.965 28.4615 115.042 28.9231V37.1538ZM166.445 23.3846C169.677 23.3846 171.216 21.8462 171.216 18.7692C171.216 17.1538 170.831 15.9231 169.984 15.3077C169.138 14.6154 167.984 14.3077 166.445 14.3077H154.517V24.6923C155.518 24.0769 156.518 23.7692 157.518 23.6154C158.519 23.4615 159.596 23.3846 160.673 23.3846H166.445ZM149.823 42V9.46154H166.522C167.907 9.46154 169.215 9.69231 170.446 10.0769C171.6 10.4615 172.601 11.0769 173.447 11.9231C174.294 12.6923 174.909 13.6923 175.371 14.8462C175.833 16 176.063 17.3077 176.063 18.7692C176.063 20.2308 175.833 21.5385 175.371 22.6923C174.909 23.8462 174.294 24.8462 173.447 25.6923C172.601 26.5385 171.6 27.1539 170.446 27.6154C169.292 28.0769 167.984 28.2308 166.522 28.2308H160.75C159.673 28.2308 158.673 28.3077 157.595 28.4615C156.518 28.6154 155.518 29 154.517 29.5385V42.0769H149.823V42ZM194.07 8.92308H199.303L214.924 42H209.614L207.459 37.2308H197.533C196.071 37.2308 194.762 37.3077 193.608 37.5385C192.454 37.7692 191.454 38 190.684 38.3077C189.838 38.6154 189.222 39 188.76 39.3846C188.299 39.7692 187.914 40.1539 187.76 40.4615L186.914 42H181.758L195.84 12.9231L194.07 8.92308ZM205.382 32.4615L198.302 18.7692L191.146 34.3077C191.761 33.8462 192.685 33.3846 193.993 33C195.301 32.6154 197.148 32.4615 199.38 32.4615H205.382Z" fill="#9A4629"/>
</g>
<defs>
<clipPath id="clip0_175_358">
<rect width="215" height="42" fill="white"/>
</clipPath>
</defs>
</svg>
