<svg width="58" height="47" viewBox="0 0 58 47" fill="none" xmlns="http://www.w3.org/2000/svg">
<g clip-path="url(#clip0_94_139)">
<path d="M20.5477 35.1953L5.53769 19.9659L9.10804 42.8465H16.103L22.2236 36.7256L25.1382 39.6403L17.8518 46.9271H5.61055L0 11.076H2.40452L23.4623 32.2806L20.5477 35.1953ZM25.2111 33.738L38.9824 19.9659L29.2915 6.84961L19.5276 20.1845L27.397 28.7829L24.4095 31.5519L14.2814 20.476L29.2915 0L44.3744 20.4031L28.1256 36.5798L25.2111 33.738ZM34.9749 47H19.6005L56.2513 11.1488H58.0729L52.608 46.8543H40.0754L34.902 41.9721L37.6709 38.9845L41.6784 42.7736L49.0377 42.555L52.4623 20.476L29.5101 42.9194H34.9749V47Z" fill="#CE9B7F"/>
<path d="M25.2109 33.738L38.9823 19.9659L29.2913 6.84961L19.5275 20.1845L27.3968 28.8558L24.4094 31.5519L14.2812 20.476L29.2913 0L44.3742 20.4031L28.1983 36.5798L25.2838 33.738H25.2109Z" fill="#4196A3"/>
</g>
<defs>
<clipPath id="clip0_94_139">
<rect width="58" height="47" fill="white"/>
</clipPath>
</defs>
</svg>
