<svg width="152" height="104" viewBox="0 0 152 104" fill="none" xmlns="http://www.w3.org/2000/svg">
<g clip-path="url(#clip0_123_376)">
<path d="M16.6775 61.5353H19.975V84.3568H16.6775V66.748L3.29746 84.2933H0V61.5353H3.29746V79.1441L16.6775 61.5353ZM45.7839 77.9363L38.0476 68.6551V84.3568H34.8135V64.7774L32.1502 61.5989H36.4622L45.7839 72.7872L55.169 61.5353H59.481L56.8177 64.7138V84.2933H53.5836V68.6551L45.7839 77.9363ZM74.9537 80.9241H88.9679V84.2933H71.6562V61.5353H87.6362V64.9045H74.9537V71.8336C75.6512 71.4522 76.3488 71.1979 77.0463 71.0708C77.7439 71.0072 78.5048 70.9436 79.2658 70.9436H84.2119V74.3128H79.2658C78.5048 74.3128 77.8073 74.3764 77.1097 74.5035C76.4122 74.6307 75.6512 74.885 75.0171 75.2028V80.9241H74.9537ZM113.445 71.2615C115.665 71.2615 116.806 70.1808 116.806 68.0194C116.806 66.8752 116.552 66.0488 115.982 65.6038C115.411 65.1588 114.587 64.9045 113.509 64.9045H105.138V72.215C105.836 71.8336 106.533 71.5793 107.231 71.4522C107.928 71.3251 108.689 71.3251 109.45 71.3251H113.445V71.2615ZM101.777 84.2933V61.5353H113.509C114.523 61.5353 115.411 61.6625 116.235 61.9803C117.06 62.2982 117.757 62.6796 118.328 63.2517C118.899 63.8238 119.343 64.5231 119.66 65.2859C119.977 66.1123 120.103 67.0023 120.103 68.0194C120.103 69.0365 119.977 69.9265 119.66 70.7529C119.343 71.5793 118.899 72.2786 118.328 72.8507C117.757 73.4229 117.06 73.8678 116.235 74.1857C115.411 74.5035 114.523 74.6307 113.509 74.6307H109.45C108.689 74.6307 107.992 74.6942 107.231 74.8214C106.47 74.9485 105.772 75.2028 105.075 75.5842V84.3568H101.777V84.2933ZM137.415 61.0903H141.093L152.063 84.2933H148.322L146.8 80.9876H139.888C138.874 80.9876 137.922 81.0512 137.098 81.1784C136.274 81.3055 135.64 81.4962 135.069 81.7505C134.498 82.0048 134.054 82.1955 133.674 82.5133C133.357 82.7676 133.103 83.0219 132.976 83.2762L132.406 84.3568H128.791L138.62 63.951L137.415 61.0903ZM145.278 77.6185L140.332 67.9559L135.322 78.8898C135.703 78.572 136.401 78.2541 137.352 77.9999C138.303 77.7456 139.571 77.6185 141.156 77.6185H145.278Z" fill="#E1DAD0"/>
<path d="M49.0176 102.029V94.528H49.7785V97.2615C49.9688 96.9437 50.2224 96.6894 50.5395 96.5622C50.8565 96.4351 51.1736 96.3715 51.6175 96.3715C52.4419 96.3715 53.0126 96.6258 53.4565 97.1344C53.6467 97.3251 53.7735 97.5794 53.8369 97.8336C53.9003 98.1515 53.9638 98.5329 53.9638 99.105V102.029H53.2028V99.105C53.2028 98.8508 53.2028 98.5965 53.1394 98.4058C53.076 98.0244 52.8857 97.7065 52.6321 97.4522C52.315 97.1979 51.998 97.1344 51.5541 97.1344C51.237 97.1344 50.9834 97.1979 50.7297 97.3251C50.4761 97.4522 50.2858 97.6429 50.0956 97.8336C49.9688 97.9608 49.9054 98.1515 49.8419 98.3422C49.7785 98.5329 49.7785 98.7872 49.7785 99.1686V102.093H49.0176V102.029ZM57.8319 96.3715C58.3392 96.3715 58.8465 96.4987 59.2904 96.753C59.7343 97.0072 60.1148 97.3887 60.3684 97.8336C60.6221 98.2786 60.7489 98.7872 60.7489 99.2957C60.7489 99.8043 60.6221 100.313 60.3684 100.758C60.1148 101.203 59.7343 101.584 59.2904 101.839C58.8465 102.093 58.4026 102.22 57.8319 102.22C57.3246 102.22 56.8173 102.093 56.3734 101.839C55.9296 101.584 55.5491 101.266 55.2954 100.821C55.0418 100.376 54.9149 99.8679 54.9149 99.3593C54.9149 98.8508 55.0418 98.3422 55.2954 97.8972C55.5491 97.4522 55.9296 97.0708 56.31 96.8165C56.8807 96.4987 57.3246 96.3715 57.8319 96.3715ZM57.8953 97.0708C57.5149 97.0708 57.1344 97.1979 56.8173 97.3887C56.5003 97.5794 56.2466 97.8336 56.0564 98.1515C55.8661 98.4693 55.8027 98.8508 55.8027 99.2322C55.8027 99.6136 55.9295 99.995 56.1198 100.313C56.31 100.631 56.5637 100.885 56.8807 101.076C57.1978 101.266 57.5783 101.394 57.9588 101.394C58.3392 101.394 58.7197 101.266 59.0368 101.076C59.3538 100.885 59.6075 100.631 59.7977 100.249C59.988 99.9314 60.0514 99.55 60.0514 99.105C60.0514 98.7236 59.988 98.4058 59.7977 98.0243C59.6075 97.7065 59.3538 97.4522 59.0368 97.2615C58.6563 97.1979 58.2758 97.0708 57.8953 97.0708ZM62.461 102.029V97.1344H61.3196V96.4351H62.461V94.4645H63.222V96.4351H64.4902V97.1344H63.222V102.029H62.461ZM70.8315 99.4865H65.8219C65.8853 99.8043 65.9487 99.995 66.0122 100.186C66.139 100.44 66.2658 100.631 66.456 100.821C66.6463 101.012 66.8999 101.139 67.1536 101.266C67.4072 101.394 67.6609 101.457 67.9779 101.457C68.6121 101.457 69.1194 101.266 69.5633 100.821C69.7535 100.631 69.8803 100.44 70.0071 100.249H70.7681C70.6413 100.567 70.5144 100.821 70.3876 100.949C70.2608 101.139 70.134 101.266 69.9437 101.457C69.6901 101.711 69.373 101.839 69.056 101.966C68.7389 102.093 68.3584 102.156 68.0414 102.156C67.5341 102.156 67.0268 102.029 66.5829 101.775C66.139 101.521 65.8219 101.139 65.5049 100.694C65.2512 100.249 65.1244 99.7407 65.1244 99.2322C65.1244 98.7236 65.2512 98.2151 65.5049 97.7701C65.7585 97.3251 66.139 96.9437 66.5829 96.6894C67.0268 96.4351 67.5341 96.308 68.0414 96.308C68.4852 96.308 68.8657 96.3715 69.3096 96.5622C69.6901 96.753 70.0071 97.0072 70.3242 97.3887C70.5779 97.7065 70.7681 98.0879 70.8949 98.5329C70.7681 98.7236 70.7681 99.0415 70.8315 99.4865ZM65.8219 98.8508H70.0706C70.0071 98.5329 69.8803 98.2151 69.6901 97.9608C69.4998 97.7065 69.2462 97.5158 68.9291 97.3251C68.6121 97.1979 68.295 97.0708 67.9779 97.0708C67.6609 97.0708 67.3438 97.1344 67.0268 97.2615C66.7097 97.3887 66.456 97.5794 66.2658 97.8972C66.0756 98.1515 65.8853 98.4693 65.8219 98.8508ZM71.8461 94.528H72.6071V102.029H71.8461V94.528ZM82.1824 97.1979H83.0067L81.6117 99.8679L83.514 101.711L83.0067 102.22L81.2946 100.567C81.1678 100.821 81.0409 101.076 80.9141 101.203C80.7873 101.33 80.6605 101.521 80.5336 101.648C80.1532 102.029 79.6459 102.22 79.0117 102.22C78.5678 102.22 78.1874 102.093 77.8703 101.902C77.4898 101.711 77.2362 101.394 77.0459 101.076C76.8557 100.694 76.7289 100.313 76.7289 99.9314C76.7289 99.4229 76.9191 98.9143 77.2996 98.4693C77.4264 98.2786 77.6167 98.1515 77.7435 98.0243C77.8703 97.8972 78.124 97.7701 78.3776 97.6429C78.124 97.3887 77.9971 97.1979 77.8703 97.0072C77.6801 96.753 77.6167 96.4351 77.6167 96.1173C77.6167 95.7994 77.6801 95.5451 77.8703 95.2909C78.0605 95.0366 78.2508 94.8459 78.5044 94.6552C78.7581 94.528 79.0751 94.4009 79.3922 94.4009C79.6459 94.4009 79.8361 94.4644 80.0898 94.528C80.28 94.5916 80.5336 94.7187 80.6605 94.9094C80.8507 95.1001 80.9775 95.2909 81.0409 95.4816C81.1044 95.6723 81.1678 95.9265 81.1678 96.1173C81.1678 96.5622 80.9775 96.9437 80.6605 97.2615C80.5336 97.3887 80.4068 97.5158 80.28 97.5794C80.1532 97.6429 79.9629 97.7701 79.7093 97.8336L81.1044 99.2322L82.1824 97.1979ZM78.8849 98.2151L78.5678 98.4058C78.1874 98.5965 77.9337 98.7872 77.7435 98.9779C77.4898 99.2322 77.363 99.55 77.363 99.9314C77.363 100.186 77.4264 100.504 77.5532 100.694C77.6801 100.949 77.8703 101.139 78.124 101.266C78.3776 101.394 78.6313 101.457 78.8849 101.457C79.2654 101.457 79.6459 101.33 79.8995 101.076C80.0263 100.949 80.1532 100.821 80.28 100.694C80.3434 100.567 80.5336 100.313 80.6605 99.995L78.8849 98.2151ZM79.0751 97.3251C79.3288 97.2615 79.519 97.1344 79.6459 97.0708C79.7727 97.0072 79.8995 96.9437 80.0263 96.8165C80.28 96.6258 80.3434 96.3715 80.3434 96.1173C80.3434 95.863 80.2166 95.6087 80.0263 95.418C79.8361 95.2273 79.5824 95.1001 79.2654 95.1001C78.9483 95.1001 78.7581 95.1637 78.5678 95.3544C78.3776 95.5451 78.2508 95.7358 78.2508 96.0537C78.2508 96.2444 78.3142 96.4351 78.441 96.6258C78.6313 96.8801 78.8215 97.0708 79.0751 97.3251ZM86.7481 100.44H87.509C87.509 100.758 87.6358 101.012 87.8261 101.203C88.0163 101.394 88.27 101.521 88.5236 101.521C88.7773 101.521 89.0309 101.457 89.2212 101.266C89.4114 101.076 89.4748 100.885 89.4748 100.631C89.4748 100.313 89.348 100.122 89.1578 99.9314C88.9675 99.8043 88.7773 99.6772 88.3968 99.55C88.0797 99.4229 87.8261 99.3593 87.6358 99.2322C87.192 98.9779 86.9383 98.5329 86.9383 97.9608C86.9383 97.5158 87.0651 97.1344 87.3822 96.8801C87.6993 96.5622 88.0797 96.4351 88.5236 96.4351C88.9675 96.4351 89.2846 96.5622 89.6016 96.8801C89.9187 97.1344 90.0455 97.5158 90.0455 97.9608H89.2846C89.2846 97.7065 89.2212 97.5158 89.0309 97.3887C88.9041 97.2615 88.6504 97.1979 88.3968 97.1979C88.1431 97.1979 87.9529 97.2615 87.8261 97.4522C87.6993 97.5794 87.5724 97.7701 87.5724 98.0243C87.5724 98.2786 87.6358 98.4693 87.8261 98.5965C87.9529 98.6601 88.0163 98.7236 88.0797 98.7872C88.1431 98.8508 88.3334 98.8508 88.587 98.9779C88.9675 99.105 89.2846 99.2322 89.4748 99.3593C89.7285 99.4865 89.8553 99.6772 89.9821 99.8679C90.1089 100.059 90.1089 100.313 90.1089 100.567C90.1089 101.076 89.9187 101.521 89.6016 101.839C89.2846 102.156 88.8407 102.347 88.3334 102.347C88.0163 102.347 87.6993 102.284 87.4456 102.093C87.192 101.966 87.0017 101.711 86.8115 101.457C86.8115 101.076 86.7481 100.758 86.7481 100.44ZM91.1235 96.4987H91.8211V97.4522C92.0113 97.1979 92.1381 97.0708 92.265 97.0072C92.7723 96.6258 93.4064 96.3715 94.0405 96.3715C94.4844 96.3715 94.8649 96.4351 95.2454 96.6258C95.6258 96.8165 96.0063 97.0708 96.26 97.4522C96.7039 97.9608 96.8941 98.5329 96.8941 99.2957C96.8941 99.8043 96.7673 100.313 96.5136 100.758C96.26 101.203 95.8795 101.521 95.4356 101.775C94.9917 102.029 94.4844 102.156 93.9771 102.156C93.2796 102.156 92.7089 101.966 92.265 101.521C92.1381 101.394 92.0113 101.203 91.8845 101.012V104H91.1235V96.4987ZM93.9771 101.457C94.2942 101.457 94.6112 101.394 94.8649 101.266C95.1185 101.139 95.3722 101.012 95.5624 100.821C95.7527 100.631 95.9429 100.376 96.0063 100.122C96.1331 99.8679 96.1965 99.55 96.1965 99.2957C96.1965 98.9143 96.0697 98.5329 95.8795 98.2151C95.6892 97.8972 95.4356 97.5794 95.0551 97.3887C94.7381 97.1979 94.3576 97.0708 93.9771 97.0708C93.5966 97.0708 93.2162 97.1979 92.8357 97.3887C92.5186 97.5794 92.265 97.8336 92.0113 98.1515C91.8211 98.4693 91.6943 98.8508 91.6943 99.2957C91.6943 99.6772 91.7577 100.059 92.0113 100.376C92.2016 100.694 92.4552 100.949 92.7723 101.139C93.2162 101.394 93.5332 101.457 93.9771 101.457ZM103.679 96.4987V102.029H102.982V101.012C102.855 101.266 102.665 101.457 102.538 101.584C102.094 101.966 101.523 102.156 100.826 102.156C100.382 102.156 99.9379 102.029 99.494 101.839C99.0501 101.648 98.6696 101.33 98.416 101.012C98.2258 100.821 98.0989 100.504 98.0355 100.186C97.9087 99.8679 97.9087 99.55 97.9087 99.2322C97.9087 98.7236 98.0355 98.2151 98.2892 97.7701C98.5428 97.3251 98.9233 96.9437 99.3672 96.6894C99.8111 96.4351 100.318 96.308 100.826 96.308C101.143 96.308 101.46 96.3715 101.777 96.4351C102.094 96.5622 102.348 96.6894 102.538 96.8801C102.728 97.0072 102.855 97.1979 102.982 97.4522V96.3715H103.679V96.4987ZM100.826 97.0708C100.382 97.0708 100.001 97.1979 99.6842 97.3887C99.3672 97.5794 99.0501 97.8336 98.8599 98.2151C98.6696 98.5329 98.5428 98.9143 98.5428 99.2957C98.5428 99.6772 98.6696 100.059 98.8599 100.376C99.0501 100.694 99.3038 100.949 99.6842 101.203C100.001 101.394 100.382 101.521 100.826 101.521C101.206 101.521 101.587 101.394 101.904 101.203C102.221 101.012 102.474 100.758 102.665 100.376C102.855 100.059 102.982 99.6772 102.982 99.2957C102.982 98.9143 102.855 98.5329 102.665 98.2151C102.474 97.8972 102.221 97.5794 101.904 97.3887C101.523 97.1979 101.206 97.0708 100.826 97.0708Z" fill="#E1DAD0"/>
<path d="M68.3589 30.7042L55.2959 17.4181L58.4031 37.379H64.4907L69.8174 32.0391L72.3539 34.5819L66.0126 40.9389H55.3593L50.4766 9.66259H52.5692L70.8954 28.1614L68.3589 30.7042ZM72.4173 29.4328L84.4023 17.4181L75.9684 5.97555L67.4711 17.6088L74.3197 25.11L71.7198 27.5257L62.9054 17.8631L75.905 0L89.0314 17.7995L74.8904 31.9755L72.4173 29.4328ZM80.9146 41.0024H67.4711L99.3677 9.72616H100.953L96.197 40.8753L85.3535 40.9389L80.8512 36.6797L83.2609 34.0733L86.7486 37.379L93.1532 37.1883L96.1336 17.9267L76.2221 37.5061H80.978V41.0024H80.9146Z" fill="#CE9B7F"/>
<path d="M72.4172 29.4328L84.4022 17.4181L75.9683 5.97555L67.471 17.6088L74.3195 25.1736L71.7196 27.5257L62.9053 17.8631L75.9049 0L89.0947 17.7995L75.0171 31.912L72.4806 29.4328H72.4172Z" fill="#4196A3"/>
</g>
<defs>
<clipPath id="clip0_123_376">
<rect width="152" height="104" fill="white"/>
</clipPath>
</defs>
</svg>
