<svg width="152" height="104" viewBox="0 0 152 104" fill="none" xmlns="http://www.w3.org/2000/svg">
<g clip-path="url(#clip0_296_483)">
<path d="M16.6775 61.5354H19.975V84.357H16.6775V66.7482L3.29746 84.2934H0V61.5354H3.29746V79.1442L16.6775 61.5354ZM45.7839 77.9364L38.0476 68.6552V84.357H34.8135V64.7775L32.1502 61.599H36.4622L45.7839 72.7873L55.169 61.5354H59.481L56.8177 64.7139V84.2934H53.5836V68.6552L45.7839 77.9364ZM74.9537 80.9242H88.9679V84.2934H71.6562V61.5354H87.6362V64.9046H74.9537V71.8337C75.6512 71.4523 76.3488 71.198 77.0463 71.0709C77.7439 71.0073 78.5048 70.9438 79.2658 70.9438H84.2119V74.313H79.2658C78.5048 74.313 77.8073 74.3765 77.1097 74.5037C76.4122 74.6308 75.6512 74.8851 75.0171 75.2029V80.9242H74.9537ZM113.445 71.2616C115.665 71.2616 116.806 70.1809 116.806 68.0196C116.806 66.8753 116.552 66.0489 115.982 65.6039C115.411 65.1589 114.587 64.9046 113.509 64.9046H105.138V72.2151C105.836 71.8337 106.533 71.5795 107.231 71.4523C107.928 71.3252 108.689 71.3252 109.45 71.3252H113.445V71.2616ZM101.777 84.2934V61.5354H113.509C114.523 61.5354 115.411 61.6626 116.235 61.9804C117.06 62.2983 117.757 62.6797 118.328 63.2518C118.899 63.824 119.343 64.5232 119.66 65.2861C119.977 66.1125 120.103 67.0024 120.103 68.0196C120.103 69.0367 119.977 69.9266 119.66 70.753C119.343 71.5795 118.899 72.2787 118.328 72.8508C117.757 73.423 117.06 73.868 116.235 74.1858C115.411 74.5037 114.523 74.6308 113.509 74.6308H109.45C108.689 74.6308 107.992 74.6944 107.231 74.8215C106.47 74.9486 105.772 75.2029 105.075 75.5843V84.357H101.777V84.2934ZM137.415 61.0905H141.093L152.063 84.2934H148.322L146.8 80.9878H139.888C138.874 80.9878 137.922 81.0513 137.098 81.1785C136.274 81.3056 135.64 81.4963 135.069 81.7506C134.498 82.0049 134.054 82.1956 133.674 82.5134C133.357 82.7677 133.103 83.022 132.976 83.2763L132.406 84.357H128.791L138.62 63.9511L137.415 61.0905ZM145.278 77.6186L140.332 67.956L135.322 78.89C135.703 78.5721 136.401 78.2543 137.352 78C138.303 77.7457 139.571 77.6186 141.156 77.6186H145.278Z" fill="#E1DAD0"/>
<path d="M49.0195 102.029V94.5281H49.7805V97.2616C49.9707 96.9438 50.2244 96.6895 50.5414 96.5623C50.8585 96.4352 51.1756 96.3716 51.6194 96.3716C52.4438 96.3716 53.0145 96.6259 53.4584 97.1345C53.6487 97.3252 53.7755 97.5795 53.8389 97.8337C53.9023 98.1516 53.9657 98.533 53.9657 99.1051V102.029H53.2048V99.1051C53.2048 98.8508 53.2048 98.5966 53.1414 98.4059C53.0779 98.0244 52.8877 97.7066 52.634 97.4523C52.317 97.198 51.9999 97.1345 51.556 97.1345C51.239 97.1345 50.9853 97.198 50.7317 97.3252C50.478 97.4523 50.2878 97.643 50.0975 97.8337C49.9707 97.9609 49.9073 98.1516 49.8439 98.3423C49.7805 98.533 49.7805 98.7873 49.7805 99.1687V102.093H49.0195V102.029ZM57.8339 96.3716C58.3412 96.3716 58.8485 96.4988 59.2924 96.753C59.7363 97.0073 60.1167 97.3887 60.3704 97.8337C60.624 98.2787 60.7509 98.7873 60.7509 99.2958C60.7509 99.8044 60.624 100.313 60.3704 100.758C60.1167 101.203 59.7363 101.584 59.2924 101.839C58.8485 102.093 58.4046 102.22 57.8339 102.22C57.3266 102.22 56.8193 102.093 56.3754 101.839C55.9315 101.584 55.551 101.266 55.2974 100.822C55.0437 100.377 54.9169 99.868 54.9169 99.3594C54.9169 98.8509 55.0437 98.3423 55.2974 97.8973C55.551 97.4523 55.9315 97.0709 56.312 96.8166C56.8827 96.4988 57.3266 96.3716 57.8339 96.3716ZM57.8973 97.0709C57.5168 97.0709 57.1363 97.198 56.8193 97.3887C56.5022 97.5795 56.2486 97.8337 56.0583 98.1516C55.8681 98.4694 55.8047 98.8509 55.8047 99.2323C55.8047 99.6137 55.9315 99.9951 56.1217 100.313C56.312 100.631 56.5656 100.885 56.8827 101.076C57.1998 101.266 57.5802 101.394 57.9607 101.394C58.3412 101.394 58.7217 101.266 59.0387 101.076C59.3558 100.885 59.6094 100.631 59.7997 100.249C59.9899 99.9315 60.0533 99.5501 60.0533 99.1051C60.0533 98.7237 59.9899 98.4059 59.7997 98.0244C59.6094 97.7066 59.3558 97.4523 59.0387 97.2616C58.6582 97.198 58.2778 97.0709 57.8973 97.0709ZM62.463 102.029V97.1345H61.3216V96.4352H62.463V94.4645H63.224V96.4352H64.4922V97.1345H63.224V102.029H62.463ZM70.8335 99.4865H65.8239C65.8873 99.8044 65.9507 99.9951 66.0141 100.186C66.1409 100.44 66.2678 100.631 66.458 100.822C66.6482 101.012 66.9019 101.139 67.1555 101.266C67.4092 101.394 67.6628 101.457 67.9799 101.457C68.614 101.457 69.1213 101.266 69.5652 100.822C69.7554 100.631 69.8823 100.44 70.0091 100.249H70.7701C70.6432 100.567 70.5164 100.822 70.3896 100.949C70.2628 101.139 70.1359 101.266 69.9457 101.457C69.692 101.711 69.375 101.839 69.0579 101.966C68.7408 102.093 68.3604 102.156 68.0433 102.156C67.536 102.156 67.0287 102.029 66.5848 101.775C66.1409 101.521 65.8239 101.139 65.5068 100.694C65.2532 100.249 65.1263 99.7408 65.1263 99.2323C65.1263 98.7237 65.2532 98.2152 65.5068 97.7702C65.7605 97.3252 66.1409 96.9438 66.5848 96.6895C67.0287 96.4352 67.536 96.3081 68.0433 96.3081C68.4872 96.3081 68.8677 96.3716 69.3116 96.5623C69.692 96.753 70.0091 97.0073 70.3262 97.3887C70.5798 97.7066 70.7701 98.088 70.8969 98.533C70.7701 98.7237 70.7701 99.0416 70.8335 99.4865ZM65.8239 98.8508H70.0725C70.0091 98.533 69.8823 98.2152 69.692 97.9609C69.5018 97.7066 69.2481 97.5159 68.9311 97.3252C68.614 97.198 68.297 97.0709 67.9799 97.0709C67.6628 97.0709 67.3458 97.1345 67.0287 97.2616C66.7116 97.3887 66.458 97.5795 66.2678 97.8973C66.0775 98.1516 65.8873 98.4694 65.8239 98.8508ZM71.8481 94.5281H72.609V102.029H71.8481V94.5281ZM82.1843 97.198H83.0087L81.6136 99.868L83.516 101.711L83.0087 102.22L81.2965 100.567C81.1697 100.822 81.0429 101.076 80.9161 101.203C80.7892 101.33 80.6624 101.521 80.5356 101.648C80.1551 102.029 79.6478 102.22 79.0137 102.22C78.5698 102.22 78.1893 102.093 77.8723 101.902C77.4918 101.711 77.2381 101.394 77.0479 101.076C76.8577 100.694 76.7308 100.313 76.7308 99.9315C76.7308 99.423 76.9211 98.9144 77.3015 98.4694C77.4284 98.2787 77.6186 98.1516 77.7454 98.0244C77.8723 97.8973 78.1259 97.7702 78.3796 97.643C78.1259 97.3887 77.9991 97.198 77.8723 97.0073C77.682 96.7531 77.6186 96.4352 77.6186 96.1173C77.6186 95.7995 77.682 95.5452 77.8723 95.2909C78.0625 95.0367 78.2527 94.846 78.5064 94.6552C78.76 94.5281 79.0771 94.401 79.3942 94.401C79.6478 94.401 79.8381 94.4645 80.0917 94.5281C80.2819 94.5917 80.5356 94.7188 80.6624 94.9095C80.8527 95.1002 80.9795 95.2909 81.0429 95.4817C81.1063 95.6724 81.1697 95.9266 81.1697 96.1173C81.1697 96.5623 80.9795 96.9438 80.6624 97.2616C80.5356 97.3887 80.4088 97.5159 80.2819 97.5795C80.1551 97.643 79.9649 97.7702 79.7112 97.8337L81.1063 99.2323L82.1843 97.198ZM78.8869 98.2152L78.5698 98.4059C78.1893 98.5966 77.9357 98.7873 77.7454 98.978C77.4918 99.2323 77.365 99.5501 77.365 99.9315C77.365 100.186 77.4284 100.504 77.5552 100.694C77.682 100.949 77.8723 101.139 78.1259 101.266C78.3796 101.394 78.6332 101.457 78.8869 101.457C79.2673 101.457 79.6478 101.33 79.9015 101.076C80.0283 100.949 80.1551 100.822 80.2819 100.694C80.3454 100.567 80.5356 100.313 80.6624 99.9951L78.8869 98.2152ZM79.0771 97.3252C79.3308 97.2616 79.521 97.1345 79.6478 97.0709C79.7746 97.0073 79.9015 96.9438 80.0283 96.8166C80.2819 96.6259 80.3454 96.3716 80.3454 96.1173C80.3454 95.8631 80.2185 95.6088 80.0283 95.4181C79.8381 95.2274 79.5844 95.1002 79.2673 95.1002C78.9503 95.1002 78.76 95.1638 78.5698 95.3545C78.3796 95.5452 78.2527 95.7359 78.2527 96.0538C78.2527 96.2445 78.3161 96.4352 78.443 96.6259C78.6332 96.8802 78.8235 97.0709 79.0771 97.3252ZM86.75 100.44H87.511C87.511 100.758 87.6378 101.012 87.828 101.203C88.0183 101.394 88.2719 101.521 88.5256 101.521C88.7792 101.521 89.0329 101.457 89.2231 101.266C89.4134 101.076 89.4768 100.885 89.4768 100.631C89.4768 100.313 89.3499 100.122 89.1597 99.9315C88.9695 99.8044 88.7792 99.6773 88.3988 99.5501C88.0817 99.423 87.828 99.3594 87.6378 99.2323C87.1939 98.978 86.9403 98.533 86.9403 97.9609C86.9403 97.5159 87.0671 97.1345 87.3842 96.8802C87.7012 96.5623 88.0817 96.4352 88.5256 96.4352C88.9695 96.4352 89.2865 96.5623 89.6036 96.8802C89.9207 97.1345 90.0475 97.5159 90.0475 97.9609H89.2865C89.2865 97.7066 89.2231 97.5159 89.0329 97.3887C88.9061 97.2616 88.6524 97.198 88.3988 97.198C88.1451 97.198 87.9549 97.2616 87.828 97.4523C87.7012 97.5795 87.5744 97.7702 87.5744 98.0244C87.5744 98.2787 87.6378 98.4694 87.828 98.5966C87.9549 98.6601 88.0183 98.7237 88.0817 98.7873C88.1451 98.8508 88.3353 98.8508 88.589 98.978C88.9695 99.1051 89.2865 99.2323 89.4768 99.3594C89.7304 99.4865 89.8572 99.6773 89.9841 99.868C90.1109 100.059 90.1109 100.313 90.1109 100.567C90.1109 101.076 89.9207 101.521 89.6036 101.839C89.2865 102.156 88.8426 102.347 88.3353 102.347C88.0183 102.347 87.7012 102.284 87.4476 102.093C87.1939 101.966 87.0037 101.711 86.8134 101.457C86.8134 101.076 86.75 100.758 86.75 100.44ZM91.1255 96.4988H91.823V97.4523C92.0133 97.198 92.1401 97.0709 92.2669 97.0073C92.7742 96.6259 93.4084 96.3716 94.0425 96.3716C94.4864 96.3716 94.8668 96.4352 95.2473 96.6259C95.6278 96.8166 96.0083 97.0709 96.2619 97.4523C96.7058 97.9609 96.896 98.533 96.896 99.2958C96.896 99.8044 96.7692 100.313 96.5156 100.758C96.2619 101.203 95.8814 101.521 95.4376 101.775C94.9937 102.029 94.4864 102.156 93.9791 102.156C93.2815 102.156 92.7108 101.966 92.2669 101.521C92.1401 101.394 92.0133 101.203 91.8864 101.012V104H91.1255V96.4988ZM93.9791 101.457C94.2961 101.457 94.6132 101.394 94.8668 101.266C95.1205 101.139 95.3741 101.012 95.5644 100.822C95.7546 100.631 95.9449 100.377 96.0083 100.122C96.1351 99.868 96.1985 99.5501 96.1985 99.2958C96.1985 98.9144 96.0717 98.533 95.8814 98.2152C95.6912 97.8973 95.4375 97.5795 95.0571 97.3887C94.74 97.198 94.3595 97.0709 93.9791 97.0709C93.5986 97.0709 93.2181 97.198 92.8376 97.3887C92.5206 97.5795 92.2669 97.8337 92.0133 98.1516C91.823 98.4694 91.6962 98.8508 91.6962 99.2958C91.6962 99.6773 91.7596 100.059 92.0133 100.377C92.2035 100.694 92.4572 100.949 92.7742 101.139C93.2181 101.394 93.5352 101.457 93.9791 101.457ZM103.681 96.4988V102.029H102.984V101.012C102.857 101.266 102.667 101.457 102.54 101.584C102.096 101.966 101.525 102.156 100.828 102.156C100.384 102.156 99.9398 102.029 99.496 101.839C99.0521 101.648 98.6716 101.33 98.4179 101.012C98.2277 100.822 98.1009 100.504 98.0375 100.186C97.9106 99.868 97.9106 99.5501 97.9106 99.2323C97.9106 98.7237 98.0375 98.2152 98.2911 97.7702C98.5448 97.3252 98.9252 96.9438 99.3691 96.6895C99.813 96.4352 100.32 96.3081 100.828 96.3081C101.145 96.3081 101.462 96.3716 101.779 96.4352C102.096 96.5623 102.35 96.6895 102.54 96.8802C102.73 97.0073 102.857 97.198 102.984 97.4523V96.3716H103.681V96.4988ZM100.828 97.0709C100.384 97.0709 100.003 97.198 99.6862 97.3887C99.3691 97.5795 99.0521 97.8337 98.8618 98.2152C98.6716 98.533 98.5448 98.9144 98.5448 99.2958C98.5448 99.6773 98.6716 100.059 98.8618 100.377C99.0521 100.694 99.3057 100.949 99.6862 101.203C100.003 101.394 100.384 101.521 100.828 101.521C101.208 101.521 101.589 101.394 101.906 101.203C102.223 101.012 102.476 100.758 102.667 100.377C102.857 100.059 102.984 99.6773 102.984 99.2958C102.984 98.9144 102.857 98.533 102.667 98.2152C102.476 97.8973 102.223 97.5795 101.906 97.3887C101.525 97.198 101.208 97.0709 100.828 97.0709Z" fill="#E1DAD0"/>
<path d="M68.3589 30.7042L55.2959 17.4181L58.4031 37.379H64.4907L69.8174 32.0391L72.3539 34.5819L66.0126 40.9389H55.3593L50.4766 9.66259H52.5692L70.8954 28.1614L68.3589 30.7042ZM72.4173 29.4328L84.4023 17.4181L75.9684 5.97555L67.4711 17.6088L74.3197 25.11L71.7198 27.5257L62.9054 17.8631L75.905 0L89.0314 17.7995L74.8904 31.9755L72.4173 29.4328ZM80.9146 41.0024H67.4711L99.3677 9.72616H100.953L96.197 40.8753L85.3535 40.9389L80.8512 36.6797L83.2609 34.0733L86.7486 37.379L93.1532 37.1883L96.1336 17.9267L76.2221 37.5061H80.978V41.0024H80.9146Z" fill="#CE9B7F"/>
<path d="M72.4181 29.4328L84.4031 17.4181L75.9692 5.97555L67.472 17.6088L74.3205 25.1736L71.7206 27.5257L62.9062 17.8631L75.9058 0L89.0957 17.7995L75.0181 31.912L72.4816 29.4328H72.4181Z" fill="#4196A3"/>
</g>
<defs>
<clipPath id="clip0_296_483">
<rect width="152" height="104" fill="white"/>
</clipPath>
</defs>
</svg>
