<svg width="240" height="164" viewBox="0 0 240 164" fill="none" xmlns="http://www.w3.org/2000/svg">
<g clip-path="url(#clip0_94_318)">
<path d="M26.3 96.8H31.5V132.7H26.3V105L5.2 132.6H0V96.8H5.2V124.5L26.3 96.8ZM72.2 122.6L60 108V132.7H54.9V101.9L50.7 96.9H57.5L72.2 114.5L87 96.8H93.8L89.6 101.8V132.6H84.5V108L72.2 122.6ZM118.2 127.3H140.3V132.6H113V96.8H138.2V102.1H118.2V113C119.3 112.4 120.4 112 121.5 111.8C122.6 111.7 123.8 111.6 125 111.6H132.8V116.9H125C123.8 116.9 122.7 117 121.6 117.2C120.5 117.4 119.3 117.8 118.3 118.3V127.3H118.2ZM178.9 112.1C182.4 112.1 184.2 110.4 184.2 107C184.2 105.2 183.8 103.9 182.9 103.2C182 102.5 180.7 102.1 179 102.1H165.8V113.6C166.9 113 168 112.6 169.1 112.4C170.2 112.2 171.4 112.2 172.6 112.2H178.9V112.1ZM160.5 132.6V96.8H179C180.6 96.8 182 97 183.3 97.5C184.6 98 185.7 98.6 186.6 99.5C187.5 100.4 188.2 101.5 188.7 102.7C189.2 104 189.4 105.4 189.4 107C189.4 108.6 189.2 110 188.7 111.3C188.2 112.6 187.5 113.7 186.6 114.6C185.7 115.5 184.6 116.2 183.3 116.7C182 117.2 180.6 117.4 179 117.4H172.6C171.4 117.4 170.3 117.5 169.1 117.7C167.9 117.9 166.8 118.3 165.7 118.9V132.7H160.5V132.6ZM216.7 96.1H222.5L239.8 132.6H233.9L231.5 127.4H220.6C219 127.4 217.5 127.5 216.2 127.7C214.9 127.9 213.9 128.2 213 128.6C212.1 129 211.4 129.3 210.8 129.8C210.3 130.2 209.9 130.6 209.7 131L208.8 132.7H203.1L218.6 100.6L216.7 96.1ZM229.1 122.1L221.3 106.9L213.4 124.1C214 123.6 215.1 123.1 216.6 122.7C218.1 122.3 220.1 122.1 222.6 122.1H229.1Z" fill="#9A4629"/>
<path d="M77.2998 160.5V148.7H78.4998V153C78.7998 152.5 79.1998 152.1 79.6998 151.9C80.1998 151.7 80.6998 151.6 81.3998 151.6C82.6998 151.6 83.5998 152 84.2998 152.8C84.5998 153.1 84.7998 153.5 84.8998 153.9C84.9998 154.4 85.0998 155 85.0998 155.9V160.5H83.8998V155.9C83.8998 155.5 83.8998 155.1 83.7998 154.8C83.6998 154.2 83.3998 153.7 82.9998 153.3C82.4998 152.9 81.9998 152.8 81.2998 152.8C80.7998 152.8 80.3998 152.9 79.9998 153.1C79.5998 153.3 79.2998 153.6 78.9998 153.9C78.7998 154.1 78.6998 154.4 78.5998 154.7C78.4998 155 78.4998 155.4 78.4998 156V160.6H77.2998V160.5ZM91.1998 151.6C91.9998 151.6 92.7998 151.8 93.4998 152.2C94.1998 152.6 94.7998 153.2 95.1998 153.9C95.5998 154.6 95.7998 155.4 95.7998 156.2C95.7998 157 95.5998 157.8 95.1998 158.5C94.7998 159.2 94.1998 159.8 93.4998 160.2C92.7998 160.6 92.0998 160.8 91.1998 160.8C90.3998 160.8 89.5998 160.6 88.8998 160.2C88.1998 159.8 87.5998 159.3 87.1998 158.6C86.7998 157.9 86.5998 157.1 86.5998 156.3C86.5998 155.5 86.7998 154.7 87.1998 154C87.5998 153.3 88.1998 152.7 88.7998 152.3C89.6998 151.8 90.3998 151.6 91.1998 151.6ZM91.2998 152.7C90.6998 152.7 90.0998 152.9 89.5998 153.2C89.0998 153.5 88.6998 153.9 88.3998 154.4C88.0998 154.9 87.9998 155.5 87.9998 156.1C87.9998 156.7 88.1998 157.3 88.4998 157.8C88.7998 158.3 89.1998 158.7 89.6998 159C90.1998 159.3 90.7998 159.5 91.3998 159.5C91.9998 159.5 92.5998 159.3 93.0998 159C93.5998 158.7 93.9998 158.3 94.2998 157.7C94.5998 157.2 94.6998 156.6 94.6998 155.9C94.6998 155.3 94.5998 154.8 94.2998 154.2C93.9998 153.7 93.5998 153.3 93.0998 153C92.4998 152.9 91.8998 152.7 91.2998 152.7ZM98.4998 160.5V152.8H96.6998V151.7H98.4998V148.6H99.6998V151.7H101.7V152.8H99.6998V160.5H98.4998ZM111.7 156.5H103.8C103.9 157 104 157.3 104.1 157.6C104.3 158 104.5 158.3 104.8 158.6C105.1 158.9 105.5 159.1 105.9 159.3C106.3 159.5 106.7 159.6 107.2 159.6C108.2 159.6 109 159.3 109.7 158.6C110 158.3 110.2 158 110.4 157.7H111.6C111.4 158.2 111.2 158.6 111 158.8C110.8 159.1 110.6 159.3 110.3 159.6C109.9 160 109.4 160.2 108.9 160.4C108.4 160.6 107.8 160.7 107.3 160.7C106.5 160.7 105.7 160.5 105 160.1C104.3 159.7 103.8 159.1 103.3 158.4C102.9 157.7 102.7 156.9 102.7 156.1C102.7 155.3 102.9 154.5 103.3 153.8C103.7 153.1 104.3 152.5 105 152.1C105.7 151.7 106.5 151.5 107.3 151.5C108 151.5 108.6 151.6 109.3 151.9C109.9 152.2 110.4 152.6 110.9 153.2C111.3 153.7 111.6 154.3 111.8 155C111.6 155.3 111.6 155.8 111.7 156.5ZM103.8 155.5H110.5C110.4 155 110.2 154.5 109.9 154.1C109.6 153.7 109.2 153.4 108.7 153.1C108.2 152.9 107.7 152.7 107.2 152.7C106.7 152.7 106.2 152.8 105.7 153C105.2 153.2 104.8 153.5 104.5 154C104.2 154.4 103.9 154.9 103.8 155.5ZM113.3 148.7H114.5V160.5H113.3V148.7ZM129.6 152.9H130.9L128.7 157.1L131.7 160L130.9 160.8L128.2 158.2C128 158.6 127.8 159 127.6 159.2C127.4 159.4 127.2 159.7 127 159.9C126.4 160.5 125.6 160.8 124.6 160.8C123.9 160.8 123.3 160.6 122.8 160.3C122.2 160 121.8 159.5 121.5 159C121.2 158.4 121 157.8 121 157.2C121 156.4 121.3 155.6 121.9 154.9C122.1 154.6 122.4 154.4 122.6 154.2C122.8 154 123.2 153.8 123.6 153.6C123.2 153.2 123 152.9 122.8 152.6C122.5 152.2 122.4 151.7 122.4 151.2C122.4 150.7 122.5 150.3 122.8 149.9C123.1 149.5 123.4 149.2 123.8 148.9C124.2 148.7 124.7 148.5 125.2 148.5C125.6 148.5 125.9 148.6 126.3 148.7C126.6 148.8 127 149 127.2 149.3C127.5 149.6 127.7 149.9 127.8 150.2C127.9 150.5 128 150.9 128 151.2C128 151.9 127.7 152.5 127.2 153C127 153.2 126.8 153.4 126.6 153.5C126.4 153.6 126.1 153.8 125.7 153.9L127.9 156.1L129.6 152.9ZM124.4 154.5L123.9 154.8C123.3 155.1 122.9 155.4 122.6 155.7C122.2 156.1 122 156.6 122 157.2C122 157.6 122.1 158.1 122.3 158.4C122.5 158.8 122.8 159.1 123.2 159.3C123.6 159.5 124 159.6 124.4 159.6C125 159.6 125.6 159.4 126 159C126.2 158.8 126.4 158.6 126.6 158.4C126.7 158.2 127 157.8 127.2 157.3L124.4 154.5ZM124.7 153.1C125.1 153 125.4 152.8 125.6 152.7C125.8 152.6 126 152.5 126.2 152.3C126.6 152 126.7 151.6 126.7 151.2C126.7 150.8 126.5 150.4 126.2 150.1C125.9 149.8 125.5 149.6 125 149.6C124.5 149.6 124.2 149.7 123.9 150C123.6 150.3 123.4 150.6 123.4 151.1C123.4 151.4 123.5 151.7 123.7 152C124 152.4 124.3 152.7 124.7 153.1ZM136.8 158H138C138 158.5 138.2 158.9 138.5 159.2C138.8 159.5 139.2 159.7 139.6 159.7C140 159.7 140.4 159.6 140.7 159.3C141 159 141.1 158.7 141.1 158.3C141.1 157.8 140.9 157.5 140.6 157.2C140.3 157 140 156.8 139.4 156.6C138.9 156.4 138.5 156.3 138.2 156.1C137.5 155.7 137.1 155 137.1 154.1C137.1 153.4 137.3 152.8 137.8 152.4C138.3 151.9 138.9 151.7 139.6 151.7C140.3 151.7 140.8 151.9 141.3 152.4C141.8 152.8 142 153.4 142 154.1H140.8C140.8 153.7 140.7 153.4 140.4 153.2C140.2 153 139.8 152.9 139.4 152.9C139 152.9 138.7 153 138.5 153.3C138.3 153.5 138.1 153.8 138.1 154.2C138.1 154.6 138.2 154.9 138.5 155.1C138.7 155.2 138.8 155.3 138.9 155.4C139 155.5 139.3 155.5 139.7 155.7C140.3 155.9 140.8 156.1 141.1 156.3C141.5 156.5 141.7 156.8 141.9 157.1C142.1 157.4 142.1 157.8 142.1 158.2C142.1 159 141.8 159.7 141.3 160.2C140.8 160.7 140.1 161 139.3 161C138.8 161 138.3 160.9 137.9 160.6C137.5 160.4 137.2 160 136.9 159.6C136.9 159 136.8 158.5 136.8 158ZM143.7 151.8H144.8V153.3C145.1 152.9 145.3 152.7 145.5 152.6C146.3 152 147.3 151.6 148.3 151.6C149 151.6 149.6 151.7 150.2 152C150.8 152.3 151.4 152.7 151.8 153.3C152.5 154.1 152.8 155 152.8 156.2C152.8 157 152.6 157.8 152.2 158.5C151.8 159.2 151.2 159.7 150.5 160.1C149.8 160.5 149 160.7 148.2 160.7C147.1 160.7 146.2 160.4 145.5 159.7C145.3 159.5 145.1 159.2 144.9 158.9V163.6H143.7V151.8ZM148.2 159.6C148.7 159.6 149.2 159.5 149.6 159.3C150 159.1 150.4 158.9 150.7 158.6C151 158.3 151.3 157.9 151.4 157.5C151.6 157.1 151.7 156.6 151.7 156.2C151.7 155.6 151.5 155 151.2 154.5C150.9 154 150.5 153.5 149.9 153.2C149.4 152.9 148.8 152.7 148.2 152.7C147.6 152.7 147 152.9 146.4 153.2C145.9 153.5 145.5 153.9 145.1 154.4C144.8 154.9 144.6 155.5 144.6 156.2C144.6 156.8 144.7 157.4 145.1 157.9C145.4 158.4 145.8 158.8 146.3 159.1C147 159.5 147.5 159.6 148.2 159.6ZM163.5 151.8V160.5H162.4V158.9C162.2 159.3 161.9 159.6 161.7 159.8C161 160.4 160.1 160.7 159 160.7C158.3 160.7 157.6 160.5 156.9 160.2C156.2 159.9 155.6 159.4 155.2 158.9C154.9 158.6 154.7 158.1 154.6 157.6C154.4 157.1 154.4 156.6 154.4 156.1C154.4 155.3 154.6 154.5 155 153.8C155.4 153.1 156 152.5 156.7 152.1C157.4 151.7 158.2 151.5 159 151.5C159.5 151.5 160 151.6 160.5 151.7C161 151.9 161.4 152.1 161.7 152.4C162 152.6 162.2 152.9 162.4 153.3V151.6H163.5V151.8ZM159 152.7C158.3 152.7 157.7 152.9 157.2 153.2C156.7 153.5 156.2 153.9 155.9 154.5C155.6 155 155.4 155.6 155.4 156.2C155.4 156.8 155.6 157.4 155.9 157.9C156.2 158.4 156.6 158.8 157.2 159.2C157.7 159.5 158.3 159.7 159 159.7C159.6 159.7 160.2 159.5 160.7 159.2C161.2 158.9 161.6 158.5 161.9 157.9C162.2 157.4 162.4 156.8 162.4 156.2C162.4 155.6 162.2 155 161.9 154.5C161.6 154 161.2 153.5 160.7 153.2C160.1 152.9 159.6 152.7 159 152.7Z" fill="#9A4629"/>
<path d="M107.8 48.3L87.1996 27.4L92.0996 58.8H101.7L110.1 50.4L114.1 54.4L104.1 64.4H87.2996L79.5996 15.2H82.8996L111.8 44.3L107.8 48.3ZM114.2 46.3L133.1 27.4L119.8 9.4L106.4 27.7L117.2 39.5L113.1 43.3L99.1996 28.1L119.7 0L140.4 28L118.1 50.3L114.2 46.3ZM127.6 64.5H106.4L156.7 15.3H159.2L151.7 64.3L134.6 64.4L127.5 57.7L131.3 53.6L136.8 58.8L146.9 58.5L151.6 28.2L120.2 59H127.7V64.5H127.6Z" fill="#CE9B7F"/>
<path d="M114.2 46.3L133.1 27.4L119.8 9.4L106.4 27.7L117.2 39.6L113.1 43.3L99.2002 28.1L119.7 0L140.5 28L118.3 50.2L114.3 46.3H114.2Z" fill="#4196A3"/>
</g>
<defs>
<clipPath id="clip0_94_318">
<rect width="239.7" height="163.6" fill="white"/>
</clipPath>
</defs>
</svg>
