<svg width="47" height="38" viewBox="0 0 47 38" fill="none" xmlns="http://www.w3.org/2000/svg">
<g clip-path="url(#clip0_180_425)">
<path d="M16.6797 28.4119L4.45263 16.1447L7.35038 34.6865H13.0045L17.9519 29.7514L20.2842 32.0779L14.3474 38H4.59399L0 8.95362H1.90827L19.012 26.0853L16.6797 28.4119ZM20.4256 27.2839L31.5925 16.1447L23.7474 5.56957L15.8316 16.3562L22.1925 23.3358L19.7895 25.5213L11.591 16.5677L23.6767 0L35.9038 16.4972L22.7579 29.6104L20.4256 27.2839ZM28.3414 38H15.8316L45.5158 9.02412H47L42.618 37.859L32.5113 37.9295L28.2707 33.9109L30.5323 31.5139L33.7835 34.5455L39.791 34.4045L42.5474 16.5677L23.9594 34.6865H28.412V38H28.3414Z" fill="#E1DAD0"/>
<path d="M20.4264 27.2839L31.5933 16.1447L23.7482 5.56957L15.8324 16.3562L22.1933 23.3358L19.7903 25.5213L11.5918 16.5677L23.6775 0L35.9753 16.4972L22.8294 29.5399L20.4971 27.2839H20.4264Z" fill="#E1DAD0"/>
</g>
<defs>
<clipPath id="clip0_180_425">
<rect width="47" height="38" fill="white"/>
</clipPath>
</defs>
</svg>
