<svg width="22" height="34" viewBox="0 0 22 34" fill="none" xmlns="http://www.w3.org/2000/svg">
<g clip-path="url(#clip0_94_123)">
<path d="M14.6962 0.545393C9.64074 -1.12265 4.02742 1.18455 2.1447 5.70541C0.279405 10.2419 2.85944 15.2616 7.9149 16.9296C12.9878 18.5977 18.6011 16.2905 20.4664 11.7696C22.3317 7.23315 19.7517 2.21344 14.6962 0.545393ZM15.132 9.99243C14.3476 11.8787 12.0116 12.8453 9.90223 12.1437C7.79288 11.4578 6.71205 9.35328 7.49652 7.46699C8.28099 5.5807 10.617 4.61417 12.7263 5.31568C14.8357 6.01719 15.9165 8.10614 15.132 9.99243Z" fill="#E1DAD0"/>
<path d="M12.3078 23.6799C11.2967 22.729 9.58826 22.6978 8.52487 23.6176L1.49951 29.6662C0.436121 30.5703 0.401255 32.0981 1.42978 33.049C2.44088 33.9999 4.14927 34.0311 5.21267 33.1114L12.238 27.0628C13.3014 26.1586 13.3363 24.6308 12.3078 23.6799Z" fill="#E1DAD0"/>
<path d="M9.93701 23.602C8.87362 24.5061 8.83876 26.0339 9.86728 26.9848L16.6311 33.2672C17.6422 34.2182 19.3506 34.2494 20.414 33.3296C21.4774 32.4254 21.5123 30.8977 20.4838 29.9468L13.7199 23.6643C12.7088 22.729 11.0004 22.6978 9.93701 23.602Z" fill="#E1DAD0"/>
<path d="M20.2218 18.1301C19.3676 17.8495 18.4611 17.9743 17.7638 18.3952C13.4405 20.2815 8.94291 20.6556 4.1315 18.1146C3.99204 18.0366 3.83515 17.9743 3.67826 17.9119C2.26621 17.4442 0.714705 18.0834 0.191726 19.3461C-0.331254 20.6088 0.383485 21.9963 1.79553 22.4639C7.67033 25.2544 13.7718 25.9091 20.309 22.6666C20.9889 22.4172 21.5642 21.9183 21.8256 21.2636C22.3486 20.0008 21.6339 18.5978 20.2218 18.1301Z" fill="#E1DAD0"/>
</g>
<defs>
<clipPath id="clip0_94_123">
<rect width="22" height="34" fill="white"/>
</clipPath>
</defs>
</svg>
