<svg width="37" height="49" viewBox="0 0 37 49" fill="none" xmlns="http://www.w3.org/2000/svg">
<path d="M18.5 0C8.36504 0 0.125 8.24004 0.125 18.375C0.125 31.9266 17.074 48.043 17.8014 48.7225C18.0023 48.9043 18.2512 49 18.5 49C18.7488 49 19.0072 48.9043 19.1986 48.7225C19.926 48.043 36.875 31.9266 36.875 18.375C36.875 8.24004 28.635 0 18.5 0ZM18.5 28.5865C12.8727 28.5865 8.28848 24.0023 8.28848 18.375C8.28848 12.7477 12.8727 8.16348 18.5 8.16348C24.1273 8.16348 28.7115 12.7477 28.7115 18.375C28.7115 24.0023 24.1273 28.5865 18.5 28.5865Z" fill="#BE4115"/>
</svg>
