<svg width="132" height="98" viewBox="0 0 132 98" fill="none" xmlns="http://www.w3.org/2000/svg">
<path d="M34 57H117C125.284 57 132 50.2843 132 42V15C132 6.71573 125.284 0 117 0H49C40.7157 0 34 6.71573 34 15V57Z" fill="#1C474E"/>
<path d="M24.5 49C14.365 49 6.125 57.24 6.125 67.375C6.125 80.9266 23.074 97.043 23.8014 97.7225C24.0023 97.9043 24.2512 98 24.5 98C24.7488 98 25.0072 97.9043 25.1986 97.7225C25.926 97.043 42.875 80.9266 42.875 67.375C42.875 57.24 34.635 49 24.5 49ZM24.5 77.5865C18.8727 77.5865 14.2885 73.0023 14.2885 67.375C14.2885 61.7477 18.8727 57.1635 24.5 57.1635C30.1273 57.1635 34.7115 61.7477 34.7115 67.375C34.7115 73.0023 30.1273 77.5865 24.5 77.5865Z" fill="#BE4115"/>
<g clip-path="url(#clip0_207_4)">
<path d="M56.461 33.2178H57.9362V43.3119H56.461V35.5234L50.4752 43.2838H49V33.2178H50.4752V41.0063L56.461 33.2178ZM69.4823 40.4721L66.0213 36.367V43.3119H64.5745V34.6518L63.383 33.2459H65.3121L69.4823 38.1946L73.6809 33.2178H75.6099L74.4184 34.6237V43.2838H72.9716V36.367L69.4823 40.4721ZM82.5319 41.7936H88.8014V43.2838H81.0567V33.2178H88.2057V34.708H82.5319V37.7728C82.844 37.6041 83.156 37.4917 83.4681 37.4354C83.7801 37.4073 84.1206 37.3792 84.461 37.3792H86.6738V38.8694H84.461C84.1206 38.8694 83.8085 38.8975 83.4965 38.9538C83.1844 39.01 82.844 39.1225 82.5603 39.2631V41.7936H82.5319ZM99.7518 37.5198C100.745 37.5198 101.255 37.0418 101.255 36.0858C101.255 35.5797 101.142 35.2141 100.887 35.0173C100.631 34.8205 100.262 34.708 99.7801 34.708H96.0355V37.9415C96.3475 37.7728 96.6596 37.6604 96.9716 37.6041C97.2837 37.5479 97.6241 37.5479 97.9645 37.5479H99.7518V37.5198ZM94.5319 43.2838V33.2178H99.7801C100.234 33.2178 100.631 33.2741 101 33.4146C101.369 33.5552 101.681 33.7239 101.936 33.977C102.191 34.23 102.39 34.5393 102.532 34.8767C102.674 35.2423 102.73 35.6359 102.73 36.0858C102.73 36.5357 102.674 36.9293 102.532 37.2948C102.39 37.6604 102.191 37.9697 101.936 38.2227C101.681 38.4758 101.369 38.6726 101 38.8132C100.631 38.9538 100.234 39.01 99.7801 39.01H97.9645C97.6241 39.01 97.3121 39.0381 96.9716 39.0943C96.6312 39.1506 96.3191 39.2631 96.0071 39.4318V43.3119H94.5319V43.2838ZM110.475 33.021H112.121L117.028 43.2838H115.355L114.674 41.8217H111.582C111.128 41.8217 110.702 41.8498 110.333 41.9061C109.965 41.9623 109.681 42.0467 109.426 42.1591C109.17 42.2716 108.972 42.356 108.801 42.4965C108.66 42.609 108.546 42.7215 108.489 42.834L108.234 43.3119H106.617L111.014 34.2863L110.475 33.021ZM113.993 40.3315L111.78 36.0577L109.539 40.8939C109.709 40.7533 110.021 40.6127 110.447 40.5002C110.872 40.3877 111.44 40.3315 112.149 40.3315H113.993Z" fill="#E1DAD0"/>
<path d="M79.582 19.5807L73.7381 13.7042L75.1281 22.533H77.8515L80.2345 20.1711L81.3693 21.2958L78.5324 24.1076H73.7664L71.582 10.2738H72.5182L80.7168 18.456L79.582 19.5807ZM81.3976 19.0183L86.7593 13.7042L82.9863 8.64303L79.1849 13.7885L82.2487 17.1064L81.0856 18.1748L77.1423 13.901L82.9579 6L88.8303 13.8729L82.504 20.143L81.3976 19.0183ZM85.1991 24.1357H79.1849L93.4544 10.302H94.1636L92.0359 24.0795L87.1849 24.1076L85.1707 22.2237L86.2487 21.0709L87.809 22.533L90.6742 22.4487L92.0076 13.9291L83.0998 22.5892H85.2274V24.1357H85.1991Z" fill="#CE9B7F"/>
<path d="M81.3969 19.0183L86.7586 13.7042L82.9856 8.64303L79.1842 13.7885L82.248 17.1345L81.0849 18.1748L77.1416 13.901L82.9572 6L88.8579 13.8729L82.56 20.1149L81.4253 19.0183H81.3969Z" fill="#4196A3"/>
</g>
<defs>
<clipPath id="clip0_207_4">
<rect width="68" height="46" fill="white" transform="translate(49 6)"/>
</clipPath>
</defs>
</svg>
