<svg width="38" height="42" viewBox="0 0 38 42" fill="none" xmlns="http://www.w3.org/2000/svg">
<path d="M19 4C11.1402 4 4.75 10.3902 4.75 18.25C4.75 28.7594 17.8941 41.2578 18.4582 41.7848C18.6141 41.9258 18.807 42 19 42C19.193 42 19.3934 41.9258 19.5418 41.7848C20.1059 41.2578 33.25 28.7594 33.25 18.25C33.25 10.3902 26.8598 4 19 4ZM19 26.1691C14.6359 26.1691 11.0809 22.6141 11.0809 18.25C11.0809 13.8859 14.6359 10.3309 19 10.3309C23.3641 10.3309 26.9191 13.8859 26.9191 18.25C26.9191 22.6141 23.3641 26.1691 19 26.1691Z" fill="#4196A3"/>
<circle cx="19" cy="15" r="14" fill="#59B4C2" stroke="#4196A3" stroke-width="2"/>
</svg>
