<svg width="19" height="12" viewBox="0 0 19 12" fill="none" xmlns="http://www.w3.org/2000/svg">
<g clip-path="url(#clip0_94_181)">
<path d="M0.1 5.6C0.1 5.5 0.199999 5.4 0.299999 5.3L5.3 0.3C5.7 -0.1 6.3 -0.1 6.7 0.3C7.1 0.7 7.1 1.3 6.7 1.7L3.4 5H18C18.6 5 19 5.5 19 6C19 6.5 18.6 7 18 7H3.4L6.7 10.3C7.1 10.7 7.1 11.3 6.7 11.7C6.3 12.1 5.7 12.1 5.3 11.7L0.299999 6.7C0.199999 6.6 0.1 6.5 0.1 6.4C0 6.1 0 5.9 0.1 5.6Z" fill="white"/>
</g>
<defs>
<clipPath id="clip0_94_181">
<rect width="19" height="12" fill="white" transform="matrix(-1 0 0 1 19 0)"/>
</clipPath>
</defs>
</svg>
