<svg width="19" height="12" viewBox="0 0 19 12" fill="none" xmlns="http://www.w3.org/2000/svg">
<g clip-path="url(#clip0_94_144)">
<path d="M18.9 5.6C18.9 5.5 18.8 5.4 18.7 5.3L13.7 0.3C13.3 -0.1 12.7 -0.1 12.3 0.3C11.9 0.7 11.9 1.3 12.3 1.7L15.6 5H1C0.4 5 0 5.5 0 6C0 6.5 0.4 7 1 7H15.6L12.3 10.3C11.9 10.7 11.9 11.3 12.3 11.7C12.7 12.1 13.3 12.1 13.7 11.7L18.7 6.7C18.8 6.6 18.9 6.5 18.9 6.4C19 6.1 19 5.9 18.9 5.6Z" fill="#E1DAD0"/>
</g>
<defs>
<clipPath id="clip0_94_144">
<rect width="19" height="12" fill="white"/>
</clipPath>
</defs>
</svg>
