<svg width="12" height="20" viewBox="0 0 12 20" fill="none" xmlns="http://www.w3.org/2000/svg">
<g clip-path="url(#clip0_94_128)">
<path d="M8.01602 0.32105C5.2585 -0.660152 2.19669 0.697024 1.16975 3.35635C0.152314 6.02486 1.5596 8.97763 4.31713 9.95883C7.08417 10.94 10.146 9.58286 11.1634 6.92353C12.1808 4.25502 10.7736 1.30225 8.01602 0.32105ZM8.25374 5.87813C7.82585 6.98772 6.55168 7.55626 5.40113 7.14361C4.25057 6.74012 3.66103 5.50216 4.08892 4.39258C4.51681 3.28299 5.79098 2.71445 6.94154 3.1271C8.09209 3.53976 8.68163 4.76855 8.25374 5.87813Z" fill="#E1DAD0"/>
<path d="M6.7127 13.9293C6.16119 13.3699 5.22934 13.3516 4.64931 13.8926L0.817294 17.4506C0.237263 17.9825 0.218245 18.8812 0.779259 19.4405C1.33076 19.9999 2.26262 20.0182 2.84265 19.4772L6.67466 15.9192C7.2547 15.3873 7.27371 14.4887 6.7127 13.9293Z" fill="#E1DAD0"/>
<path d="M5.41983 13.8838C4.8398 14.4157 4.82078 15.3143 5.3818 15.8737L9.07118 19.5693C9.62269 20.1286 10.5545 20.147 11.1346 19.6059C11.7146 19.0741 11.7336 18.1754 11.1726 17.616L7.48322 13.9205C6.93172 13.3703 5.99986 13.3519 5.41983 13.8838Z" fill="#E1DAD0"/>
<path d="M11.0296 10.6647C10.5637 10.4997 10.0693 10.573 9.68892 10.8206C7.33076 11.9302 4.87751 12.1503 2.2531 10.6556C2.17703 10.6097 2.09146 10.573 2.00588 10.5364C1.23567 10.2613 0.389395 10.6372 0.104134 11.38C-0.181128 12.1228 0.20873 12.9389 0.978936 13.214C4.18337 14.8555 7.51142 15.2406 11.0772 13.3332C11.448 13.1865 11.7618 12.8931 11.9045 12.5079C12.1897 11.7651 11.7999 10.9398 11.0296 10.6647Z" fill="#E1DAD0"/>
</g>
<defs>
<clipPath id="clip0_94_128">
<rect width="12" height="20" fill="white"/>
</clipPath>
</defs>
</svg>
