<svg width="16" height="16" viewBox="0 0 16 16" fill="none" xmlns="http://www.w3.org/2000/svg">
<g clip-path="url(#clip0_94_100)">
<path d="M14.838 0.178021L0.627009 6.62963C0.627009 6.62963 -0.0471778 6.89384 0.00590783 7.38539C0.0589934 7.87695 0.605775 8.10429 0.605775 8.10429L4.17844 9.49907L4.18374 9.50521V9.49907L12.7624 3.18877C12.7624 3.18877 13.2561 2.83854 13.2401 3.18877C13.2401 3.18877 13.3304 3.25022 13.065 3.539C12.7995 3.82779 6.32309 10.562 6.32309 10.562L6.31248 10.6911L12.1413 15.8647C13.1127 16.3562 13.4684 15.3301 13.4684 15.3301L16.0006 0.565118C16.0006 -0.417985 14.8327 0.178021 14.838 0.178021Z" fill="#E1DAD0" fill-opacity="0.96875"/>
<path d="M8.5416 12.6693L6.23238 15.1086C6.23238 15.1086 6.05189 15.2683 5.85547 15.17L6.29608 10.6416" fill="#E1DAD0" fill-opacity="0.96875"/>
</g>
<defs>
<clipPath id="clip0_94_100">
<rect width="16" height="16" fill="white"/>
</clipPath>
</defs>
</svg>
