<svg width="23" height="12" viewBox="0 0 23 12" fill="none" xmlns="http://www.w3.org/2000/svg">
<g clip-path="url(#clip0_94_135)">
<path d="M0.219852 1.8149C0.0264392 1.35618 -0.220699 0.877936 0.364912 0.619295C1.55225 0.604654 2.73959 0.590014 3.9323 0.575374C4.44807 0.590014 4.68446 0.936497 4.95847 1.41962C5.75898 2.82019 6.59173 4.21588 7.5964 5.49933C7.92413 5.91901 8.4775 6.08005 8.91268 5.41149C8.96103 4.50868 9.00939 3.60587 9.05774 2.70307C8.89656 1.65386 8.49362 1.0341 7.78981 0.970657C7.38687 0.614415 7.67699 0.321613 8.57958 0.165452C10.0141 -0.11271 11.2659 0.0141705 12.3672 0.141051C13.2967 0.194732 13.431 0.765696 13.4149 1.41962C13.3827 2.61523 13.3558 3.81572 13.3558 5.01132C13.6298 6.22645 14.3605 5.73845 14.844 5.21141C15.709 4.09388 16.4612 3.00563 17.0897 1.78074C17.7398 0.521694 17.9171 0.614415 18.3738 0.609535C19.4644 0.604654 20.6679 0.555854 21.5382 0.585134C23.3542 0.487534 23.1446 1.21954 22.6342 1.99546C21.7531 3.34723 20.6195 4.56724 19.6095 5.85557C18.997 6.61198 19.0078 7.08534 19.6578 7.49526C20.6195 8.45663 21.6618 9.35455 22.5375 10.3794C23.4885 11.4969 22.79 11.8043 21.9036 11.8873C20.8452 11.8873 19.7868 11.8873 18.7284 11.8873C17.8258 11.9019 17.0092 11.697 16.4343 10.8234C15.1073 9.22767 14.1187 8.78847 13.7211 9.6864C13.5492 10.0817 13.4042 10.6136 13.4095 11.1309C13.4149 11.8531 12.9367 11.9117 12.2867 11.9312C11.5882 11.9312 10.8629 12.0874 10.186 11.9312C7.78981 11.3798 5.49035 10.3647 3.24999 6.8755C2.23994 5.36757 1.2299 3.71812 0.219852 1.8149Z" fill="#E1DAD0"/>
</g>
<defs>
<clipPath id="clip0_94_135">
<rect width="23" height="12" fill="white"/>
</clipPath>
</defs>
</svg>
