<svg width="19" height="18" viewBox="0 0 19 18" fill="none" xmlns="http://www.w3.org/2000/svg">
<g clip-path="url(#clip0_94_111)">
<path d="M16.226 2.61493C14.44 0.931343 12.065 0 9.538 0C4.332 0 0.076 3.99403 0.076 8.9194C0.076 10.4955 0.513 12.0179 1.33 13.3791L0 18L5.016 16.7642C6.403 17.4806 7.961 17.8567 9.538 17.8567C14.744 17.8567 19 13.8627 19 8.93731C19 6.53731 18.012 4.29851 16.226 2.61493ZM9.538 16.3343C8.132 16.3343 6.745 15.9761 5.529 15.2955L5.244 15.1343L2.28 15.8866L3.078 13.1463L2.888 12.8597C2.109 11.6776 1.691 10.3164 1.691 8.9194C1.672 4.83582 5.206 1.50448 9.538 1.50448C11.647 1.50448 13.604 2.27463 15.105 3.67164C16.587 5.06866 17.404 6.93134 17.404 8.9194C17.404 13.003 13.87 16.3343 9.538 16.3343ZM13.851 10.7821C13.623 10.6746 12.445 10.1373 12.236 10.0657C12.027 9.99403 11.856 9.95821 11.704 10.1731C11.552 10.3881 11.096 10.8896 10.963 11.0507C10.83 11.194 10.678 11.2119 10.45 11.1045C10.222 10.997 9.443 10.7642 8.55 9.99403C7.847 9.40298 7.372 8.66866 7.239 8.45373C7.106 8.23881 7.22 8.11343 7.334 8.00597C7.448 7.89851 7.562 7.73731 7.695 7.61194C7.809 7.48657 7.847 7.39702 7.923 7.23582C7.999 7.09254 7.961 6.94925 7.904 6.84179C7.847 6.73433 7.372 5.64179 7.182 5.19403C6.992 4.76418 6.802 4.81791 6.65 4.81791C6.517 4.81791 6.346 4.81791 6.194 4.81791C6.042 4.81791 5.776 4.87164 5.567 5.10448C5.358 5.3194 4.731 5.87463 4.731 6.96716C4.731 8.0597 5.586 9.11642 5.7 9.27761C5.814 9.4209 7.372 11.6776 9.747 12.6448C10.317 12.8776 10.754 13.003 11.096 13.1104C11.666 13.2716 12.179 13.2537 12.578 13.2C13.034 13.1284 13.984 12.6627 14.174 12.1433C14.364 11.6239 14.364 11.1761 14.307 11.0866C14.25 10.9433 14.098 10.8896 13.851 10.7821Z" fill="#E1DAD0" fill-opacity="0.96875"/>
</g>
<defs>
<clipPath id="clip0_94_111">
<rect width="19" height="18" fill="white"/>
</clipPath>
</defs>
</svg>
