<svg width="14" height="14" viewBox="0 0 14 14" fill="none" xmlns="http://www.w3.org/2000/svg">
<g clip-path="url(#clip0_94_94)">
<path d="M12.9827 0.15586L0.548023 5.80102C0.548023 5.80102 -0.0418909 6.0322 0.004559 6.46231C0.0510089 6.89242 0.529443 7.09134 0.529443 7.09134L3.65552 8.31177L3.66017 8.31715V8.31177L11.1665 2.79027C11.1665 2.79027 11.5985 2.48382 11.5845 2.79027C11.5845 2.79027 11.6635 2.84403 11.4312 3.09672C11.199 3.34941 5.5321 9.24188 5.5321 9.24188L5.52281 9.35478L10.623 13.8817C11.473 14.3118 11.7843 13.4139 11.7843 13.4139L13.9999 0.49457C13.9999 -0.365645 12.978 0.15586 12.9827 0.15586Z" fill="#112323"/>
<path d="M7.47341 11.086L5.45284 13.2204C5.45284 13.2204 5.29491 13.3602 5.12305 13.2742L5.50858 9.31183" fill="#112323"/>
</g>
<defs>
<clipPath id="clip0_94_94">
<rect width="14" height="14" fill="white"/>
</clipPath>
</defs>
</svg>
