<svg width="45" height="25" viewBox="0 0 45 25" fill="none" xmlns="http://www.w3.org/2000/svg">
<g clip-path="url(#clip0_94_133)">
<path d="M0.431079 3.7821C0.052663 2.82643 -0.430869 1.83009 0.714891 1.29125C3.03795 1.26075 5.361 1.23025 7.69457 1.19975C8.70368 1.23025 9.16619 1.95209 9.70228 2.9586C11.2685 5.87645 12.8978 8.78414 14.8635 11.458C15.5047 12.3323 16.5874 12.6678 17.4388 11.275C17.5334 9.39414 17.628 7.5133 17.7226 5.63245C17.4073 3.4466 16.6189 2.15543 15.2419 2.02326C14.4535 1.28109 15.0211 0.671084 16.7871 0.345749C19.5937 -0.233755 22.0429 0.0305798 24.1977 0.294915C26.0162 0.406749 26.279 1.59626 26.2475 2.9586C26.1844 5.44945 26.1319 7.95047 26.1319 10.4413C26.6679 12.9728 28.0975 11.9562 29.0436 10.8582C30.7359 8.52997 32.2075 6.26279 33.4374 3.71094C34.7093 1.08792 35.0562 1.28109 35.9496 1.27092C38.0835 1.26075 40.4381 1.15909 42.141 1.22009C45.6939 1.01675 45.2839 2.54176 44.2853 4.15827C42.5614 6.97446 40.3435 9.51614 38.3673 12.2002C37.169 13.776 37.19 14.7622 38.4619 15.6162C40.3435 17.619 42.3827 19.4897 44.0961 21.6247C45.9567 23.9529 44.5902 24.5934 42.8557 24.7662C40.785 24.7662 38.7142 24.7662 36.6434 24.7662C34.8775 24.7967 33.2797 24.3697 32.155 22.5499C29.5586 19.2254 27.6245 18.3104 26.8466 20.181C26.5103 21.0046 26.2265 22.1127 26.237 23.1904C26.2475 24.6951 25.3119 24.8171 24.04 24.8577C22.6735 24.8577 21.2545 25.1831 19.93 24.8577C15.2419 23.7089 10.7429 21.5942 6.3596 14.325C4.38343 11.1835 2.40725 7.74713 0.431079 3.7821Z" fill="#E1DAD0"/>
</g>
<defs>
<clipPath id="clip0_94_133">
<rect width="45" height="25" fill="white"/>
</clipPath>
</defs>
</svg>
