<svg width="16" height="16" viewBox="0 0 16 16" fill="none" xmlns="http://www.w3.org/2000/svg">
<g clip-path="url(#clip0_94_103)">
<path d="M13.664 2.32438C12.16 0.827861 10.16 0 8.032 0C3.648 0 0.064 3.55025 0.064 7.92836C0.064 9.32935 0.432 10.6826 1.12 11.8925L0 16L4.224 14.9015C5.392 15.5383 6.704 15.8726 8.032 15.8726C12.416 15.8726 16 12.3224 16 7.94428C16 5.81095 15.168 3.8209 13.664 2.32438ZM8.032 14.5194C6.848 14.5194 5.68 14.201 4.656 13.596L4.416 13.4527L1.92 14.1214L2.592 11.6856L2.432 11.4308C1.776 10.3801 1.424 9.17015 1.424 7.92836C1.408 4.29851 4.384 1.33731 8.032 1.33731C9.808 1.33731 11.456 2.02189 12.72 3.26368C13.968 4.50547 14.656 6.16119 14.656 7.92836C14.656 11.5582 11.68 14.5194 8.032 14.5194ZM11.664 9.58408C11.472 9.48856 10.48 9.01095 10.304 8.94726C10.128 8.88358 9.984 8.85174 9.856 9.04279C9.728 9.23383 9.344 9.6796 9.232 9.82289C9.12 9.95025 8.992 9.96617 8.8 9.87065C8.608 9.77512 7.952 9.56816 7.2 8.88358C6.608 8.35821 6.208 7.70547 6.096 7.51443C5.984 7.32338 6.08 7.21194 6.176 7.11642C6.272 7.0209 6.368 6.87761 6.48 6.76617C6.576 6.65473 6.608 6.57512 6.672 6.43184C6.736 6.30448 6.704 6.17711 6.656 6.08159C6.608 5.98607 6.208 5.01493 6.048 4.61692C5.888 4.23483 5.728 4.28259 5.6 4.28259C5.488 4.28259 5.344 4.28259 5.216 4.28259C5.088 4.28259 4.864 4.33035 4.688 4.53731C4.512 4.72836 3.984 5.22189 3.984 6.19304C3.984 7.16418 4.704 8.10348 4.8 8.24677C4.896 8.37413 6.208 10.3801 8.208 11.2398C8.688 11.4468 9.056 11.5582 9.344 11.6537C9.824 11.797 10.256 11.7811 10.592 11.7333C10.976 11.6697 11.776 11.2557 11.936 10.794C12.096 10.3323 12.096 9.93433 12.048 9.85473C12 9.72736 11.872 9.6796 11.664 9.58408Z" fill="#112323"/>
</g>
<defs>
<clipPath id="clip0_94_103">
<rect width="16" height="16" fill="white"/>
</clipPath>
</defs>
</svg>
